<?xml version="1.0" encoding="utf-8" standalone="no"?>
<!DOCTYPE svg PUBLIC "-//W3C//DTD SVG 1.1//EN"
  "http://www.w3.org/Graphics/SVG/1.1/DTD/svg11.dtd">
<svg xmlns:xlink="http://www.w3.org/1999/xlink" width="460.8pt" height="345.6pt" viewBox="0 0 460.8 345.6" xmlns="http://www.w3.org/2000/svg" version="1.1">
 <metadata>
  <rdf:RDF xmlns:dc="http://purl.org/dc/elements/1.1/" xmlns:cc="http://creativecommons.org/ns#" xmlns:rdf="http://www.w3.org/1999/02/22-rdf-syntax-ns#">
   <cc:Work>
    <dc:type rdf:resource="http://purl.org/dc/dcmitype/StillImage"/>
    <dc:date>2022-03-17T02:32:20.198217</dc:date>
    <dc:format>image/svg+xml</dc:format>
    <dc:creator>
     <cc:Agent>
      <dc:title>Matplotlib v3.5.1, https://matplotlib.org/</dc:title>
     </cc:Agent>
    </dc:creator>
   </cc:Work>
  </rdf:RDF>
 </metadata>
 <defs>
  <style type="text/css">*{stroke-linejoin: round; stroke-linecap: butt}</style>
 </defs>
 <g id="figure_1">
  <g id="patch_1">
   <path d="M 0 345.6 
L 460.8 345.6 
L 460.8 0 
L 0 0 
z
" style="fill: #ffffff"/>
  </g>
  <g id="axes_1">
   <g id="patch_2">
    <path d="M 57.6 162.432 
L 219.927273 162.432 
L 219.927273 41.472 
L 57.6 41.472 
z
" style="fill: #ffffff"/>
   </g>
   <g id="matplotlib.axis_1">
    <g id="xtick_1">
     <g id="line2d_1">
      <path d="M 64.978512 162.432 
L 64.978512 41.472 
" clip-path="url(#pa3e1dddd7d)" style="fill: none; stroke: #b0b0b0; stroke-width: 0.8; stroke-linecap: square"/>
     </g>
     <g id="line2d_2">
      <defs>
       <path id="meecf37c49a" d="M 0 0 
L 0 3.5 
" style="stroke: #000000; stroke-width: 0.8"/>
      </defs>
      <g>
       <use xlink:href="#meecf37c49a" x="64.978512" y="162.432" style="stroke: #000000; stroke-width: 0.8"/>
      </g>
     </g>
     <g id="text_1">
      <!-- 0 -->
      <g transform="translate(61.797262 177.030437)scale(0.1 -0.1)">
       <defs>
        <path id="DejaVuSans-30" d="M 2034 4250 
Q 1547 4250 1301 3770 
Q 1056 3291 1056 2328 
Q 1056 1369 1301 889 
Q 1547 409 2034 409 
Q 2525 409 2770 889 
Q 3016 1369 3016 2328 
Q 3016 3291 2770 3770 
Q 2525 4250 2034 4250 
z
M 2034 4750 
Q 2819 4750 3233 4129 
Q 3647 3509 3647 2328 
Q 3647 1150 3233 529 
Q 2819 -91 2034 -91 
Q 1250 -91 836 529 
Q 422 1150 422 2328 
Q 422 3509 836 4129 
Q 1250 4750 2034 4750 
z
" transform="scale(0.015625)"/>
       </defs>
       <use xlink:href="#DejaVuSans-30"/>
      </g>
     </g>
    </g>
    <g id="xtick_2">
     <g id="line2d_3">
      <path d="M 124.124904 162.432 
L 124.124904 41.472 
" clip-path="url(#pa3e1dddd7d)" style="fill: none; stroke: #b0b0b0; stroke-width: 0.8; stroke-linecap: square"/>
     </g>
     <g id="line2d_4">
      <g>
       <use xlink:href="#meecf37c49a" x="124.124904" y="162.432" style="stroke: #000000; stroke-width: 0.8"/>
      </g>
     </g>
     <g id="text_2">
      <!-- 200 -->
      <g transform="translate(114.581154 177.030437)scale(0.1 -0.1)">
       <defs>
        <path id="DejaVuSans-32" d="M 1228 531 
L 3431 531 
L 3431 0 
L 469 0 
L 469 531 
Q 828 903 1448 1529 
Q 2069 2156 2228 2338 
Q 2531 2678 2651 2914 
Q 2772 3150 2772 3378 
Q 2772 3750 2511 3984 
Q 2250 4219 1831 4219 
Q 1534 4219 1204 4116 
Q 875 4013 500 3803 
L 500 4441 
Q 881 4594 1212 4672 
Q 1544 4750 1819 4750 
Q 2544 4750 2975 4387 
Q 3406 4025 3406 3419 
Q 3406 3131 3298 2873 
Q 3191 2616 2906 2266 
Q 2828 2175 2409 1742 
Q 1991 1309 1228 531 
z
" transform="scale(0.015625)"/>
       </defs>
       <use xlink:href="#DejaVuSans-32"/>
       <use xlink:href="#DejaVuSans-30" x="63.623047"/>
       <use xlink:href="#DejaVuSans-30" x="127.246094"/>
      </g>
     </g>
    </g>
    <g id="xtick_3">
     <g id="line2d_5">
      <path d="M 183.271296 162.432 
L 183.271296 41.472 
" clip-path="url(#pa3e1dddd7d)" style="fill: none; stroke: #b0b0b0; stroke-width: 0.8; stroke-linecap: square"/>
     </g>
     <g id="line2d_6">
      <g>
       <use xlink:href="#meecf37c49a" x="183.271296" y="162.432" style="stroke: #000000; stroke-width: 0.8"/>
      </g>
     </g>
     <g id="text_3">
      <!-- 400 -->
      <g transform="translate(173.727546 177.030437)scale(0.1 -0.1)">
       <defs>
        <path id="DejaVuSans-34" d="M 2419 4116 
L 825 1625 
L 2419 1625 
L 2419 4116 
z
M 2253 4666 
L 3047 4666 
L 3047 1625 
L 3713 1625 
L 3713 1100 
L 3047 1100 
L 3047 0 
L 2419 0 
L 2419 1100 
L 313 1100 
L 313 1709 
L 2253 4666 
z
" transform="scale(0.015625)"/>
       </defs>
       <use xlink:href="#DejaVuSans-34"/>
       <use xlink:href="#DejaVuSans-30" x="63.623047"/>
       <use xlink:href="#DejaVuSans-30" x="127.246094"/>
      </g>
     </g>
    </g>
   </g>
   <g id="matplotlib.axis_2">
    <g id="ytick_1">
     <g id="line2d_7">
      <path d="M 57.6 162.432 
L 219.927273 162.432 
" clip-path="url(#pa3e1dddd7d)" style="fill: none; stroke: #b0b0b0; stroke-width: 0.8; stroke-linecap: square"/>
     </g>
     <g id="line2d_8">
      <defs>
       <path id="m6ed738721a" d="M 0 0 
L -3.5 0 
" style="stroke: #000000; stroke-width: 0.8"/>
      </defs>
      <g>
       <use xlink:href="#m6ed738721a" x="57.6" y="162.432" style="stroke: #000000; stroke-width: 0.8"/>
      </g>
     </g>
     <g id="text_4">
      <!-- 0 -->
      <g transform="translate(44.2375 166.231219)scale(0.1 -0.1)">
       <use xlink:href="#DejaVuSans-30"/>
      </g>
     </g>
    </g>
    <g id="ytick_2">
     <g id="line2d_9">
      <path d="M 57.6 138.24 
L 219.927273 138.24 
" clip-path="url(#pa3e1dddd7d)" style="fill: none; stroke: #b0b0b0; stroke-width: 0.8; stroke-linecap: square"/>
     </g>
     <g id="line2d_10">
      <g>
       <use xlink:href="#m6ed738721a" x="57.6" y="138.24" style="stroke: #000000; stroke-width: 0.8"/>
      </g>
     </g>
     <g id="text_5">
      <!-- 20 -->
      <g transform="translate(37.875 142.039219)scale(0.1 -0.1)">
       <use xlink:href="#DejaVuSans-32"/>
       <use xlink:href="#DejaVuSans-30" x="63.623047"/>
      </g>
     </g>
    </g>
    <g id="ytick_3">
     <g id="line2d_11">
      <path d="M 57.6 114.048 
L 219.927273 114.048 
" clip-path="url(#pa3e1dddd7d)" style="fill: none; stroke: #b0b0b0; stroke-width: 0.8; stroke-linecap: square"/>
     </g>
     <g id="line2d_12">
      <g>
       <use xlink:href="#m6ed738721a" x="57.6" y="114.048" style="stroke: #000000; stroke-width: 0.8"/>
      </g>
     </g>
     <g id="text_6">
      <!-- 40 -->
      <g transform="translate(37.875 117.847219)scale(0.1 -0.1)">
       <use xlink:href="#DejaVuSans-34"/>
       <use xlink:href="#DejaVuSans-30" x="63.623047"/>
      </g>
     </g>
    </g>
    <g id="ytick_4">
     <g id="line2d_13">
      <path d="M 57.6 89.856 
L 219.927273 89.856 
" clip-path="url(#pa3e1dddd7d)" style="fill: none; stroke: #b0b0b0; stroke-width: 0.8; stroke-linecap: square"/>
     </g>
     <g id="line2d_14">
      <g>
       <use xlink:href="#m6ed738721a" x="57.6" y="89.856" style="stroke: #000000; stroke-width: 0.8"/>
      </g>
     </g>
     <g id="text_7">
      <!-- 60 -->
      <g transform="translate(37.875 93.655219)scale(0.1 -0.1)">
       <defs>
        <path id="DejaVuSans-36" d="M 2113 2584 
Q 1688 2584 1439 2293 
Q 1191 2003 1191 1497 
Q 1191 994 1439 701 
Q 1688 409 2113 409 
Q 2538 409 2786 701 
Q 3034 994 3034 1497 
Q 3034 2003 2786 2293 
Q 2538 2584 2113 2584 
z
M 3366 4563 
L 3366 3988 
Q 3128 4100 2886 4159 
Q 2644 4219 2406 4219 
Q 1781 4219 1451 3797 
Q 1122 3375 1075 2522 
Q 1259 2794 1537 2939 
Q 1816 3084 2150 3084 
Q 2853 3084 3261 2657 
Q 3669 2231 3669 1497 
Q 3669 778 3244 343 
Q 2819 -91 2113 -91 
Q 1303 -91 875 529 
Q 447 1150 447 2328 
Q 447 3434 972 4092 
Q 1497 4750 2381 4750 
Q 2619 4750 2861 4703 
Q 3103 4656 3366 4563 
z
" transform="scale(0.015625)"/>
       </defs>
       <use xlink:href="#DejaVuSans-36"/>
       <use xlink:href="#DejaVuSans-30" x="63.623047"/>
      </g>
     </g>
    </g>
    <g id="ytick_5">
     <g id="line2d_15">
      <path d="M 57.6 65.664 
L 219.927273 65.664 
" clip-path="url(#pa3e1dddd7d)" style="fill: none; stroke: #b0b0b0; stroke-width: 0.8; stroke-linecap: square"/>
     </g>
     <g id="line2d_16">
      <g>
       <use xlink:href="#m6ed738721a" x="57.6" y="65.664" style="stroke: #000000; stroke-width: 0.8"/>
      </g>
     </g>
     <g id="text_8">
      <!-- 80 -->
      <g transform="translate(37.875 69.463219)scale(0.1 -0.1)">
       <defs>
        <path id="DejaVuSans-38" d="M 2034 2216 
Q 1584 2216 1326 1975 
Q 1069 1734 1069 1313 
Q 1069 891 1326 650 
Q 1584 409 2034 409 
Q 2484 409 2743 651 
Q 3003 894 3003 1313 
Q 3003 1734 2745 1975 
Q 2488 2216 2034 2216 
z
M 1403 2484 
Q 997 2584 770 2862 
Q 544 3141 544 3541 
Q 544 4100 942 4425 
Q 1341 4750 2034 4750 
Q 2731 4750 3128 4425 
Q 3525 4100 3525 3541 
Q 3525 3141 3298 2862 
Q 3072 2584 2669 2484 
Q 3125 2378 3379 2068 
Q 3634 1759 3634 1313 
Q 3634 634 3220 271 
Q 2806 -91 2034 -91 
Q 1263 -91 848 271 
Q 434 634 434 1313 
Q 434 1759 690 2068 
Q 947 2378 1403 2484 
z
M 1172 3481 
Q 1172 3119 1398 2916 
Q 1625 2713 2034 2713 
Q 2441 2713 2670 2916 
Q 2900 3119 2900 3481 
Q 2900 3844 2670 4047 
Q 2441 4250 2034 4250 
Q 1625 4250 1398 4047 
Q 1172 3844 1172 3481 
z
" transform="scale(0.015625)"/>
       </defs>
       <use xlink:href="#DejaVuSans-38"/>
       <use xlink:href="#DejaVuSans-30" x="63.623047"/>
      </g>
     </g>
    </g>
    <g id="ytick_6">
     <g id="line2d_17">
      <path d="M 57.6 41.472 
L 219.927273 41.472 
" clip-path="url(#pa3e1dddd7d)" style="fill: none; stroke: #b0b0b0; stroke-width: 0.8; stroke-linecap: square"/>
     </g>
     <g id="line2d_18">
      <g>
       <use xlink:href="#m6ed738721a" x="57.6" y="41.472" style="stroke: #000000; stroke-width: 0.8"/>
      </g>
     </g>
     <g id="text_9">
      <!-- 100 -->
      <g transform="translate(31.5125 45.271219)scale(0.1 -0.1)">
       <defs>
        <path id="DejaVuSans-31" d="M 794 531 
L 1825 531 
L 1825 4091 
L 703 3866 
L 703 4441 
L 1819 4666 
L 2450 4666 
L 2450 531 
L 3481 531 
L 3481 0 
L 794 0 
L 794 531 
z
" transform="scale(0.015625)"/>
       </defs>
       <use xlink:href="#DejaVuSans-31"/>
       <use xlink:href="#DejaVuSans-30" x="63.623047"/>
       <use xlink:href="#DejaVuSans-30" x="127.246094"/>
      </g>
     </g>
    </g>
    <g id="text_10">
     <!-- CPU load % -->
     <g transform="translate(25.432812 130.73325)rotate(-90)scale(0.1 -0.1)">
      <defs>
       <path id="DejaVuSans-43" d="M 4122 4306 
L 4122 3641 
Q 3803 3938 3442 4084 
Q 3081 4231 2675 4231 
Q 1875 4231 1450 3742 
Q 1025 3253 1025 2328 
Q 1025 1406 1450 917 
Q 1875 428 2675 428 
Q 3081 428 3442 575 
Q 3803 722 4122 1019 
L 4122 359 
Q 3791 134 3420 21 
Q 3050 -91 2638 -91 
Q 1578 -91 968 557 
Q 359 1206 359 2328 
Q 359 3453 968 4101 
Q 1578 4750 2638 4750 
Q 3056 4750 3426 4639 
Q 3797 4528 4122 4306 
z
" transform="scale(0.015625)"/>
       <path id="DejaVuSans-50" d="M 1259 4147 
L 1259 2394 
L 2053 2394 
Q 2494 2394 2734 2622 
Q 2975 2850 2975 3272 
Q 2975 3691 2734 3919 
Q 2494 4147 2053 4147 
L 1259 4147 
z
M 628 4666 
L 2053 4666 
Q 2838 4666 3239 4311 
Q 3641 3956 3641 3272 
Q 3641 2581 3239 2228 
Q 2838 1875 2053 1875 
L 1259 1875 
L 1259 0 
L 628 0 
L 628 4666 
z
" transform="scale(0.015625)"/>
       <path id="DejaVuSans-55" d="M 556 4666 
L 1191 4666 
L 1191 1831 
Q 1191 1081 1462 751 
Q 1734 422 2344 422 
Q 2950 422 3222 751 
Q 3494 1081 3494 1831 
L 3494 4666 
L 4128 4666 
L 4128 1753 
Q 4128 841 3676 375 
Q 3225 -91 2344 -91 
Q 1459 -91 1007 375 
Q 556 841 556 1753 
L 556 4666 
z
" transform="scale(0.015625)"/>
       <path id="DejaVuSans-20" transform="scale(0.015625)"/>
       <path id="DejaVuSans-6c" d="M 603 4863 
L 1178 4863 
L 1178 0 
L 603 0 
L 603 4863 
z
" transform="scale(0.015625)"/>
       <path id="DejaVuSans-6f" d="M 1959 3097 
Q 1497 3097 1228 2736 
Q 959 2375 959 1747 
Q 959 1119 1226 758 
Q 1494 397 1959 397 
Q 2419 397 2687 759 
Q 2956 1122 2956 1747 
Q 2956 2369 2687 2733 
Q 2419 3097 1959 3097 
z
M 1959 3584 
Q 2709 3584 3137 3096 
Q 3566 2609 3566 1747 
Q 3566 888 3137 398 
Q 2709 -91 1959 -91 
Q 1206 -91 779 398 
Q 353 888 353 1747 
Q 353 2609 779 3096 
Q 1206 3584 1959 3584 
z
" transform="scale(0.015625)"/>
       <path id="DejaVuSans-61" d="M 2194 1759 
Q 1497 1759 1228 1600 
Q 959 1441 959 1056 
Q 959 750 1161 570 
Q 1363 391 1709 391 
Q 2188 391 2477 730 
Q 2766 1069 2766 1631 
L 2766 1759 
L 2194 1759 
z
M 3341 1997 
L 3341 0 
L 2766 0 
L 2766 531 
Q 2569 213 2275 61 
Q 1981 -91 1556 -91 
Q 1019 -91 701 211 
Q 384 513 384 1019 
Q 384 1609 779 1909 
Q 1175 2209 1959 2209 
L 2766 2209 
L 2766 2266 
Q 2766 2663 2505 2880 
Q 2244 3097 1772 3097 
Q 1472 3097 1187 3025 
Q 903 2953 641 2809 
L 641 3341 
Q 956 3463 1253 3523 
Q 1550 3584 1831 3584 
Q 2591 3584 2966 3190 
Q 3341 2797 3341 1997 
z
" transform="scale(0.015625)"/>
       <path id="DejaVuSans-64" d="M 2906 2969 
L 2906 4863 
L 3481 4863 
L 3481 0 
L 2906 0 
L 2906 525 
Q 2725 213 2448 61 
Q 2172 -91 1784 -91 
Q 1150 -91 751 415 
Q 353 922 353 1747 
Q 353 2572 751 3078 
Q 1150 3584 1784 3584 
Q 2172 3584 2448 3432 
Q 2725 3281 2906 2969 
z
M 947 1747 
Q 947 1113 1208 752 
Q 1469 391 1925 391 
Q 2381 391 2643 752 
Q 2906 1113 2906 1747 
Q 2906 2381 2643 2742 
Q 2381 3103 1925 3103 
Q 1469 3103 1208 2742 
Q 947 2381 947 1747 
z
" transform="scale(0.015625)"/>
       <path id="DejaVuSans-25" d="M 4653 2053 
Q 4381 2053 4226 1822 
Q 4072 1591 4072 1178 
Q 4072 772 4226 539 
Q 4381 306 4653 306 
Q 4919 306 5073 539 
Q 5228 772 5228 1178 
Q 5228 1588 5073 1820 
Q 4919 2053 4653 2053 
z
M 4653 2450 
Q 5147 2450 5437 2106 
Q 5728 1763 5728 1178 
Q 5728 594 5436 251 
Q 5144 -91 4653 -91 
Q 4153 -91 3862 251 
Q 3572 594 3572 1178 
Q 3572 1766 3864 2108 
Q 4156 2450 4653 2450 
z
M 1428 4353 
Q 1159 4353 1004 4120 
Q 850 3888 850 3481 
Q 850 3069 1003 2837 
Q 1156 2606 1428 2606 
Q 1700 2606 1854 2837 
Q 2009 3069 2009 3481 
Q 2009 3884 1853 4118 
Q 1697 4353 1428 4353 
z
M 4250 4750 
L 4750 4750 
L 1831 -91 
L 1331 -91 
L 4250 4750 
z
M 1428 4750 
Q 1922 4750 2215 4408 
Q 2509 4066 2509 3481 
Q 2509 2891 2217 2550 
Q 1925 2209 1428 2209 
Q 931 2209 642 2551 
Q 353 2894 353 3481 
Q 353 4063 643 4406 
Q 934 4750 1428 4750 
z
" transform="scale(0.015625)"/>
      </defs>
      <use xlink:href="#DejaVuSans-43"/>
      <use xlink:href="#DejaVuSans-50" x="69.824219"/>
      <use xlink:href="#DejaVuSans-55" x="130.126953"/>
      <use xlink:href="#DejaVuSans-20" x="203.320312"/>
      <use xlink:href="#DejaVuSans-6c" x="235.107422"/>
      <use xlink:href="#DejaVuSans-6f" x="262.890625"/>
      <use xlink:href="#DejaVuSans-61" x="324.072266"/>
      <use xlink:href="#DejaVuSans-64" x="385.351562"/>
      <use xlink:href="#DejaVuSans-20" x="448.828125"/>
      <use xlink:href="#DejaVuSans-25" x="480.615234"/>
     </g>
    </g>
   </g>
   <g id="line2d_19">
    <path d="M 64.978512 72.58259 
L 65.274244 71.980697 
L 65.569976 72.837334 
L 66.457172 72.981715 
L 66.752904 72.786651 
L 67.048636 72.983459 
L 67.344368 73.008053 
L 67.6401 72.3022 
L 67.935832 72.508882 
L 68.231564 72.398602 
L 68.527296 72.691072 
L 69.11876 72.951971 
L 69.414492 73.202618 
L 69.710224 73.267974 
L 70.005956 72.401573 
L 70.301688 72.793527 
L 70.893152 72.50269 
L 71.484616 72.987307 
L 72.076079 72.826869 
L 72.371811 64.804622 
L 72.667543 71.88928 
L 72.963275 72.848593 
L 73.554739 72.833209 
L 73.850471 72.717041 
L 74.146203 72.87267 
L 74.737667 72.602478 
L 75.033399 72.802349 
L 75.329131 72.514678 
L 75.624863 72.439022 
L 76.216327 73.48824 
L 76.512059 73.479491 
L 76.807791 73.586155 
L 77.103523 73.242189 
L 77.694987 73.733322 
L 78.286451 73.572247 
L 78.582183 73.75655 
L 79.173646 73.691018 
L 79.469378 73.35738 
L 80.060842 73.75763 
L 80.356574 73.717338 
L 81.835234 72.690324 
L 82.130966 73.226621 
L 82.426698 73.373059 
L 82.72243 73.657925 
L 83.609626 73.722377 
L 83.905358 73.554132 
L 84.20109 72.824165 
L 84.496822 73.595051 
L 84.792554 73.645965 
L 85.088286 73.822478 
L 85.384018 73.867228 
L 85.67975 73.74805 
L 85.975482 73.863592 
L 86.271214 73.515067 
L 86.566945 72.870336 
L 86.862677 73.600745 
L 87.158409 73.833839 
L 87.454141 73.131364 
L 87.749873 73.332795 
L 88.341337 73.30582 
L 88.637069 73.49638 
L 88.932801 73.043804 
L 89.228533 73.26431 
L 89.819997 73.118306 
L 90.115729 73.308478 
L 90.707193 73.237391 
L 91.002925 72.960397 
L 91.298657 72.341606 
L 91.594389 73.256761 
L 91.890121 73.399508 
L 92.185853 73.377655 
L 92.481585 73.22747 
L 93.073049 73.212021 
L 93.664512 72.740343 
L 94.255976 73.270456 
L 94.551708 73.180035 
L 95.438904 73.438397 
L 95.734636 73.223714 
L 96.030368 71.274273 
L 96.3261 72.885138 
L 96.621832 73.165897 
L 97.509028 73.437142 
L 97.80476 73.365344 
L 98.100492 73.152202 
L 98.396224 72.410959 
L 98.691956 73.106096 
L 99.579152 73.422127 
L 99.874884 73.13094 
L 100.466348 73.200578 
L 100.76208 72.36596 
L 101.057811 73.554722 
L 101.649275 73.803422 
L 102.240739 73.797377 
L 102.536471 73.489781 
L 102.832203 73.621472 
L 103.127935 72.809898 
L 103.423667 73.568796 
L 103.719399 73.824167 
L 104.310863 73.772174 
L 104.606595 73.707814 
L 104.902327 73.892587 
L 105.198059 73.898678 
L 105.493791 73.70093 
L 105.789523 73.318925 
L 106.085255 73.622801 
L 106.676719 73.869701 
L 107.268183 73.765096 
L 107.563915 73.746629 
L 107.859647 58.193295 
L 108.155379 69.937338 
L 108.45111 73.370244 
L 108.746842 73.810694 
L 109.042574 73.928136 
L 109.338306 73.85775 
L 109.634038 73.627766 
L 109.92977 73.837216 
L 110.225502 73.795337 
L 110.521234 73.523548 
L 110.816966 73.824186 
L 111.704162 73.916148 
L 111.999894 73.209705 
L 112.295626 73.121397 
L 112.591358 73.456319 
L 112.88709 72.788949 
L 113.478554 73.375311 
L 113.774286 73.23285 
L 114.070018 73.424886 
L 114.661482 73.363978 
L 114.957214 73.293814 
L 115.252946 72.990131 
L 115.548678 73.252756 
L 118.210265 73.423908 
L 118.505997 73.261597 
L 118.801729 72.730893 
L 119.097461 73.06155 
L 119.688925 73.234945 
L 119.984657 69.188592 
L 120.280389 72.698159 
L 120.871853 73.501501 
L 121.759049 73.236625 
L 122.054781 73.266553 
L 122.350513 73.071794 
L 122.646245 73.293989 
L 122.941977 73.177304 
L 123.237708 73.491664 
L 123.53344 73.547976 
L 123.829172 73.37353 
L 124.124904 73.028448 
L 124.420636 73.302922 
L 124.716368 72.770086 
L 125.0121 73.406734 
L 125.307832 73.344534 
L 125.899296 73.705848 
L 126.195028 73.676843 
L 126.49076 73.780969 
L 127.082224 73.415621 
L 127.377956 73.686201 
L 127.673688 73.74244 
L 127.96942 73.42053 
L 128.856616 73.374443 
L 129.152348 73.510638 
L 129.44808 73.090962 
L 129.743812 73.605654 
L 130.631007 73.315178 
L 130.926739 73.367116 
L 131.222471 73.254509 
L 131.518203 73.297145 
L 131.813935 66.84274 
L 132.109667 71.97492 
L 132.405399 73.278983 
L 132.701131 73.096037 
L 132.996863 73.52688 
L 133.588327 73.313821 
L 133.884059 73.298889 
L 134.179791 72.786596 
L 134.771255 73.471684 
L 135.362719 73.400154 
L 135.658451 73.105506 
L 135.954183 73.176436 
L 136.249915 73.366784 
L 136.545647 72.415093 
L 136.841379 72.341514 
L 137.137111 72.805155 
L 137.432843 72.923381 
L 137.728575 72.371018 
L 138.024306 72.693296 
L 138.61577 72.749248 
L 138.911502 71.833152 
L 139.207234 72.518314 
L 140.390162 72.785599 
L 140.685894 72.365139 
L 140.981626 71.450519 
L 141.57309 72.07337 
L 141.868822 72.205006 
L 142.164554 72.638515 
L 142.756018 72.591016 
L 143.05175 72.391856 
L 143.347482 72.622172 
L 143.643214 70.682984 
L 143.938946 72.663783 
L 144.826142 72.801039 
L 145.121873 72.66765 
L 145.417605 72.798427 
L 145.713337 72.71837 
L 146.009069 71.69884 
L 146.304801 72.631963 
L 146.600533 72.730321 
L 146.896265 72.500004 
L 147.191997 72.425844 
L 148.079193 72.684409 
L 148.374925 71.683253 
L 148.670657 72.26704 
L 148.966389 72.073462 
L 149.262121 72.758191 
L 149.557853 71.227429 
L 149.853585 72.833911 
L 150.149317 72.813534 
L 150.445049 72.986809 
L 150.740781 72.152089 
L 151.036513 73.045917 
L 152.219441 73.097994 
L 152.515172 72.965657 
L 153.106636 73.010858 
L 153.402368 72.665518 
L 153.6981 72.90593 
L 154.289564 72.956742 
L 154.881028 73.033394 
L 155.17676 72.963258 
L 155.472492 59.189956 
L 155.768224 71.210135 
L 156.063956 72.601721 
L 156.359688 73.102119 
L 157.838348 73.189393 
L 158.13408 72.937381 
L 158.429812 73.178107 
L 159.021276 73.22543 
L 159.317008 73.191423 
L 159.61274 73.034059 
L 160.499935 72.929906 
L 160.795667 73.065685 
L 161.091399 72.621332 
L 161.387131 72.452348 
L 161.682863 72.839577 
L 161.978595 72.990076 
L 162.274327 72.946499 
L 162.865791 72.343452 
L 163.161523 72.655819 
L 164.048719 72.562648 
L 164.344451 72.677552 
L 164.640183 72.669228 
L 165.231647 72.385202 
L 165.527379 72.566542 
L 166.414575 72.651629 
L 167.30177 72.562555 
L 167.597502 72.076369 
L 167.893234 72.509012 
L 168.484698 72.651371 
L 169.371894 72.835129 
L 169.667626 72.836384 
L 169.963358 72.371488 
L 170.554822 72.730071 
L 170.850554 72.607738 
L 172.033482 72.610064 
L 172.329214 72.104987 
L 172.624946 72.523925 
L 172.920678 72.525254 
L 173.21641 71.958272 
L 173.512142 72.170971 
L 173.807874 72.56621 
L 174.399338 72.745132 
L 174.695069 72.354406 
L 174.990801 72.696886 
L 175.286533 72.65581 
L 175.582265 72.910378 
L 176.469461 72.83201 
L 176.765193 72.949433 
L 177.060925 72.521728 
L 177.652389 73.000365 
L 177.948121 73.038516 
L 178.243853 72.816432 
L 179.131049 73.064171 
L 179.426781 69.025468 
L 179.722513 72.05555 
L 180.018245 72.926085 
L 180.313977 73.074618 
L 180.905441 73.0161 
L 181.201173 73.034815 
L 181.496905 72.940749 
L 181.792637 72.662426 
L 182.088368 73.01897 
L 183.567028 73.056336 
L 183.86276 73.000153 
L 184.158492 72.601795 
L 184.454224 72.983662 
L 185.34142 72.977303 
L 185.932884 72.242547 
L 186.228616 72.773648 
L 186.524348 72.306925 
L 186.82008 72.759012 
L 187.115812 72.792835 
L 187.411544 72.547531 
L 188.29874 72.536125 
L 188.594472 72.634538 
L 188.890204 72.159103 
L 189.185936 72.581741 
L 190.960327 72.685719 
L 191.256059 70.719289 
L 191.551791 72.413109 
L 191.847523 72.670197 
L 192.143255 72.53786 
L 193.326183 72.587168 
L 193.621915 72.028409 
L 193.917647 72.508679 
L 194.804843 72.696886 
L 195.100575 72.841792 
L 195.396307 72.616025 
L 195.692039 72.729592 
L 195.987771 71.961133 
L 196.283503 72.426546 
L 196.579235 72.496064 
L 196.874966 72.691911 
L 197.170698 72.495206 
L 197.46643 72.606742 
L 197.762162 72.042196 
L 198.057894 72.294892 
L 198.353626 71.884112 
L 198.649358 72.80258 
L 199.240822 72.961892 
L 199.832286 72.812288 
L 200.42375 72.943933 
L 200.719482 72.22613 
L 201.015214 73.055174 
L 201.606678 73.152608 
L 202.198142 72.798962 
L 202.789606 72.820372 
L 203.085338 71.036694 
L 203.38107 72.940518 
L 203.676802 73.159087 
L 203.972533 73.13776 
L 204.563997 72.963913 
L 205.155461 73.017909 
L 206.042657 73.013968 
L 207.521317 73.001962 
L 207.817049 72.029212 
L 208.112781 73.041903 
L 208.999977 73.14063 
L 209.591441 72.902275 
L 210.182905 72.836181 
L 210.478637 72.456538 
L 210.774369 72.845779 
L 211.365832 72.941626 
L 211.661564 72.866709 
L 211.957296 72.403631 
L 212.253028 72.771101 
L 212.54876 72.119448 
L 212.54876 72.119448 
" clip-path="url(#pa3e1dddd7d)" style="fill: none; stroke: #1f77b4; stroke-width: 1.5; stroke-linecap: square"/>
   </g>
   <g id="patch_3">
    <path d="M 57.6 162.432 
L 57.6 41.472 
" style="fill: none; stroke: #000000; stroke-width: 0.8; stroke-linejoin: miter; stroke-linecap: square"/>
   </g>
   <g id="patch_4">
    <path d="M 219.927273 162.432 
L 219.927273 41.472 
" style="fill: none; stroke: #000000; stroke-width: 0.8; stroke-linejoin: miter; stroke-linecap: square"/>
   </g>
   <g id="patch_5">
    <path d="M 57.6 162.432 
L 219.927273 162.432 
" style="fill: none; stroke: #000000; stroke-width: 0.8; stroke-linejoin: miter; stroke-linecap: square"/>
   </g>
   <g id="patch_6">
    <path d="M 57.6 41.472 
L 219.927273 41.472 
" style="fill: none; stroke: #000000; stroke-width: 0.8; stroke-linejoin: miter; stroke-linecap: square"/>
   </g>
  </g>
  <g id="axes_2">
   <g id="patch_7">
    <path d="M 252.392727 162.432 
L 414.72 162.432 
L 414.72 41.472 
L 252.392727 41.472 
z
" style="fill: #ffffff"/>
   </g>
   <g id="PolyCollection_1">
    <path d="M 353.592282 156.933818 
L 313.520445 156.933818 
L 303.54673 155.823074 
L 292.462782 154.712331 
L 281.12983 153.601587 
L 270.758379 152.490843 
L 263.035369 151.380099 
L 259.77124 150.269355 
L 262.202713 149.158612 
L 270.305254 148.047868 
L 282.472865 146.937124 
L 295.955834 145.82638 
L 308.055963 144.715636 
L 317.272531 143.604893 
L 323.504888 142.494149 
L 327.402831 141.383405 
L 329.692572 140.272661 
L 330.945696 139.161917 
L 331.604139 138.051174 
L 331.988504 136.94043 
L 332.279337 135.829686 
L 332.545316 134.718942 
L 332.7944 133.608198 
L 333.003101 132.497455 
L 333.141567 131.386711 
L 333.207311 130.275967 
L 333.231131 129.165223 
L 333.240422 128.054479 
L 333.228678 126.943736 
L 333.176261 125.832992 
L 333.096831 124.722248 
L 333.046011 123.611504 
L 333.075314 122.50076 
L 333.183843 121.390017 
L 333.322081 120.279273 
L 333.43721 119.168529 
L 333.507451 118.057785 
L 333.540126 116.947041 
L 333.551671 115.836298 
L 333.55352 114.725554 
L 333.548603 113.61481 
L 333.532358 112.504066 
L 333.496014 111.393322 
L 333.435255 110.282579 
L 333.362518 109.171835 
L 333.308899 108.061091 
L 333.304399 106.950347 
L 333.351748 105.839603 
L 333.423834 104.72886 
L 333.48789 103.618116 
L 333.528069 102.507372 
L 333.546572 101.396628 
L 333.551443 100.285884 
L 333.546388 99.17514 
L 333.527581 98.064397 
L 333.486972 96.953653 
L 333.42258 95.842909 
L 333.350617 94.732165 
L 333.303994 93.621421 
L 333.309467 92.510678 
L 333.363716 91.399934 
L 333.436474 90.28919 
L 333.496856 89.178446 
L 333.532806 88.067702 
L 333.548925 86.956959 
L 333.55449 85.846215 
L 333.555987 84.735471 
L 333.556303 83.624727 
L 333.556356 82.513983 
L 333.556363 81.40324 
L 333.556364 80.292496 
L 333.556364 79.181752 
L 333.556364 78.071008 
L 333.556364 76.960264 
L 333.556364 75.849521 
L 333.556364 74.738777 
L 333.556364 73.628033 
L 333.556364 72.517289 
L 333.556364 71.406545 
L 333.556364 70.295802 
L 333.556364 69.185058 
L 333.556364 68.074314 
L 333.556364 66.96357 
L 333.556363 65.852826 
L 333.556358 64.742083 
L 333.556317 63.631339 
L 333.556064 62.520595 
L 333.554829 61.409851 
L 333.550085 60.299107 
L 333.535873 59.188364 
L 333.50303 58.07762 
L 333.445629 56.966876 
L 333.372883 55.856132 
L 333.31331 54.745388 
L 333.297052 53.634645 
L 333.327009 52.523901 
L 333.370801 51.413157 
L 333.386805 50.302413 
L 333.360174 49.191669 
L 333.315694 48.080926 
L 333.296303 46.970182 
L 333.816424 46.970182 
L 333.816424 46.970182 
L 333.797033 48.080926 
L 333.752553 49.191669 
L 333.725923 50.302413 
L 333.741926 51.413157 
L 333.785718 52.523901 
L 333.815675 53.634645 
L 333.799418 54.745388 
L 333.739844 55.856132 
L 333.667098 56.966876 
L 333.609697 58.07762 
L 333.576854 59.188364 
L 333.562643 60.299107 
L 333.557898 61.409851 
L 333.556663 62.520595 
L 333.55641 63.631339 
L 333.556369 64.742083 
L 333.556364 65.852826 
L 333.556364 66.96357 
L 333.556364 68.074314 
L 333.556364 69.185058 
L 333.556364 70.295802 
L 333.556364 71.406545 
L 333.556364 72.517289 
L 333.556364 73.628033 
L 333.556364 74.738777 
L 333.556364 75.849521 
L 333.556364 76.960264 
L 333.556364 78.071008 
L 333.556364 79.181752 
L 333.556364 80.292496 
L 333.556364 81.40324 
L 333.556371 82.513983 
L 333.556424 83.624727 
L 333.55674 84.735471 
L 333.558237 85.846215 
L 333.563802 86.956959 
L 333.579922 88.067702 
L 333.615871 89.178446 
L 333.676253 90.28919 
L 333.749011 91.399934 
L 333.80326 92.510678 
L 333.808734 93.621421 
L 333.76211 94.732165 
L 333.690147 95.842909 
L 333.625755 96.953653 
L 333.585146 98.064397 
L 333.566339 99.17514 
L 333.561284 100.285884 
L 333.566156 101.396628 
L 333.584658 102.507372 
L 333.624837 103.618116 
L 333.688893 104.72886 
L 333.760979 105.839603 
L 333.808328 106.950347 
L 333.803828 108.061091 
L 333.75021 109.171835 
L 333.677472 110.282579 
L 333.616714 111.393322 
L 333.580369 112.504066 
L 333.564124 113.61481 
L 333.559207 114.725554 
L 333.561057 115.836298 
L 333.572601 116.947041 
L 333.605276 118.057785 
L 333.675517 119.168529 
L 333.790646 120.279273 
L 333.928884 121.390017 
L 334.037413 122.50076 
L 334.066716 123.611504 
L 334.015896 124.722248 
L 333.936466 125.832992 
L 333.884049 126.943736 
L 333.872305 128.054479 
L 333.881596 129.165223 
L 333.905417 130.275967 
L 333.971161 131.386711 
L 334.109626 132.497455 
L 334.318328 133.608198 
L 334.567411 134.718942 
L 334.833391 135.829686 
L 335.124224 136.94043 
L 335.508588 138.051174 
L 336.167032 139.161917 
L 337.420155 140.272661 
L 339.709897 141.383405 
L 343.607839 142.494149 
L 349.840196 143.604893 
L 359.056764 144.715636 
L 371.156893 145.82638 
L 384.639862 146.937124 
L 396.807474 148.047868 
L 404.910014 149.158612 
L 407.341488 150.269355 
L 404.077358 151.380099 
L 396.354348 152.490843 
L 385.982897 153.601587 
L 374.649946 154.712331 
L 363.565998 155.823074 
L 353.592282 156.933818 
z
" clip-path="url(#pb55f83d82b)" style="fill: #1f77b4; fill-opacity: 0.3"/>
   </g>
   <g id="matplotlib.axis_3">
    <g id="xtick_4">
     <g id="line2d_20">
      <path d="M 274.528264 162.432 
L 274.528264 41.472 
" clip-path="url(#pb55f83d82b)" style="fill: none; stroke: #b0b0b0; stroke-width: 0.8; stroke-linecap: square"/>
     </g>
     <g id="line2d_21">
      <g>
       <use xlink:href="#meecf37c49a" x="274.528264" y="162.432" style="stroke: #000000; stroke-width: 0.8"/>
      </g>
     </g>
     <g id="text_11">
      <!-- 0.8 -->
      <g transform="translate(266.576702 177.030437)scale(0.1 -0.1)">
       <defs>
        <path id="DejaVuSans-2e" d="M 684 794 
L 1344 794 
L 1344 0 
L 684 0 
L 684 794 
z
" transform="scale(0.015625)"/>
       </defs>
       <use xlink:href="#DejaVuSans-30"/>
       <use xlink:href="#DejaVuSans-2e" x="63.623047"/>
       <use xlink:href="#DejaVuSans-38" x="95.410156"/>
      </g>
     </g>
    </g>
    <g id="xtick_5">
     <g id="line2d_22">
      <path d="M 333.556364 162.432 
L 333.556364 41.472 
" clip-path="url(#pb55f83d82b)" style="fill: none; stroke: #b0b0b0; stroke-width: 0.8; stroke-linecap: square"/>
     </g>
     <g id="line2d_23">
      <g>
       <use xlink:href="#meecf37c49a" x="333.556364" y="162.432" style="stroke: #000000; stroke-width: 0.8"/>
      </g>
     </g>
     <g id="text_12">
      <!-- 1.0 -->
      <g transform="translate(325.604801 177.030437)scale(0.1 -0.1)">
       <use xlink:href="#DejaVuSans-31"/>
       <use xlink:href="#DejaVuSans-2e" x="63.623047"/>
       <use xlink:href="#DejaVuSans-30" x="95.410156"/>
      </g>
     </g>
    </g>
    <g id="xtick_6">
     <g id="line2d_24">
      <path d="M 392.584463 162.432 
L 392.584463 41.472 
" clip-path="url(#pb55f83d82b)" style="fill: none; stroke: #b0b0b0; stroke-width: 0.8; stroke-linecap: square"/>
     </g>
     <g id="line2d_25">
      <g>
       <use xlink:href="#meecf37c49a" x="392.584463" y="162.432" style="stroke: #000000; stroke-width: 0.8"/>
      </g>
     </g>
     <g id="text_13">
      <!-- 1.2 -->
      <g transform="translate(384.6329 177.030437)scale(0.1 -0.1)">
       <use xlink:href="#DejaVuSans-31"/>
       <use xlink:href="#DejaVuSans-2e" x="63.623047"/>
       <use xlink:href="#DejaVuSans-32" x="95.410156"/>
      </g>
     </g>
    </g>
   </g>
   <g id="matplotlib.axis_4">
    <g id="ytick_7">
     <g id="line2d_26">
      <path d="M 252.392727 141.446255 
L 414.72 141.446255 
" clip-path="url(#pb55f83d82b)" style="fill: none; stroke: #b0b0b0; stroke-width: 0.8; stroke-linecap: square"/>
     </g>
     <g id="line2d_27">
      <g>
       <use xlink:href="#m6ed738721a" x="252.392727" y="141.446255" style="stroke: #000000; stroke-width: 0.8"/>
      </g>
     </g>
     <g id="text_14">
      <!-- 75.0 -->
      <g transform="translate(223.127102 145.245473)scale(0.1 -0.1)">
       <defs>
        <path id="DejaVuSans-37" d="M 525 4666 
L 3525 4666 
L 3525 4397 
L 1831 0 
L 1172 0 
L 2766 4134 
L 525 4134 
L 525 4666 
z
" transform="scale(0.015625)"/>
        <path id="DejaVuSans-35" d="M 691 4666 
L 3169 4666 
L 3169 4134 
L 1269 4134 
L 1269 2991 
Q 1406 3038 1543 3061 
Q 1681 3084 1819 3084 
Q 2600 3084 3056 2656 
Q 3513 2228 3513 1497 
Q 3513 744 3044 326 
Q 2575 -91 1722 -91 
Q 1428 -91 1123 -41 
Q 819 9 494 109 
L 494 744 
Q 775 591 1075 516 
Q 1375 441 1709 441 
Q 2250 441 2565 725 
Q 2881 1009 2881 1497 
Q 2881 1984 2565 2268 
Q 2250 2553 1709 2553 
Q 1456 2553 1204 2497 
Q 953 2441 691 2322 
L 691 4666 
z
" transform="scale(0.015625)"/>
       </defs>
       <use xlink:href="#DejaVuSans-37"/>
       <use xlink:href="#DejaVuSans-35" x="63.623047"/>
       <use xlink:href="#DejaVuSans-2e" x="127.246094"/>
       <use xlink:href="#DejaVuSans-30" x="159.033203"/>
      </g>
     </g>
    </g>
    <g id="ytick_8">
     <g id="line2d_28">
      <path d="M 252.392727 120.312896 
L 414.72 120.312896 
" clip-path="url(#pb55f83d82b)" style="fill: none; stroke: #b0b0b0; stroke-width: 0.8; stroke-linecap: square"/>
     </g>
     <g id="line2d_29">
      <g>
       <use xlink:href="#m6ed738721a" x="252.392727" y="120.312896" style="stroke: #000000; stroke-width: 0.8"/>
      </g>
     </g>
     <g id="text_15">
      <!-- 77.5 -->
      <g transform="translate(223.127102 124.112114)scale(0.1 -0.1)">
       <use xlink:href="#DejaVuSans-37"/>
       <use xlink:href="#DejaVuSans-37" x="63.623047"/>
       <use xlink:href="#DejaVuSans-2e" x="127.246094"/>
       <use xlink:href="#DejaVuSans-35" x="159.033203"/>
      </g>
     </g>
    </g>
    <g id="ytick_9">
     <g id="line2d_30">
      <path d="M 252.392727 99.179537 
L 414.72 99.179537 
" clip-path="url(#pb55f83d82b)" style="fill: none; stroke: #b0b0b0; stroke-width: 0.8; stroke-linecap: square"/>
     </g>
     <g id="line2d_31">
      <g>
       <use xlink:href="#m6ed738721a" x="252.392727" y="99.179537" style="stroke: #000000; stroke-width: 0.8"/>
      </g>
     </g>
     <g id="text_16">
      <!-- 80.0 -->
      <g transform="translate(223.127102 102.978755)scale(0.1 -0.1)">
       <use xlink:href="#DejaVuSans-38"/>
       <use xlink:href="#DejaVuSans-30" x="63.623047"/>
       <use xlink:href="#DejaVuSans-2e" x="127.246094"/>
       <use xlink:href="#DejaVuSans-30" x="159.033203"/>
      </g>
     </g>
    </g>
    <g id="ytick_10">
     <g id="line2d_32">
      <path d="M 252.392727 78.046177 
L 414.72 78.046177 
" clip-path="url(#pb55f83d82b)" style="fill: none; stroke: #b0b0b0; stroke-width: 0.8; stroke-linecap: square"/>
     </g>
     <g id="line2d_33">
      <g>
       <use xlink:href="#m6ed738721a" x="252.392727" y="78.046177" style="stroke: #000000; stroke-width: 0.8"/>
      </g>
     </g>
     <g id="text_17">
      <!-- 82.5 -->
      <g transform="translate(223.127102 81.845396)scale(0.1 -0.1)">
       <use xlink:href="#DejaVuSans-38"/>
       <use xlink:href="#DejaVuSans-32" x="63.623047"/>
       <use xlink:href="#DejaVuSans-2e" x="127.246094"/>
       <use xlink:href="#DejaVuSans-35" x="159.033203"/>
      </g>
     </g>
    </g>
    <g id="ytick_11">
     <g id="line2d_34">
      <path d="M 252.392727 56.912818 
L 414.72 56.912818 
" clip-path="url(#pb55f83d82b)" style="fill: none; stroke: #b0b0b0; stroke-width: 0.8; stroke-linecap: square"/>
     </g>
     <g id="line2d_35">
      <g>
       <use xlink:href="#m6ed738721a" x="252.392727" y="56.912818" style="stroke: #000000; stroke-width: 0.8"/>
      </g>
     </g>
     <g id="text_18">
      <!-- 85.0 -->
      <g transform="translate(223.127102 60.712037)scale(0.1 -0.1)">
       <use xlink:href="#DejaVuSans-38"/>
       <use xlink:href="#DejaVuSans-35" x="63.623047"/>
       <use xlink:href="#DejaVuSans-2e" x="127.246094"/>
       <use xlink:href="#DejaVuSans-30" x="159.033203"/>
      </g>
     </g>
    </g>
   </g>
   <g id="LineCollection_1">
    <path d="M 296.663802 46.970182 
L 370.448926 46.970182 
" clip-path="url(#pb55f83d82b)" style="fill: none; stroke: #1f77b4; stroke-width: 1.5"/>
   </g>
   <g id="LineCollection_2">
    <path d="M 296.663802 156.933818 
L 370.448926 156.933818 
" clip-path="url(#pb55f83d82b)" style="fill: none; stroke: #1f77b4; stroke-width: 1.5"/>
   </g>
   <g id="LineCollection_3">
    <path d="M 333.556364 156.933818 
L 333.556364 46.970182 
" clip-path="url(#pb55f83d82b)" style="fill: none; stroke: #1f77b4; stroke-width: 1.5"/>
   </g>
   <g id="LineCollection_4">
    <path d="M 296.663802 150.318422 
L 370.448926 150.318422 
" clip-path="url(#pb55f83d82b)" style="fill: none; stroke: #1f77b4; stroke-width: 1.5"/>
   </g>
   <g id="patch_8">
    <path d="M 252.392727 162.432 
L 252.392727 41.472 
" style="fill: none; stroke: #000000; stroke-width: 0.8; stroke-linejoin: miter; stroke-linecap: square"/>
   </g>
   <g id="patch_9">
    <path d="M 414.72 162.432 
L 414.72 41.472 
" style="fill: none; stroke: #000000; stroke-width: 0.8; stroke-linejoin: miter; stroke-linecap: square"/>
   </g>
   <g id="patch_10">
    <path d="M 252.392727 162.432 
L 414.72 162.432 
" style="fill: none; stroke: #000000; stroke-width: 0.8; stroke-linejoin: miter; stroke-linecap: square"/>
   </g>
   <g id="patch_11">
    <path d="M 252.392727 41.472 
L 414.72 41.472 
" style="fill: none; stroke: #000000; stroke-width: 0.8; stroke-linejoin: miter; stroke-linecap: square"/>
   </g>
  </g>
  <g id="axes_3">
   <g id="patch_12">
    <path d="M 57.6 307.584 
L 219.927273 307.584 
L 219.927273 186.624 
L 57.6 186.624 
z
" style="fill: #ffffff"/>
   </g>
   <g id="matplotlib.axis_5">
    <g id="xtick_7">
     <g id="line2d_36">
      <path d="M 64.978512 307.584 
L 64.978512 186.624 
" clip-path="url(#pd94f1150e3)" style="fill: none; stroke: #b0b0b0; stroke-width: 0.8; stroke-linecap: square"/>
     </g>
     <g id="line2d_37">
      <g>
       <use xlink:href="#meecf37c49a" x="64.978512" y="307.584" style="stroke: #000000; stroke-width: 0.8"/>
      </g>
     </g>
     <g id="text_19">
      <!-- 0 -->
      <g transform="translate(61.797262 322.182437)scale(0.1 -0.1)">
       <use xlink:href="#DejaVuSans-30"/>
      </g>
     </g>
    </g>
    <g id="xtick_8">
     <g id="line2d_38">
      <path d="M 124.124904 307.584 
L 124.124904 186.624 
" clip-path="url(#pd94f1150e3)" style="fill: none; stroke: #b0b0b0; stroke-width: 0.8; stroke-linecap: square"/>
     </g>
     <g id="line2d_39">
      <g>
       <use xlink:href="#meecf37c49a" x="124.124904" y="307.584" style="stroke: #000000; stroke-width: 0.8"/>
      </g>
     </g>
     <g id="text_20">
      <!-- 200 -->
      <g transform="translate(114.581154 322.182437)scale(0.1 -0.1)">
       <use xlink:href="#DejaVuSans-32"/>
       <use xlink:href="#DejaVuSans-30" x="63.623047"/>
       <use xlink:href="#DejaVuSans-30" x="127.246094"/>
      </g>
     </g>
    </g>
    <g id="xtick_9">
     <g id="line2d_40">
      <path d="M 183.271296 307.584 
L 183.271296 186.624 
" clip-path="url(#pd94f1150e3)" style="fill: none; stroke: #b0b0b0; stroke-width: 0.8; stroke-linecap: square"/>
     </g>
     <g id="line2d_41">
      <g>
       <use xlink:href="#meecf37c49a" x="183.271296" y="307.584" style="stroke: #000000; stroke-width: 0.8"/>
      </g>
     </g>
     <g id="text_21">
      <!-- 400 -->
      <g transform="translate(173.727546 322.182437)scale(0.1 -0.1)">
       <use xlink:href="#DejaVuSans-34"/>
       <use xlink:href="#DejaVuSans-30" x="63.623047"/>
       <use xlink:href="#DejaVuSans-30" x="127.246094"/>
      </g>
     </g>
    </g>
   </g>
   <g id="matplotlib.axis_6">
    <g id="ytick_12">
     <g id="line2d_42">
      <path d="M 57.6 307.584 
L 219.927273 307.584 
" clip-path="url(#pd94f1150e3)" style="fill: none; stroke: #b0b0b0; stroke-width: 0.8; stroke-linecap: square"/>
     </g>
     <g id="line2d_43">
      <g>
       <use xlink:href="#m6ed738721a" x="57.6" y="307.584" style="stroke: #000000; stroke-width: 0.8"/>
      </g>
     </g>
     <g id="text_22">
      <!-- 0 -->
      <g transform="translate(44.2375 311.383219)scale(0.1 -0.1)">
       <use xlink:href="#DejaVuSans-30"/>
      </g>
     </g>
    </g>
    <g id="ytick_13">
     <g id="line2d_44">
      <path d="M 57.6 283.392 
L 219.927273 283.392 
" clip-path="url(#pd94f1150e3)" style="fill: none; stroke: #b0b0b0; stroke-width: 0.8; stroke-linecap: square"/>
     </g>
     <g id="line2d_45">
      <g>
       <use xlink:href="#m6ed738721a" x="57.6" y="283.392" style="stroke: #000000; stroke-width: 0.8"/>
      </g>
     </g>
     <g id="text_23">
      <!-- 2 -->
      <g transform="translate(44.2375 287.191219)scale(0.1 -0.1)">
       <use xlink:href="#DejaVuSans-32"/>
      </g>
     </g>
    </g>
    <g id="ytick_14">
     <g id="line2d_46">
      <path d="M 57.6 259.2 
L 219.927273 259.2 
" clip-path="url(#pd94f1150e3)" style="fill: none; stroke: #b0b0b0; stroke-width: 0.8; stroke-linecap: square"/>
     </g>
     <g id="line2d_47">
      <g>
       <use xlink:href="#m6ed738721a" x="57.6" y="259.2" style="stroke: #000000; stroke-width: 0.8"/>
      </g>
     </g>
     <g id="text_24">
      <!-- 4 -->
      <g transform="translate(44.2375 262.999219)scale(0.1 -0.1)">
       <use xlink:href="#DejaVuSans-34"/>
      </g>
     </g>
    </g>
    <g id="ytick_15">
     <g id="line2d_48">
      <path d="M 57.6 235.008 
L 219.927273 235.008 
" clip-path="url(#pd94f1150e3)" style="fill: none; stroke: #b0b0b0; stroke-width: 0.8; stroke-linecap: square"/>
     </g>
     <g id="line2d_49">
      <g>
       <use xlink:href="#m6ed738721a" x="57.6" y="235.008" style="stroke: #000000; stroke-width: 0.8"/>
      </g>
     </g>
     <g id="text_25">
      <!-- 6 -->
      <g transform="translate(44.2375 238.807219)scale(0.1 -0.1)">
       <use xlink:href="#DejaVuSans-36"/>
      </g>
     </g>
    </g>
    <g id="ytick_16">
     <g id="line2d_50">
      <path d="M 57.6 210.816 
L 219.927273 210.816 
" clip-path="url(#pd94f1150e3)" style="fill: none; stroke: #b0b0b0; stroke-width: 0.8; stroke-linecap: square"/>
     </g>
     <g id="line2d_51">
      <g>
       <use xlink:href="#m6ed738721a" x="57.6" y="210.816" style="stroke: #000000; stroke-width: 0.8"/>
      </g>
     </g>
     <g id="text_26">
      <!-- 8 -->
      <g transform="translate(44.2375 214.615219)scale(0.1 -0.1)">
       <use xlink:href="#DejaVuSans-38"/>
      </g>
     </g>
    </g>
    <g id="ytick_17">
     <g id="line2d_52">
      <path d="M 57.6 186.624 
L 219.927273 186.624 
" clip-path="url(#pd94f1150e3)" style="fill: none; stroke: #b0b0b0; stroke-width: 0.8; stroke-linecap: square"/>
     </g>
     <g id="line2d_53">
      <g>
       <use xlink:href="#m6ed738721a" x="57.6" y="186.624" style="stroke: #000000; stroke-width: 0.8"/>
      </g>
     </g>
     <g id="text_27">
      <!-- 10 -->
      <g transform="translate(37.875 190.423219)scale(0.1 -0.1)">
       <use xlink:href="#DejaVuSans-31"/>
       <use xlink:href="#DejaVuSans-30" x="63.623047"/>
      </g>
     </g>
    </g>
    <g id="text_28">
     <!-- xruns per period -->
     <g transform="translate(31.795312 288.474312)rotate(-90)scale(0.1 -0.1)">
      <defs>
       <path id="DejaVuSans-78" d="M 3513 3500 
L 2247 1797 
L 3578 0 
L 2900 0 
L 1881 1375 
L 863 0 
L 184 0 
L 1544 1831 
L 300 3500 
L 978 3500 
L 1906 2253 
L 2834 3500 
L 3513 3500 
z
" transform="scale(0.015625)"/>
       <path id="DejaVuSans-72" d="M 2631 2963 
Q 2534 3019 2420 3045 
Q 2306 3072 2169 3072 
Q 1681 3072 1420 2755 
Q 1159 2438 1159 1844 
L 1159 0 
L 581 0 
L 581 3500 
L 1159 3500 
L 1159 2956 
Q 1341 3275 1631 3429 
Q 1922 3584 2338 3584 
Q 2397 3584 2469 3576 
Q 2541 3569 2628 3553 
L 2631 2963 
z
" transform="scale(0.015625)"/>
       <path id="DejaVuSans-75" d="M 544 1381 
L 544 3500 
L 1119 3500 
L 1119 1403 
Q 1119 906 1312 657 
Q 1506 409 1894 409 
Q 2359 409 2629 706 
Q 2900 1003 2900 1516 
L 2900 3500 
L 3475 3500 
L 3475 0 
L 2900 0 
L 2900 538 
Q 2691 219 2414 64 
Q 2138 -91 1772 -91 
Q 1169 -91 856 284 
Q 544 659 544 1381 
z
M 1991 3584 
L 1991 3584 
z
" transform="scale(0.015625)"/>
       <path id="DejaVuSans-6e" d="M 3513 2113 
L 3513 0 
L 2938 0 
L 2938 2094 
Q 2938 2591 2744 2837 
Q 2550 3084 2163 3084 
Q 1697 3084 1428 2787 
Q 1159 2491 1159 1978 
L 1159 0 
L 581 0 
L 581 3500 
L 1159 3500 
L 1159 2956 
Q 1366 3272 1645 3428 
Q 1925 3584 2291 3584 
Q 2894 3584 3203 3211 
Q 3513 2838 3513 2113 
z
" transform="scale(0.015625)"/>
       <path id="DejaVuSans-73" d="M 2834 3397 
L 2834 2853 
Q 2591 2978 2328 3040 
Q 2066 3103 1784 3103 
Q 1356 3103 1142 2972 
Q 928 2841 928 2578 
Q 928 2378 1081 2264 
Q 1234 2150 1697 2047 
L 1894 2003 
Q 2506 1872 2764 1633 
Q 3022 1394 3022 966 
Q 3022 478 2636 193 
Q 2250 -91 1575 -91 
Q 1294 -91 989 -36 
Q 684 19 347 128 
L 347 722 
Q 666 556 975 473 
Q 1284 391 1588 391 
Q 1994 391 2212 530 
Q 2431 669 2431 922 
Q 2431 1156 2273 1281 
Q 2116 1406 1581 1522 
L 1381 1569 
Q 847 1681 609 1914 
Q 372 2147 372 2553 
Q 372 3047 722 3315 
Q 1072 3584 1716 3584 
Q 2034 3584 2315 3537 
Q 2597 3491 2834 3397 
z
" transform="scale(0.015625)"/>
       <path id="DejaVuSans-70" d="M 1159 525 
L 1159 -1331 
L 581 -1331 
L 581 3500 
L 1159 3500 
L 1159 2969 
Q 1341 3281 1617 3432 
Q 1894 3584 2278 3584 
Q 2916 3584 3314 3078 
Q 3713 2572 3713 1747 
Q 3713 922 3314 415 
Q 2916 -91 2278 -91 
Q 1894 -91 1617 61 
Q 1341 213 1159 525 
z
M 3116 1747 
Q 3116 2381 2855 2742 
Q 2594 3103 2138 3103 
Q 1681 3103 1420 2742 
Q 1159 2381 1159 1747 
Q 1159 1113 1420 752 
Q 1681 391 2138 391 
Q 2594 391 2855 752 
Q 3116 1113 3116 1747 
z
" transform="scale(0.015625)"/>
       <path id="DejaVuSans-65" d="M 3597 1894 
L 3597 1613 
L 953 1613 
Q 991 1019 1311 708 
Q 1631 397 2203 397 
Q 2534 397 2845 478 
Q 3156 559 3463 722 
L 3463 178 
Q 3153 47 2828 -22 
Q 2503 -91 2169 -91 
Q 1331 -91 842 396 
Q 353 884 353 1716 
Q 353 2575 817 3079 
Q 1281 3584 2069 3584 
Q 2775 3584 3186 3129 
Q 3597 2675 3597 1894 
z
M 3022 2063 
Q 3016 2534 2758 2815 
Q 2500 3097 2075 3097 
Q 1594 3097 1305 2825 
Q 1016 2553 972 2059 
L 3022 2063 
z
" transform="scale(0.015625)"/>
       <path id="DejaVuSans-69" d="M 603 3500 
L 1178 3500 
L 1178 0 
L 603 0 
L 603 3500 
z
M 603 4863 
L 1178 4863 
L 1178 4134 
L 603 4134 
L 603 4863 
z
" transform="scale(0.015625)"/>
      </defs>
      <use xlink:href="#DejaVuSans-78"/>
      <use xlink:href="#DejaVuSans-72" x="59.179688"/>
      <use xlink:href="#DejaVuSans-75" x="100.292969"/>
      <use xlink:href="#DejaVuSans-6e" x="163.671875"/>
      <use xlink:href="#DejaVuSans-73" x="227.050781"/>
      <use xlink:href="#DejaVuSans-20" x="279.150391"/>
      <use xlink:href="#DejaVuSans-70" x="310.9375"/>
      <use xlink:href="#DejaVuSans-65" x="374.414062"/>
      <use xlink:href="#DejaVuSans-72" x="435.9375"/>
      <use xlink:href="#DejaVuSans-20" x="477.050781"/>
      <use xlink:href="#DejaVuSans-70" x="508.837891"/>
      <use xlink:href="#DejaVuSans-65" x="572.314453"/>
      <use xlink:href="#DejaVuSans-72" x="633.837891"/>
      <use xlink:href="#DejaVuSans-69" x="674.951172"/>
      <use xlink:href="#DejaVuSans-6f" x="702.734375"/>
      <use xlink:href="#DejaVuSans-64" x="763.916016"/>
     </g>
    </g>
   </g>
   <g id="line2d_54">
    <path d="M 64.978512 307.584 
L 212.54876 307.584 
L 212.54876 307.584 
" clip-path="url(#pd94f1150e3)" style="fill: none; stroke: #1f77b4; stroke-width: 1.5; stroke-linecap: square"/>
   </g>
   <g id="patch_13">
    <path d="M 57.6 307.584 
L 57.6 186.624 
" style="fill: none; stroke: #000000; stroke-width: 0.8; stroke-linejoin: miter; stroke-linecap: square"/>
   </g>
   <g id="patch_14">
    <path d="M 219.927273 307.584 
L 219.927273 186.624 
" style="fill: none; stroke: #000000; stroke-width: 0.8; stroke-linejoin: miter; stroke-linecap: square"/>
   </g>
   <g id="patch_15">
    <path d="M 57.6 307.584 
L 219.927273 307.584 
" style="fill: none; stroke: #000000; stroke-width: 0.8; stroke-linejoin: miter; stroke-linecap: square"/>
   </g>
   <g id="patch_16">
    <path d="M 57.6 186.624 
L 219.927273 186.624 
" style="fill: none; stroke: #000000; stroke-width: 0.8; stroke-linejoin: miter; stroke-linecap: square"/>
   </g>
  </g>
  <g id="axes_4">
   <g id="patch_17">
    <path d="M 252.392727 307.584 
L 414.72 307.584 
L 414.72 186.624 
L 252.392727 186.624 
z
" style="fill: #ffffff"/>
   </g>
   <g id="PolyCollection_2">
    <path d="M 407.341488 247.104 
L 259.77124 247.104 
L 259.77124 247.104 
L 259.77124 247.104 
L 259.77124 247.104 
L 259.77124 247.104 
L 259.77124 247.104 
L 259.77124 247.104 
L 259.77124 247.104 
L 259.77124 247.104 
L 259.77124 247.104 
L 259.77124 247.104 
L 259.77124 247.104 
L 259.77124 247.104 
L 259.77124 247.104 
L 259.77124 247.104 
L 259.77124 247.104 
L 259.77124 247.104 
L 259.77124 247.104 
L 259.77124 247.104 
L 259.77124 247.104 
L 259.77124 247.104 
L 259.77124 247.104 
L 259.77124 247.104 
L 259.77124 247.104 
L 259.77124 247.104 
L 259.77124 247.104 
L 259.77124 247.104 
L 259.77124 247.104 
L 259.77124 247.104 
L 259.77124 247.104 
L 259.77124 247.104 
L 259.77124 247.104 
L 259.77124 247.104 
L 259.77124 247.104 
L 259.77124 247.104 
L 259.77124 247.104 
L 259.77124 247.104 
L 259.77124 247.104 
L 259.77124 247.104 
L 259.77124 247.104 
L 259.77124 247.104 
L 259.77124 247.104 
L 259.77124 247.104 
L 259.77124 247.104 
L 259.77124 247.104 
L 259.77124 247.104 
L 259.77124 247.104 
L 259.77124 247.104 
L 259.77124 247.104 
L 259.77124 247.104 
L 259.77124 247.104 
L 259.77124 247.104 
L 259.77124 247.104 
L 259.77124 247.104 
L 259.77124 247.104 
L 259.77124 247.104 
L 259.77124 247.104 
L 259.77124 247.104 
L 259.77124 247.104 
L 259.77124 247.104 
L 259.77124 247.104 
L 259.77124 247.104 
L 259.77124 247.104 
L 259.77124 247.104 
L 259.77124 247.104 
L 259.77124 247.104 
L 259.77124 247.104 
L 259.77124 247.104 
L 259.77124 247.104 
L 259.77124 247.104 
L 259.77124 247.104 
L 259.77124 247.104 
L 259.77124 247.104 
L 259.77124 247.104 
L 259.77124 247.104 
L 259.77124 247.104 
L 259.77124 247.104 
L 259.77124 247.104 
L 259.77124 247.104 
L 259.77124 247.104 
L 259.77124 247.104 
L 259.77124 247.104 
L 259.77124 247.104 
L 259.77124 247.104 
L 259.77124 247.104 
L 259.77124 247.104 
L 259.77124 247.104 
L 259.77124 247.104 
L 259.77124 247.104 
L 259.77124 247.104 
L 259.77124 247.104 
L 259.77124 247.104 
L 259.77124 247.104 
L 259.77124 247.104 
L 259.77124 247.104 
L 259.77124 247.104 
L 259.77124 247.104 
L 259.77124 247.104 
L 259.77124 247.104 
L 259.77124 247.104 
L 407.341488 247.104 
L 407.341488 247.104 
L 407.341488 247.104 
L 407.341488 247.104 
L 407.341488 247.104 
L 407.341488 247.104 
L 407.341488 247.104 
L 407.341488 247.104 
L 407.341488 247.104 
L 407.341488 247.104 
L 407.341488 247.104 
L 407.341488 247.104 
L 407.341488 247.104 
L 407.341488 247.104 
L 407.341488 247.104 
L 407.341488 247.104 
L 407.341488 247.104 
L 407.341488 247.104 
L 407.341488 247.104 
L 407.341488 247.104 
L 407.341488 247.104 
L 407.341488 247.104 
L 407.341488 247.104 
L 407.341488 247.104 
L 407.341488 247.104 
L 407.341488 247.104 
L 407.341488 247.104 
L 407.341488 247.104 
L 407.341488 247.104 
L 407.341488 247.104 
L 407.341488 247.104 
L 407.341488 247.104 
L 407.341488 247.104 
L 407.341488 247.104 
L 407.341488 247.104 
L 407.341488 247.104 
L 407.341488 247.104 
L 407.341488 247.104 
L 407.341488 247.104 
L 407.341488 247.104 
L 407.341488 247.104 
L 407.341488 247.104 
L 407.341488 247.104 
L 407.341488 247.104 
L 407.341488 247.104 
L 407.341488 247.104 
L 407.341488 247.104 
L 407.341488 247.104 
L 407.341488 247.104 
L 407.341488 247.104 
L 407.341488 247.104 
L 407.341488 247.104 
L 407.341488 247.104 
L 407.341488 247.104 
L 407.341488 247.104 
L 407.341488 247.104 
L 407.341488 247.104 
L 407.341488 247.104 
L 407.341488 247.104 
L 407.341488 247.104 
L 407.341488 247.104 
L 407.341488 247.104 
L 407.341488 247.104 
L 407.341488 247.104 
L 407.341488 247.104 
L 407.341488 247.104 
L 407.341488 247.104 
L 407.341488 247.104 
L 407.341488 247.104 
L 407.341488 247.104 
L 407.341488 247.104 
L 407.341488 247.104 
L 407.341488 247.104 
L 407.341488 247.104 
L 407.341488 247.104 
L 407.341488 247.104 
L 407.341488 247.104 
L 407.341488 247.104 
L 407.341488 247.104 
L 407.341488 247.104 
L 407.341488 247.104 
L 407.341488 247.104 
L 407.341488 247.104 
L 407.341488 247.104 
L 407.341488 247.104 
L 407.341488 247.104 
L 407.341488 247.104 
L 407.341488 247.104 
L 407.341488 247.104 
L 407.341488 247.104 
L 407.341488 247.104 
L 407.341488 247.104 
L 407.341488 247.104 
L 407.341488 247.104 
L 407.341488 247.104 
L 407.341488 247.104 
L 407.341488 247.104 
L 407.341488 247.104 
L 407.341488 247.104 
L 407.341488 247.104 
L 407.341488 247.104 
z
" clip-path="url(#pcbef344acd)" style="fill: #1f77b4; fill-opacity: 0.3"/>
   </g>
   <g id="matplotlib.axis_7">
    <g id="xtick_10">
     <g id="line2d_55">
      <path d="M 274.528264 307.584 
L 274.528264 186.624 
" clip-path="url(#pcbef344acd)" style="fill: none; stroke: #b0b0b0; stroke-width: 0.8; stroke-linecap: square"/>
     </g>
     <g id="line2d_56">
      <g>
       <use xlink:href="#meecf37c49a" x="274.528264" y="307.584" style="stroke: #000000; stroke-width: 0.8"/>
      </g>
     </g>
     <g id="text_29">
      <!-- 0.8 -->
      <g transform="translate(266.576702 322.182437)scale(0.1 -0.1)">
       <use xlink:href="#DejaVuSans-30"/>
       <use xlink:href="#DejaVuSans-2e" x="63.623047"/>
       <use xlink:href="#DejaVuSans-38" x="95.410156"/>
      </g>
     </g>
    </g>
    <g id="xtick_11">
     <g id="line2d_57">
      <path d="M 333.556364 307.584 
L 333.556364 186.624 
" clip-path="url(#pcbef344acd)" style="fill: none; stroke: #b0b0b0; stroke-width: 0.8; stroke-linecap: square"/>
     </g>
     <g id="line2d_58">
      <g>
       <use xlink:href="#meecf37c49a" x="333.556364" y="307.584" style="stroke: #000000; stroke-width: 0.8"/>
      </g>
     </g>
     <g id="text_30">
      <!-- 1.0 -->
      <g transform="translate(325.604801 322.182437)scale(0.1 -0.1)">
       <use xlink:href="#DejaVuSans-31"/>
       <use xlink:href="#DejaVuSans-2e" x="63.623047"/>
       <use xlink:href="#DejaVuSans-30" x="95.410156"/>
      </g>
     </g>
    </g>
    <g id="xtick_12">
     <g id="line2d_59">
      <path d="M 392.584463 307.584 
L 392.584463 186.624 
" clip-path="url(#pcbef344acd)" style="fill: none; stroke: #b0b0b0; stroke-width: 0.8; stroke-linecap: square"/>
     </g>
     <g id="line2d_60">
      <g>
       <use xlink:href="#meecf37c49a" x="392.584463" y="307.584" style="stroke: #000000; stroke-width: 0.8"/>
      </g>
     </g>
     <g id="text_31">
      <!-- 1.2 -->
      <g transform="translate(384.6329 322.182437)scale(0.1 -0.1)">
       <use xlink:href="#DejaVuSans-31"/>
       <use xlink:href="#DejaVuSans-2e" x="63.623047"/>
       <use xlink:href="#DejaVuSans-32" x="95.410156"/>
      </g>
     </g>
    </g>
   </g>
   <g id="matplotlib.axis_8">
    <g id="ytick_18">
     <g id="line2d_61">
      <path d="M 252.392727 291.089455 
L 414.72 291.089455 
" clip-path="url(#pcbef344acd)" style="fill: none; stroke: #b0b0b0; stroke-width: 0.8; stroke-linecap: square"/>
     </g>
     <g id="line2d_62">
      <g>
       <use xlink:href="#m6ed738721a" x="252.392727" y="291.089455" style="stroke: #000000; stroke-width: 0.8"/>
      </g>
     </g>
     <g id="text_32">
      <!-- 0.04 -->
      <g transform="translate(214.747415 294.888673)scale(0.1 -0.1)">
       <defs>
        <path id="DejaVuSans-2212" d="M 678 2272 
L 4684 2272 
L 4684 1741 
L 678 1741 
L 678 2272 
z
" transform="scale(0.015625)"/>
       </defs>
       <use xlink:href="#DejaVuSans-2212"/>
       <use xlink:href="#DejaVuSans-30" x="83.789062"/>
       <use xlink:href="#DejaVuSans-2e" x="147.412109"/>
       <use xlink:href="#DejaVuSans-30" x="179.199219"/>
       <use xlink:href="#DejaVuSans-34" x="242.822266"/>
      </g>
     </g>
    </g>
    <g id="ytick_19">
     <g id="line2d_63">
      <path d="M 252.392727 269.096727 
L 414.72 269.096727 
" clip-path="url(#pcbef344acd)" style="fill: none; stroke: #b0b0b0; stroke-width: 0.8; stroke-linecap: square"/>
     </g>
     <g id="line2d_64">
      <g>
       <use xlink:href="#m6ed738721a" x="252.392727" y="269.096727" style="stroke: #000000; stroke-width: 0.8"/>
      </g>
     </g>
     <g id="text_33">
      <!-- 0.02 -->
      <g transform="translate(214.747415 272.895946)scale(0.1 -0.1)">
       <use xlink:href="#DejaVuSans-2212"/>
       <use xlink:href="#DejaVuSans-30" x="83.789062"/>
       <use xlink:href="#DejaVuSans-2e" x="147.412109"/>
       <use xlink:href="#DejaVuSans-30" x="179.199219"/>
       <use xlink:href="#DejaVuSans-32" x="242.822266"/>
      </g>
     </g>
    </g>
    <g id="ytick_20">
     <g id="line2d_65">
      <path d="M 252.392727 247.104 
L 414.72 247.104 
" clip-path="url(#pcbef344acd)" style="fill: none; stroke: #b0b0b0; stroke-width: 0.8; stroke-linecap: square"/>
     </g>
     <g id="line2d_66">
      <g>
       <use xlink:href="#m6ed738721a" x="252.392727" y="247.104" style="stroke: #000000; stroke-width: 0.8"/>
      </g>
     </g>
     <g id="text_34">
      <!-- 0.00 -->
      <g transform="translate(223.127102 250.903219)scale(0.1 -0.1)">
       <use xlink:href="#DejaVuSans-30"/>
       <use xlink:href="#DejaVuSans-2e" x="63.623047"/>
       <use xlink:href="#DejaVuSans-30" x="95.410156"/>
       <use xlink:href="#DejaVuSans-30" x="159.033203"/>
      </g>
     </g>
    </g>
    <g id="ytick_21">
     <g id="line2d_67">
      <path d="M 252.392727 225.111273 
L 414.72 225.111273 
" clip-path="url(#pcbef344acd)" style="fill: none; stroke: #b0b0b0; stroke-width: 0.8; stroke-linecap: square"/>
     </g>
     <g id="line2d_68">
      <g>
       <use xlink:href="#m6ed738721a" x="252.392727" y="225.111273" style="stroke: #000000; stroke-width: 0.8"/>
      </g>
     </g>
     <g id="text_35">
      <!-- 0.02 -->
      <g transform="translate(223.127102 228.910491)scale(0.1 -0.1)">
       <use xlink:href="#DejaVuSans-30"/>
       <use xlink:href="#DejaVuSans-2e" x="63.623047"/>
       <use xlink:href="#DejaVuSans-30" x="95.410156"/>
       <use xlink:href="#DejaVuSans-32" x="159.033203"/>
      </g>
     </g>
    </g>
    <g id="ytick_22">
     <g id="line2d_69">
      <path d="M 252.392727 203.118545 
L 414.72 203.118545 
" clip-path="url(#pcbef344acd)" style="fill: none; stroke: #b0b0b0; stroke-width: 0.8; stroke-linecap: square"/>
     </g>
     <g id="line2d_70">
      <g>
       <use xlink:href="#m6ed738721a" x="252.392727" y="203.118545" style="stroke: #000000; stroke-width: 0.8"/>
      </g>
     </g>
     <g id="text_36">
      <!-- 0.04 -->
      <g transform="translate(223.127102 206.917764)scale(0.1 -0.1)">
       <use xlink:href="#DejaVuSans-30"/>
       <use xlink:href="#DejaVuSans-2e" x="63.623047"/>
       <use xlink:href="#DejaVuSans-30" x="95.410156"/>
       <use xlink:href="#DejaVuSans-34" x="159.033203"/>
      </g>
     </g>
    </g>
   </g>
   <g id="LineCollection_5">
    <path d="M 296.663802 247.104 
L 370.448926 247.104 
" clip-path="url(#pcbef344acd)" style="fill: none; stroke: #1f77b4; stroke-width: 1.5"/>
   </g>
   <g id="LineCollection_6">
    <path d="M 296.663802 247.104 
L 370.448926 247.104 
" clip-path="url(#pcbef344acd)" style="fill: none; stroke: #1f77b4; stroke-width: 1.5"/>
   </g>
   <g id="LineCollection_7">
    <path d="M 333.556364 247.104 
L 333.556364 247.104 
" clip-path="url(#pcbef344acd)" style="fill: none; stroke: #1f77b4; stroke-width: 1.5"/>
   </g>
   <g id="LineCollection_8">
    <path d="M 296.663802 247.104 
L 370.448926 247.104 
" clip-path="url(#pcbef344acd)" style="fill: none; stroke: #1f77b4; stroke-width: 1.5"/>
   </g>
   <g id="patch_18">
    <path d="M 252.392727 307.584 
L 252.392727 186.624 
" style="fill: none; stroke: #000000; stroke-width: 0.8; stroke-linejoin: miter; stroke-linecap: square"/>
   </g>
   <g id="patch_19">
    <path d="M 414.72 307.584 
L 414.72 186.624 
" style="fill: none; stroke: #000000; stroke-width: 0.8; stroke-linejoin: miter; stroke-linecap: square"/>
   </g>
   <g id="patch_20">
    <path d="M 252.392727 307.584 
L 414.72 307.584 
" style="fill: none; stroke: #000000; stroke-width: 0.8; stroke-linejoin: miter; stroke-linecap: square"/>
   </g>
   <g id="patch_21">
    <path d="M 252.392727 186.624 
L 414.72 186.624 
" style="fill: none; stroke: #000000; stroke-width: 0.8; stroke-linejoin: miter; stroke-linecap: square"/>
   </g>
  </g>
 </g>
 <defs>
  <clipPath id="pa3e1dddd7d">
   <rect x="57.6" y="41.472" width="162.327273" height="120.96"/>
  </clipPath>
  <clipPath id="pb55f83d82b">
   <rect x="252.392727" y="41.472" width="162.327273" height="120.96"/>
  </clipPath>
  <clipPath id="pd94f1150e3">
   <rect x="57.6" y="186.624" width="162.327273" height="120.96"/>
  </clipPath>
  <clipPath id="pcbef344acd">
   <rect x="252.392727" y="186.624" width="162.327273" height="120.96"/>
  </clipPath>
 </defs>
</svg>
