<?xml version="1.0" encoding="utf-8" standalone="no"?>
<!DOCTYPE svg PUBLIC "-//W3C//DTD SVG 1.1//EN"
  "http://www.w3.org/Graphics/SVG/1.1/DTD/svg11.dtd">
<svg xmlns:xlink="http://www.w3.org/1999/xlink" width="460.8pt" height="345.6pt" viewBox="0 0 460.8 345.6" xmlns="http://www.w3.org/2000/svg" version="1.1">
 <metadata>
  <rdf:RDF xmlns:dc="http://purl.org/dc/elements/1.1/" xmlns:cc="http://creativecommons.org/ns#" xmlns:rdf="http://www.w3.org/1999/02/22-rdf-syntax-ns#">
   <cc:Work>
    <dc:type rdf:resource="http://purl.org/dc/dcmitype/StillImage"/>
    <dc:date>2022-03-15T20:05:15.666662</dc:date>
    <dc:format>image/svg+xml</dc:format>
    <dc:creator>
     <cc:Agent>
      <dc:title>Matplotlib v3.5.1, https://matplotlib.org/</dc:title>
     </cc:Agent>
    </dc:creator>
   </cc:Work>
  </rdf:RDF>
 </metadata>
 <defs>
  <style type="text/css">*{stroke-linejoin: round; stroke-linecap: butt}</style>
 </defs>
 <g id="figure_1">
  <g id="patch_1">
   <path d="M 0 345.6 
L 460.8 345.6 
L 460.8 0 
L 0 0 
z
" style="fill: #ffffff"/>
  </g>
  <g id="axes_1">
   <g id="patch_2">
    <path d="M 57.6 162.432 
L 219.927273 162.432 
L 219.927273 41.472 
L 57.6 41.472 
z
" style="fill: #ffffff"/>
   </g>
   <g id="matplotlib.axis_1">
    <g id="xtick_1">
     <g id="line2d_1">
      <path d="M 64.978512 162.432 
L 64.978512 41.472 
" clip-path="url(#p650d012fea)" style="fill: none; stroke: #b0b0b0; stroke-width: 0.8; stroke-linecap: square"/>
     </g>
     <g id="line2d_2">
      <defs>
       <path id="m6d9c55f03e" d="M 0 0 
L 0 3.5 
" style="stroke: #000000; stroke-width: 0.8"/>
      </defs>
      <g>
       <use xlink:href="#m6d9c55f03e" x="64.978512" y="162.432" style="stroke: #000000; stroke-width: 0.8"/>
      </g>
     </g>
     <g id="text_1">
      <!-- 0 -->
      <g transform="translate(61.797262 177.030437)scale(0.1 -0.1)">
       <defs>
        <path id="DejaVuSans-30" d="M 2034 4250 
Q 1547 4250 1301 3770 
Q 1056 3291 1056 2328 
Q 1056 1369 1301 889 
Q 1547 409 2034 409 
Q 2525 409 2770 889 
Q 3016 1369 3016 2328 
Q 3016 3291 2770 3770 
Q 2525 4250 2034 4250 
z
M 2034 4750 
Q 2819 4750 3233 4129 
Q 3647 3509 3647 2328 
Q 3647 1150 3233 529 
Q 2819 -91 2034 -91 
Q 1250 -91 836 529 
Q 422 1150 422 2328 
Q 422 3509 836 4129 
Q 1250 4750 2034 4750 
z
" transform="scale(0.015625)"/>
       </defs>
       <use xlink:href="#DejaVuSans-30"/>
      </g>
     </g>
    </g>
    <g id="xtick_2">
     <g id="line2d_3">
      <path d="M 124.124904 162.432 
L 124.124904 41.472 
" clip-path="url(#p650d012fea)" style="fill: none; stroke: #b0b0b0; stroke-width: 0.8; stroke-linecap: square"/>
     </g>
     <g id="line2d_4">
      <g>
       <use xlink:href="#m6d9c55f03e" x="124.124904" y="162.432" style="stroke: #000000; stroke-width: 0.8"/>
      </g>
     </g>
     <g id="text_2">
      <!-- 200 -->
      <g transform="translate(114.581154 177.030437)scale(0.1 -0.1)">
       <defs>
        <path id="DejaVuSans-32" d="M 1228 531 
L 3431 531 
L 3431 0 
L 469 0 
L 469 531 
Q 828 903 1448 1529 
Q 2069 2156 2228 2338 
Q 2531 2678 2651 2914 
Q 2772 3150 2772 3378 
Q 2772 3750 2511 3984 
Q 2250 4219 1831 4219 
Q 1534 4219 1204 4116 
Q 875 4013 500 3803 
L 500 4441 
Q 881 4594 1212 4672 
Q 1544 4750 1819 4750 
Q 2544 4750 2975 4387 
Q 3406 4025 3406 3419 
Q 3406 3131 3298 2873 
Q 3191 2616 2906 2266 
Q 2828 2175 2409 1742 
Q 1991 1309 1228 531 
z
" transform="scale(0.015625)"/>
       </defs>
       <use xlink:href="#DejaVuSans-32"/>
       <use xlink:href="#DejaVuSans-30" x="63.623047"/>
       <use xlink:href="#DejaVuSans-30" x="127.246094"/>
      </g>
     </g>
    </g>
    <g id="xtick_3">
     <g id="line2d_5">
      <path d="M 183.271296 162.432 
L 183.271296 41.472 
" clip-path="url(#p650d012fea)" style="fill: none; stroke: #b0b0b0; stroke-width: 0.8; stroke-linecap: square"/>
     </g>
     <g id="line2d_6">
      <g>
       <use xlink:href="#m6d9c55f03e" x="183.271296" y="162.432" style="stroke: #000000; stroke-width: 0.8"/>
      </g>
     </g>
     <g id="text_3">
      <!-- 400 -->
      <g transform="translate(173.727546 177.030437)scale(0.1 -0.1)">
       <defs>
        <path id="DejaVuSans-34" d="M 2419 4116 
L 825 1625 
L 2419 1625 
L 2419 4116 
z
M 2253 4666 
L 3047 4666 
L 3047 1625 
L 3713 1625 
L 3713 1100 
L 3047 1100 
L 3047 0 
L 2419 0 
L 2419 1100 
L 313 1100 
L 313 1709 
L 2253 4666 
z
" transform="scale(0.015625)"/>
       </defs>
       <use xlink:href="#DejaVuSans-34"/>
       <use xlink:href="#DejaVuSans-30" x="63.623047"/>
       <use xlink:href="#DejaVuSans-30" x="127.246094"/>
      </g>
     </g>
    </g>
   </g>
   <g id="matplotlib.axis_2">
    <g id="ytick_1">
     <g id="line2d_7">
      <path d="M 57.6 162.432 
L 219.927273 162.432 
" clip-path="url(#p650d012fea)" style="fill: none; stroke: #b0b0b0; stroke-width: 0.8; stroke-linecap: square"/>
     </g>
     <g id="line2d_8">
      <defs>
       <path id="mfa5ddaf7ea" d="M 0 0 
L -3.5 0 
" style="stroke: #000000; stroke-width: 0.8"/>
      </defs>
      <g>
       <use xlink:href="#mfa5ddaf7ea" x="57.6" y="162.432" style="stroke: #000000; stroke-width: 0.8"/>
      </g>
     </g>
     <g id="text_4">
      <!-- 0 -->
      <g transform="translate(44.2375 166.231219)scale(0.1 -0.1)">
       <use xlink:href="#DejaVuSans-30"/>
      </g>
     </g>
    </g>
    <g id="ytick_2">
     <g id="line2d_9">
      <path d="M 57.6 138.24 
L 219.927273 138.24 
" clip-path="url(#p650d012fea)" style="fill: none; stroke: #b0b0b0; stroke-width: 0.8; stroke-linecap: square"/>
     </g>
     <g id="line2d_10">
      <g>
       <use xlink:href="#mfa5ddaf7ea" x="57.6" y="138.24" style="stroke: #000000; stroke-width: 0.8"/>
      </g>
     </g>
     <g id="text_5">
      <!-- 20 -->
      <g transform="translate(37.875 142.039219)scale(0.1 -0.1)">
       <use xlink:href="#DejaVuSans-32"/>
       <use xlink:href="#DejaVuSans-30" x="63.623047"/>
      </g>
     </g>
    </g>
    <g id="ytick_3">
     <g id="line2d_11">
      <path d="M 57.6 114.048 
L 219.927273 114.048 
" clip-path="url(#p650d012fea)" style="fill: none; stroke: #b0b0b0; stroke-width: 0.8; stroke-linecap: square"/>
     </g>
     <g id="line2d_12">
      <g>
       <use xlink:href="#mfa5ddaf7ea" x="57.6" y="114.048" style="stroke: #000000; stroke-width: 0.8"/>
      </g>
     </g>
     <g id="text_6">
      <!-- 40 -->
      <g transform="translate(37.875 117.847219)scale(0.1 -0.1)">
       <use xlink:href="#DejaVuSans-34"/>
       <use xlink:href="#DejaVuSans-30" x="63.623047"/>
      </g>
     </g>
    </g>
    <g id="ytick_4">
     <g id="line2d_13">
      <path d="M 57.6 89.856 
L 219.927273 89.856 
" clip-path="url(#p650d012fea)" style="fill: none; stroke: #b0b0b0; stroke-width: 0.8; stroke-linecap: square"/>
     </g>
     <g id="line2d_14">
      <g>
       <use xlink:href="#mfa5ddaf7ea" x="57.6" y="89.856" style="stroke: #000000; stroke-width: 0.8"/>
      </g>
     </g>
     <g id="text_7">
      <!-- 60 -->
      <g transform="translate(37.875 93.655219)scale(0.1 -0.1)">
       <defs>
        <path id="DejaVuSans-36" d="M 2113 2584 
Q 1688 2584 1439 2293 
Q 1191 2003 1191 1497 
Q 1191 994 1439 701 
Q 1688 409 2113 409 
Q 2538 409 2786 701 
Q 3034 994 3034 1497 
Q 3034 2003 2786 2293 
Q 2538 2584 2113 2584 
z
M 3366 4563 
L 3366 3988 
Q 3128 4100 2886 4159 
Q 2644 4219 2406 4219 
Q 1781 4219 1451 3797 
Q 1122 3375 1075 2522 
Q 1259 2794 1537 2939 
Q 1816 3084 2150 3084 
Q 2853 3084 3261 2657 
Q 3669 2231 3669 1497 
Q 3669 778 3244 343 
Q 2819 -91 2113 -91 
Q 1303 -91 875 529 
Q 447 1150 447 2328 
Q 447 3434 972 4092 
Q 1497 4750 2381 4750 
Q 2619 4750 2861 4703 
Q 3103 4656 3366 4563 
z
" transform="scale(0.015625)"/>
       </defs>
       <use xlink:href="#DejaVuSans-36"/>
       <use xlink:href="#DejaVuSans-30" x="63.623047"/>
      </g>
     </g>
    </g>
    <g id="ytick_5">
     <g id="line2d_15">
      <path d="M 57.6 65.664 
L 219.927273 65.664 
" clip-path="url(#p650d012fea)" style="fill: none; stroke: #b0b0b0; stroke-width: 0.8; stroke-linecap: square"/>
     </g>
     <g id="line2d_16">
      <g>
       <use xlink:href="#mfa5ddaf7ea" x="57.6" y="65.664" style="stroke: #000000; stroke-width: 0.8"/>
      </g>
     </g>
     <g id="text_8">
      <!-- 80 -->
      <g transform="translate(37.875 69.463219)scale(0.1 -0.1)">
       <defs>
        <path id="DejaVuSans-38" d="M 2034 2216 
Q 1584 2216 1326 1975 
Q 1069 1734 1069 1313 
Q 1069 891 1326 650 
Q 1584 409 2034 409 
Q 2484 409 2743 651 
Q 3003 894 3003 1313 
Q 3003 1734 2745 1975 
Q 2488 2216 2034 2216 
z
M 1403 2484 
Q 997 2584 770 2862 
Q 544 3141 544 3541 
Q 544 4100 942 4425 
Q 1341 4750 2034 4750 
Q 2731 4750 3128 4425 
Q 3525 4100 3525 3541 
Q 3525 3141 3298 2862 
Q 3072 2584 2669 2484 
Q 3125 2378 3379 2068 
Q 3634 1759 3634 1313 
Q 3634 634 3220 271 
Q 2806 -91 2034 -91 
Q 1263 -91 848 271 
Q 434 634 434 1313 
Q 434 1759 690 2068 
Q 947 2378 1403 2484 
z
M 1172 3481 
Q 1172 3119 1398 2916 
Q 1625 2713 2034 2713 
Q 2441 2713 2670 2916 
Q 2900 3119 2900 3481 
Q 2900 3844 2670 4047 
Q 2441 4250 2034 4250 
Q 1625 4250 1398 4047 
Q 1172 3844 1172 3481 
z
" transform="scale(0.015625)"/>
       </defs>
       <use xlink:href="#DejaVuSans-38"/>
       <use xlink:href="#DejaVuSans-30" x="63.623047"/>
      </g>
     </g>
    </g>
    <g id="ytick_6">
     <g id="line2d_17">
      <path d="M 57.6 41.472 
L 219.927273 41.472 
" clip-path="url(#p650d012fea)" style="fill: none; stroke: #b0b0b0; stroke-width: 0.8; stroke-linecap: square"/>
     </g>
     <g id="line2d_18">
      <g>
       <use xlink:href="#mfa5ddaf7ea" x="57.6" y="41.472" style="stroke: #000000; stroke-width: 0.8"/>
      </g>
     </g>
     <g id="text_9">
      <!-- 100 -->
      <g transform="translate(31.5125 45.271219)scale(0.1 -0.1)">
       <defs>
        <path id="DejaVuSans-31" d="M 794 531 
L 1825 531 
L 1825 4091 
L 703 3866 
L 703 4441 
L 1819 4666 
L 2450 4666 
L 2450 531 
L 3481 531 
L 3481 0 
L 794 0 
L 794 531 
z
" transform="scale(0.015625)"/>
       </defs>
       <use xlink:href="#DejaVuSans-31"/>
       <use xlink:href="#DejaVuSans-30" x="63.623047"/>
       <use xlink:href="#DejaVuSans-30" x="127.246094"/>
      </g>
     </g>
    </g>
    <g id="text_10">
     <!-- CPU load % -->
     <g transform="translate(25.432812 130.73325)rotate(-90)scale(0.1 -0.1)">
      <defs>
       <path id="DejaVuSans-43" d="M 4122 4306 
L 4122 3641 
Q 3803 3938 3442 4084 
Q 3081 4231 2675 4231 
Q 1875 4231 1450 3742 
Q 1025 3253 1025 2328 
Q 1025 1406 1450 917 
Q 1875 428 2675 428 
Q 3081 428 3442 575 
Q 3803 722 4122 1019 
L 4122 359 
Q 3791 134 3420 21 
Q 3050 -91 2638 -91 
Q 1578 -91 968 557 
Q 359 1206 359 2328 
Q 359 3453 968 4101 
Q 1578 4750 2638 4750 
Q 3056 4750 3426 4639 
Q 3797 4528 4122 4306 
z
" transform="scale(0.015625)"/>
       <path id="DejaVuSans-50" d="M 1259 4147 
L 1259 2394 
L 2053 2394 
Q 2494 2394 2734 2622 
Q 2975 2850 2975 3272 
Q 2975 3691 2734 3919 
Q 2494 4147 2053 4147 
L 1259 4147 
z
M 628 4666 
L 2053 4666 
Q 2838 4666 3239 4311 
Q 3641 3956 3641 3272 
Q 3641 2581 3239 2228 
Q 2838 1875 2053 1875 
L 1259 1875 
L 1259 0 
L 628 0 
L 628 4666 
z
" transform="scale(0.015625)"/>
       <path id="DejaVuSans-55" d="M 556 4666 
L 1191 4666 
L 1191 1831 
Q 1191 1081 1462 751 
Q 1734 422 2344 422 
Q 2950 422 3222 751 
Q 3494 1081 3494 1831 
L 3494 4666 
L 4128 4666 
L 4128 1753 
Q 4128 841 3676 375 
Q 3225 -91 2344 -91 
Q 1459 -91 1007 375 
Q 556 841 556 1753 
L 556 4666 
z
" transform="scale(0.015625)"/>
       <path id="DejaVuSans-20" transform="scale(0.015625)"/>
       <path id="DejaVuSans-6c" d="M 603 4863 
L 1178 4863 
L 1178 0 
L 603 0 
L 603 4863 
z
" transform="scale(0.015625)"/>
       <path id="DejaVuSans-6f" d="M 1959 3097 
Q 1497 3097 1228 2736 
Q 959 2375 959 1747 
Q 959 1119 1226 758 
Q 1494 397 1959 397 
Q 2419 397 2687 759 
Q 2956 1122 2956 1747 
Q 2956 2369 2687 2733 
Q 2419 3097 1959 3097 
z
M 1959 3584 
Q 2709 3584 3137 3096 
Q 3566 2609 3566 1747 
Q 3566 888 3137 398 
Q 2709 -91 1959 -91 
Q 1206 -91 779 398 
Q 353 888 353 1747 
Q 353 2609 779 3096 
Q 1206 3584 1959 3584 
z
" transform="scale(0.015625)"/>
       <path id="DejaVuSans-61" d="M 2194 1759 
Q 1497 1759 1228 1600 
Q 959 1441 959 1056 
Q 959 750 1161 570 
Q 1363 391 1709 391 
Q 2188 391 2477 730 
Q 2766 1069 2766 1631 
L 2766 1759 
L 2194 1759 
z
M 3341 1997 
L 3341 0 
L 2766 0 
L 2766 531 
Q 2569 213 2275 61 
Q 1981 -91 1556 -91 
Q 1019 -91 701 211 
Q 384 513 384 1019 
Q 384 1609 779 1909 
Q 1175 2209 1959 2209 
L 2766 2209 
L 2766 2266 
Q 2766 2663 2505 2880 
Q 2244 3097 1772 3097 
Q 1472 3097 1187 3025 
Q 903 2953 641 2809 
L 641 3341 
Q 956 3463 1253 3523 
Q 1550 3584 1831 3584 
Q 2591 3584 2966 3190 
Q 3341 2797 3341 1997 
z
" transform="scale(0.015625)"/>
       <path id="DejaVuSans-64" d="M 2906 2969 
L 2906 4863 
L 3481 4863 
L 3481 0 
L 2906 0 
L 2906 525 
Q 2725 213 2448 61 
Q 2172 -91 1784 -91 
Q 1150 -91 751 415 
Q 353 922 353 1747 
Q 353 2572 751 3078 
Q 1150 3584 1784 3584 
Q 2172 3584 2448 3432 
Q 2725 3281 2906 2969 
z
M 947 1747 
Q 947 1113 1208 752 
Q 1469 391 1925 391 
Q 2381 391 2643 752 
Q 2906 1113 2906 1747 
Q 2906 2381 2643 2742 
Q 2381 3103 1925 3103 
Q 1469 3103 1208 2742 
Q 947 2381 947 1747 
z
" transform="scale(0.015625)"/>
       <path id="DejaVuSans-25" d="M 4653 2053 
Q 4381 2053 4226 1822 
Q 4072 1591 4072 1178 
Q 4072 772 4226 539 
Q 4381 306 4653 306 
Q 4919 306 5073 539 
Q 5228 772 5228 1178 
Q 5228 1588 5073 1820 
Q 4919 2053 4653 2053 
z
M 4653 2450 
Q 5147 2450 5437 2106 
Q 5728 1763 5728 1178 
Q 5728 594 5436 251 
Q 5144 -91 4653 -91 
Q 4153 -91 3862 251 
Q 3572 594 3572 1178 
Q 3572 1766 3864 2108 
Q 4156 2450 4653 2450 
z
M 1428 4353 
Q 1159 4353 1004 4120 
Q 850 3888 850 3481 
Q 850 3069 1003 2837 
Q 1156 2606 1428 2606 
Q 1700 2606 1854 2837 
Q 2009 3069 2009 3481 
Q 2009 3884 1853 4118 
Q 1697 4353 1428 4353 
z
M 4250 4750 
L 4750 4750 
L 1831 -91 
L 1331 -91 
L 4250 4750 
z
M 1428 4750 
Q 1922 4750 2215 4408 
Q 2509 4066 2509 3481 
Q 2509 2891 2217 2550 
Q 1925 2209 1428 2209 
Q 931 2209 642 2551 
Q 353 2894 353 3481 
Q 353 4063 643 4406 
Q 934 4750 1428 4750 
z
" transform="scale(0.015625)"/>
      </defs>
      <use xlink:href="#DejaVuSans-43"/>
      <use xlink:href="#DejaVuSans-50" x="69.824219"/>
      <use xlink:href="#DejaVuSans-55" x="130.126953"/>
      <use xlink:href="#DejaVuSans-20" x="203.320312"/>
      <use xlink:href="#DejaVuSans-6c" x="235.107422"/>
      <use xlink:href="#DejaVuSans-6f" x="262.890625"/>
      <use xlink:href="#DejaVuSans-61" x="324.072266"/>
      <use xlink:href="#DejaVuSans-64" x="385.351562"/>
      <use xlink:href="#DejaVuSans-20" x="448.828125"/>
      <use xlink:href="#DejaVuSans-25" x="480.615234"/>
     </g>
    </g>
   </g>
   <g id="line2d_19">
    <path d="M 64.978512 70.499235 
L 65.569976 70.289018 
L 65.865708 70.527446 
L 66.16144 69.72355 
L 66.457172 70.694962 
L 67.048636 70.735217 
L 67.344368 67.702145 
L 67.6401 52.90626 
L 67.935832 66.244843 
L 68.231564 71.785745 
L 68.527296 57.999219 
L 68.823028 69.371205 
L 69.11876 70.900463 
L 69.710224 70.84188 
L 70.005956 71.095646 
L 70.301688 70.866474 
L 70.59742 70.956932 
L 70.893152 70.049464 
L 71.188884 70.587432 
L 71.780347 71.109913 
L 72.076079 71.004376 
L 72.667543 71.12778 
L 73.259007 71.094262 
L 73.850471 70.788189 
L 74.146203 71.083261 
L 75.033399 71.095904 
L 75.329131 70.010133 
L 75.624863 57.091032 
L 75.920595 69.298799 
L 76.216327 71.424532 
L 76.512059 71.588153 
L 76.807791 57.92349 
L 77.103523 55.767358 
L 77.399255 61.12956 
L 77.694987 70.159505 
L 77.990719 71.339279 
L 79.173646 71.709859 
L 80.060842 71.782044 
L 80.356574 57.386243 
L 80.652306 67.773251 
L 80.948038 64.189929 
L 81.24377 58.257756 
L 81.539502 70.34498 
L 81.835234 71.515599 
L 82.426698 71.842565 
L 82.72243 71.810561 
L 83.018162 71.653436 
L 83.609626 71.917021 
L 84.496822 71.85184 
L 84.792554 71.919475 
L 85.088286 71.746441 
L 85.384018 71.36331 
L 85.67975 71.540811 
L 85.975482 71.472243 
L 86.271214 71.594115 
L 86.862677 71.542491 
L 87.158409 71.585883 
L 87.749873 70.674641 
L 88.637069 71.643644 
L 89.228533 71.711289 
L 89.524265 70.90373 
L 90.115729 46.140549 
L 90.707193 70.030343 
L 91.002925 71.374181 
L 91.594389 63.718887 
L 91.890121 70.40945 
L 92.185853 71.983042 
L 92.481585 64.035592 
L 92.777317 70.568125 
L 93.073049 71.441401 
L 93.960244 71.61235 
L 94.255976 71.583281 
L 94.551708 71.698748 
L 94.84744 71.011094 
L 95.143172 71.411704 
L 95.438904 71.592232 
L 95.734636 71.614787 
L 96.030368 71.753731 
L 96.917564 71.717177 
L 97.213296 71.278777 
L 97.509028 71.643672 
L 97.80476 71.75734 
L 99.28342 71.771182 
L 99.579152 70.756978 
L 99.874884 71.32323 
L 100.170616 71.08208 
L 100.466348 71.585053 
L 100.76208 71.472114 
L 101.353543 72.010616 
L 101.649275 71.859915 
L 101.945007 71.500796 
L 102.240739 71.869918 
L 102.536471 56.075794 
L 102.832203 62.676711 
L 103.127935 64.51134 
L 103.423667 70.797731 
L 103.719399 68.515298 
L 104.015131 65.071012 
L 104.310863 53.031823 
L 104.902327 70.790948 
L 105.198059 71.554331 
L 105.493791 71.791531 
L 106.380987 71.912296 
L 106.676719 70.9005 
L 106.972451 71.891292 
L 107.268183 71.884702 
L 107.563915 71.623 
L 108.155379 71.533724 
L 108.45111 71.499726 
L 108.746842 71.93784 
L 109.042574 72.069042 
L 109.338306 71.810505 
L 109.634038 72.095796 
L 109.92977 71.989668 
L 111.112698 72.054507 
L 111.40843 71.026035 
L 111.704162 71.952366 
L 111.999894 71.501008 
L 112.591358 71.774274 
L 113.182822 71.532552 
L 113.478554 71.754783 
L 113.774286 70.744695 
L 114.070018 71.475842 
L 114.36575 71.74203 
L 114.661482 71.792325 
L 115.252946 71.659028 
L 115.548678 71.311206 
L 115.844409 71.511612 
L 116.140141 49.12889 
L 116.435873 68.903283 
L 116.731605 70.989426 
L 117.027337 71.335274 
L 117.323069 66.744954 
L 117.618801 66.783677 
L 117.914533 64.939635 
L 118.210265 70.658445 
L 118.505997 70.511241 
L 118.801729 71.179275 
L 119.097461 71.500787 
L 119.984657 71.566743 
L 120.280389 71.424439 
L 120.576121 71.576802 
L 121.167585 71.377051 
L 121.463317 71.451774 
L 121.759049 68.103641 
L 122.054781 77.791589 
L 122.350513 72.264945 
L 122.646245 71.693211 
L 122.941977 71.604728 
L 123.237708 70.737284 
L 123.53344 71.383253 
L 123.829172 71.639713 
L 124.420636 71.4553 
L 124.716368 71.212017 
L 125.0121 71.663679 
L 125.899296 71.538449 
L 126.195028 71.851941 
L 127.082224 71.95591 
L 127.673688 71.895527 
L 127.96942 71.890904 
L 128.265152 65.421751 
L 128.560884 71.08734 
L 128.856616 71.716153 
L 129.152348 71.75506 
L 129.743812 71.550686 
L 130.039544 71.779747 
L 130.335276 71.825391 
L 130.631007 71.632598 
L 130.926739 71.880725 
L 131.222471 65.094693 
L 131.518203 66.792906 
L 131.813935 71.633059 
L 132.109667 71.812729 
L 132.405399 71.789815 
L 132.701131 64.487835 
L 132.996863 63.196673 
L 133.292595 64.939303 
L 133.588327 70.686758 
L 133.884059 71.501608 
L 134.475523 71.840221 
L 135.066987 71.606601 
L 135.362719 71.321671 
L 135.658451 71.615008 
L 136.249915 71.733521 
L 136.545647 71.036953 
L 136.841379 70.932873 
L 137.137111 71.339546 
L 137.432843 66.813541 
L 137.728575 73.24936 
L 138.024306 64.210896 
L 138.61577 71.161999 
L 138.911502 71.509969 
L 139.207234 71.559139 
L 139.798698 71.356204 
L 140.09443 64.286164 
L 140.390162 70.900038 
L 140.685894 71.641697 
L 140.981626 71.717389 
L 141.277358 71.534019 
L 141.57309 71.562147 
L 141.868822 71.718792 
L 142.164554 71.619272 
L 142.460286 70.684977 
L 142.756018 71.580789 
L 143.347482 71.69896 
L 143.643214 71.752901 
L 143.938946 71.600852 
L 144.234678 71.740645 
L 144.53041 71.729765 
L 144.826142 70.129051 
L 145.121873 71.403537 
L 145.417605 70.808547 
L 145.713337 56.351459 
L 146.009069 67.730375 
L 146.304801 71.960081 
L 146.600533 71.660773 
L 146.896265 69.899252 
L 147.191997 63.358532 
L 147.487729 60.053755 
L 147.783461 67.489899 
L 148.079193 70.523515 
L 148.374925 70.993468 
L 148.670657 71.233686 
L 149.262121 71.363882 
L 149.557853 70.650462 
L 149.853585 71.553786 
L 150.445049 71.193782 
L 151.036513 71.883613 
L 151.627977 71.791596 
L 151.923709 56.787709 
L 152.219441 69.849298 
L 152.810904 59.630775 
L 153.106636 70.658399 
L 153.402368 71.282551 
L 153.6981 71.258483 
L 153.993832 71.470988 
L 154.289564 70.601468 
L 154.585296 71.689446 
L 155.17676 72.033134 
L 155.768224 71.893894 
L 156.359688 71.939225 
L 156.65542 71.967307 
L 156.951152 71.559591 
L 157.246884 71.826231 
L 158.13408 71.874957 
L 158.429812 71.922364 
L 158.725544 71.826203 
L 159.021276 70.827354 
L 159.317008 71.75172 
L 159.61274 71.867261 
L 159.908471 51.895627 
L 160.204203 57.917639 
L 160.499935 70.438585 
L 160.795667 71.368496 
L 161.091399 71.048045 
L 161.387131 65.052242 
L 161.682863 65.761066 
L 161.978595 65.044342 
L 162.274327 70.767951 
L 162.570059 71.199836 
L 162.865791 70.975915 
L 163.161523 71.123737 
L 163.457255 71.61295 
L 163.752987 57.370776 
L 164.048719 69.66697 
L 164.344451 71.453537 
L 164.640183 71.625806 
L 165.231647 71.594742 
L 165.527379 71.569733 
L 165.823111 69.638325 
L 166.118843 63.678946 
L 166.414575 62.906833 
L 166.710307 63.802811 
L 167.006039 70.544704 
L 167.30177 71.495194 
L 167.597502 71.665045 
L 168.484698 71.687766 
L 168.78043 71.564353 
L 169.076162 71.775787 
L 169.371894 71.660422 
L 169.963358 71.840572 
L 170.25909 71.742251 
L 170.850554 71.719327 
L 171.146286 71.193985 
L 171.442018 71.633069 
L 171.73775 71.704968 
L 172.033482 71.424716 
L 172.329214 71.332966 
L 172.624946 71.826267 
L 172.920678 71.763144 
L 173.512142 71.325371 
L 173.807874 71.286519 
L 174.103606 71.389426 
L 174.399338 71.027964 
L 174.695069 71.657681 
L 174.990801 69.053818 
L 175.286533 59.143648 
L 175.582265 70.722279 
L 175.877997 63.983967 
L 176.173729 70.907633 
L 176.469461 65.307669 
L 176.765193 64.993327 
L 177.060925 66.967399 
L 177.356657 71.031019 
L 177.948121 71.686825 
L 178.243853 71.428122 
L 178.835317 71.71643 
L 179.722513 71.903639 
L 180.018245 71.897595 
L 180.313977 71.721016 
L 180.609709 71.379635 
L 180.905441 71.888809 
L 181.496905 71.911484 
L 181.792637 68.421988 
L 182.088368 53.790241 
L 182.3841 67.296792 
L 182.679832 71.803805 
L 182.975564 71.108123 
L 183.271296 71.333096 
L 183.567028 71.304506 
L 183.86276 71.845389 
L 184.158492 72.094485 
L 184.749956 72.110358 
L 185.045688 71.968793 
L 185.34142 71.214731 
L 185.637152 70.955096 
L 185.932884 71.0304 
L 186.228616 71.312036 
L 186.82008 71.314777 
L 187.115812 71.506379 
L 187.411544 71.320489 
L 187.707276 64.837513 
L 188.003008 70.889555 
L 188.29874 71.606352 
L 188.890204 71.749698 
L 189.185936 71.129718 
L 189.481667 64.507409 
L 189.777399 70.604412 
L 190.073131 70.499318 
L 190.368863 71.52922 
L 190.664595 69.786396 
L 190.960327 66.511639 
L 191.256059 61.37801 
L 191.551791 69.765198 
L 191.847523 71.114186 
L 192.143255 71.617426 
L 192.438987 71.232283 
L 192.734719 71.55279 
L 193.030451 71.666577 
L 193.326183 71.448267 
L 193.621915 71.62516 
L 194.213379 71.618128 
L 194.509111 71.578334 
L 194.804843 71.238743 
L 195.100575 71.145646 
L 195.692039 71.310763 
L 195.987771 63.599932 
L 196.283503 61.881776 
L 196.579235 70.939776 
L 196.874966 71.510542 
L 197.170698 70.674475 
L 197.46643 71.477393 
L 198.057894 71.110356 
L 198.353626 71.480826 
L 198.94509 71.77396 
L 199.240822 71.739593 
L 199.536554 65.525102 
L 199.832286 70.068863 
L 200.128018 71.327955 
L 200.42375 71.831288 
L 201.606678 71.945408 
L 201.90241 70.995378 
L 202.198142 71.744355 
L 202.789606 71.861742 
L 203.085338 71.960413 
L 203.38107 71.916024 
L 203.676802 55.537098 
L 203.972533 61.99118 
L 204.268265 63.546572 
L 204.563997 69.608258 
L 204.859729 71.406499 
L 205.155461 66.6858 
L 205.451193 56.051633 
L 205.746925 66.456526 
L 206.042657 71.488928 
L 206.338389 71.766356 
L 206.634121 70.808528 
L 206.929853 71.845777 
L 207.521317 72.056851 
L 208.112781 71.955937 
L 208.408513 71.813384 
L 208.704245 71.891975 
L 208.999977 70.807218 
L 209.295709 71.839935 
L 209.887173 71.83581 
L 210.182905 71.503454 
L 210.478637 71.410874 
L 210.774369 71.716891 
L 211.070101 71.749477 
L 211.365832 57.070249 
L 211.661564 69.640752 
L 211.957296 71.597714 
L 212.253028 71.740239 
L 212.54876 71.310024 
L 212.54876 71.310024 
" clip-path="url(#p650d012fea)" style="fill: none; stroke: #1f77b4; stroke-width: 1.5; stroke-linecap: square"/>
   </g>
   <g id="patch_3">
    <path d="M 57.6 162.432 
L 57.6 41.472 
" style="fill: none; stroke: #000000; stroke-width: 0.8; stroke-linejoin: miter; stroke-linecap: square"/>
   </g>
   <g id="patch_4">
    <path d="M 219.927273 162.432 
L 219.927273 41.472 
" style="fill: none; stroke: #000000; stroke-width: 0.8; stroke-linejoin: miter; stroke-linecap: square"/>
   </g>
   <g id="patch_5">
    <path d="M 57.6 162.432 
L 219.927273 162.432 
" style="fill: none; stroke: #000000; stroke-width: 0.8; stroke-linejoin: miter; stroke-linecap: square"/>
   </g>
   <g id="patch_6">
    <path d="M 57.6 41.472 
L 219.927273 41.472 
" style="fill: none; stroke: #000000; stroke-width: 0.8; stroke-linejoin: miter; stroke-linecap: square"/>
   </g>
  </g>
  <g id="axes_2">
   <g id="patch_7">
    <path d="M 252.392727 162.432 
L 414.72 162.432 
L 414.72 41.472 
L 252.392727 41.472 
z
" style="fill: #ffffff"/>
   </g>
   <g id="PolyCollection_1">
    <path d="M 333.749166 156.933818 
L 333.363561 156.933818 
L 333.370898 155.823074 
L 333.391098 154.712331 
L 333.418458 153.601587 
L 333.444017 152.490843 
L 333.454248 151.380099 
L 333.425463 150.269355 
L 333.310778 149.158612 
L 333.016988 148.047868 
L 332.37165 146.937124 
L 331.088262 145.82638 
L 328.749583 144.715636 
L 324.840995 143.604893 
L 318.86544 142.494149 
L 310.545952 141.383405 
L 300.069276 140.272661 
L 288.266409 139.161917 
L 276.605334 138.051174 
L 266.923601 136.94043 
L 260.94769 135.829686 
L 259.77124 134.718942 
L 263.512873 133.608198 
L 271.303457 132.497455 
L 281.59771 131.386711 
L 292.658673 130.275967 
L 303.008959 129.165223 
L 311.697182 128.054479 
L 318.340782 126.943736 
L 323.004849 125.832992 
L 326.016081 124.722248 
L 327.793704 123.611504 
L 328.736068 122.50076 
L 329.164071 121.390017 
L 329.304828 120.279273 
L 329.298382 119.168529 
L 329.21654 118.057785 
L 329.087795 116.947041 
L 328.923246 115.836298 
L 328.73755 114.725554 
L 328.559607 113.61481 
L 328.431238 112.504066 
L 328.396828 111.393322 
L 328.490066 110.282579 
L 328.723785 109.171835 
L 329.086313 108.061091 
L 329.544606 106.950347 
L 330.052413 105.839603 
L 330.560729 104.72886 
L 331.027621 103.618116 
L 331.424846 102.507372 
L 331.739841 101.396628 
L 331.973394 100.285884 
L 332.134809 99.17514 
L 332.236772 98.064397 
L 332.291332 96.953653 
L 332.307354 95.842909 
L 332.289303 94.732165 
L 332.23747 93.621421 
L 332.149956 92.510678 
L 332.026255 91.399934 
L 331.871222 90.28919 
L 331.697558 89.178446 
L 331.525421 88.067702 
L 331.379163 86.956959 
L 331.282566 85.846215 
L 331.254265 84.735471 
L 331.304391 83.624727 
L 331.432593 82.513983 
L 331.627337 81.40324 
L 331.866783 80.292496 
L 332.121843 79.181752 
L 332.361611 78.071008 
L 332.560139 76.960264 
L 332.702458 75.849521 
L 332.787578 74.738777 
L 332.827295 73.628033 
L 332.84136 72.517289 
L 332.850949 71.406545 
L 332.872813 70.295802 
L 332.915804 69.185058 
L 332.980271 68.074314 
L 333.05977 66.96357 
L 333.14398 65.852826 
L 333.22184 64.742083 
L 333.284284 63.631339 
L 333.326226 62.520595 
L 333.347544 61.409851 
L 333.352811 60.299107 
L 333.349698 59.188364 
L 333.34638 58.07762 
L 333.348767 56.966876 
L 333.358613 55.856132 
L 333.373289 54.745388 
L 333.387344 53.634645 
L 333.395177 52.523901 
L 333.393683 51.413157 
L 333.383767 50.302413 
L 333.370129 49.191669 
L 333.359464 48.080926 
L 333.35787 46.970182 
L 333.754857 46.970182 
L 333.754857 46.970182 
L 333.753264 48.080926 
L 333.742598 49.191669 
L 333.72896 50.302413 
L 333.719044 51.413157 
L 333.71755 52.523901 
L 333.725384 53.634645 
L 333.739439 54.745388 
L 333.754114 55.856132 
L 333.76396 56.966876 
L 333.766347 58.07762 
L 333.76303 59.188364 
L 333.759916 60.299107 
L 333.765183 61.409851 
L 333.786501 62.520595 
L 333.828443 63.631339 
L 333.890888 64.742083 
L 333.968747 65.852826 
L 334.052957 66.96357 
L 334.132456 68.074314 
L 334.196924 69.185058 
L 334.239914 70.295802 
L 334.261778 71.406545 
L 334.271367 72.517289 
L 334.285432 73.628033 
L 334.325149 74.738777 
L 334.410269 75.849521 
L 334.552588 76.960264 
L 334.751116 78.071008 
L 334.990884 79.181752 
L 335.245944 80.292496 
L 335.48539 81.40324 
L 335.680135 82.513983 
L 335.808337 83.624727 
L 335.858463 84.735471 
L 335.830162 85.846215 
L 335.733565 86.956959 
L 335.587307 88.067702 
L 335.415169 89.178446 
L 335.241505 90.28919 
L 335.086472 91.399934 
L 334.962771 92.510678 
L 334.875257 93.621421 
L 334.823424 94.732165 
L 334.805373 95.842909 
L 334.821395 96.953653 
L 334.875955 98.064397 
L 334.977918 99.17514 
L 335.139333 100.285884 
L 335.372886 101.396628 
L 335.687882 102.507372 
L 336.085106 103.618116 
L 336.551998 104.72886 
L 337.060314 105.839603 
L 337.568121 106.950347 
L 338.026415 108.061091 
L 338.388942 109.171835 
L 338.622662 110.282579 
L 338.715899 111.393322 
L 338.681489 112.504066 
L 338.553121 113.61481 
L 338.375178 114.725554 
L 338.189481 115.836298 
L 338.024932 116.947041 
L 337.896187 118.057785 
L 337.814345 119.168529 
L 337.8079 120.279273 
L 337.948657 121.390017 
L 338.376659 122.50076 
L 339.319024 123.611504 
L 341.096647 124.722248 
L 344.107878 125.832992 
L 348.771945 126.943736 
L 355.415545 128.054479 
L 364.103768 129.165223 
L 374.454054 130.275967 
L 385.515017 131.386711 
L 395.80927 132.497455 
L 403.599854 133.608198 
L 407.341488 134.718942 
L 406.165038 135.829686 
L 400.189127 136.94043 
L 390.507394 138.051174 
L 378.846318 139.161917 
L 367.043451 140.272661 
L 356.566775 141.383405 
L 348.247287 142.494149 
L 342.271732 143.604893 
L 338.363144 144.715636 
L 336.024466 145.82638 
L 334.741077 146.937124 
L 334.09574 148.047868 
L 333.801949 149.158612 
L 333.687265 150.269355 
L 333.658479 151.380099 
L 333.668711 152.490843 
L 333.694269 153.601587 
L 333.721629 154.712331 
L 333.74183 155.823074 
L 333.749166 156.933818 
z
" clip-path="url(#p3eb39c210d)" style="fill: #1f77b4; fill-opacity: 0.3"/>
   </g>
   <g id="matplotlib.axis_3">
    <g id="xtick_4">
     <g id="line2d_20">
      <path d="M 274.528264 162.432 
L 274.528264 41.472 
" clip-path="url(#p3eb39c210d)" style="fill: none; stroke: #b0b0b0; stroke-width: 0.8; stroke-linecap: square"/>
     </g>
     <g id="line2d_21">
      <g>
       <use xlink:href="#m6d9c55f03e" x="274.528264" y="162.432" style="stroke: #000000; stroke-width: 0.8"/>
      </g>
     </g>
     <g id="text_11">
      <!-- 0.8 -->
      <g transform="translate(266.576702 177.030437)scale(0.1 -0.1)">
       <defs>
        <path id="DejaVuSans-2e" d="M 684 794 
L 1344 794 
L 1344 0 
L 684 0 
L 684 794 
z
" transform="scale(0.015625)"/>
       </defs>
       <use xlink:href="#DejaVuSans-30"/>
       <use xlink:href="#DejaVuSans-2e" x="63.623047"/>
       <use xlink:href="#DejaVuSans-38" x="95.410156"/>
      </g>
     </g>
    </g>
    <g id="xtick_5">
     <g id="line2d_22">
      <path d="M 333.556364 162.432 
L 333.556364 41.472 
" clip-path="url(#p3eb39c210d)" style="fill: none; stroke: #b0b0b0; stroke-width: 0.8; stroke-linecap: square"/>
     </g>
     <g id="line2d_23">
      <g>
       <use xlink:href="#m6d9c55f03e" x="333.556364" y="162.432" style="stroke: #000000; stroke-width: 0.8"/>
      </g>
     </g>
     <g id="text_12">
      <!-- 1.0 -->
      <g transform="translate(325.604801 177.030437)scale(0.1 -0.1)">
       <use xlink:href="#DejaVuSans-31"/>
       <use xlink:href="#DejaVuSans-2e" x="63.623047"/>
       <use xlink:href="#DejaVuSans-30" x="95.410156"/>
      </g>
     </g>
    </g>
    <g id="xtick_6">
     <g id="line2d_24">
      <path d="M 392.584463 162.432 
L 392.584463 41.472 
" clip-path="url(#p3eb39c210d)" style="fill: none; stroke: #b0b0b0; stroke-width: 0.8; stroke-linecap: square"/>
     </g>
     <g id="line2d_25">
      <g>
       <use xlink:href="#m6d9c55f03e" x="392.584463" y="162.432" style="stroke: #000000; stroke-width: 0.8"/>
      </g>
     </g>
     <g id="text_13">
      <!-- 1.2 -->
      <g transform="translate(384.6329 177.030437)scale(0.1 -0.1)">
       <use xlink:href="#DejaVuSans-31"/>
       <use xlink:href="#DejaVuSans-2e" x="63.623047"/>
       <use xlink:href="#DejaVuSans-32" x="95.410156"/>
      </g>
     </g>
    </g>
   </g>
   <g id="matplotlib.axis_4">
    <g id="ytick_7">
     <g id="line2d_26">
      <path d="M 252.392727 156.824069 
L 414.72 156.824069 
" clip-path="url(#p3eb39c210d)" style="fill: none; stroke: #b0b0b0; stroke-width: 0.8; stroke-linecap: square"/>
     </g>
     <g id="line2d_27">
      <g>
       <use xlink:href="#mfa5ddaf7ea" x="252.392727" y="156.824069" style="stroke: #000000; stroke-width: 0.8"/>
      </g>
     </g>
     <g id="text_14">
      <!-- 70 -->
      <g transform="translate(232.667727 160.623288)scale(0.1 -0.1)">
       <defs>
        <path id="DejaVuSans-37" d="M 525 4666 
L 3525 4666 
L 3525 4397 
L 1831 0 
L 1172 0 
L 2766 4134 
L 525 4134 
L 525 4666 
z
" transform="scale(0.015625)"/>
       </defs>
       <use xlink:href="#DejaVuSans-37"/>
       <use xlink:href="#DejaVuSans-30" x="63.623047"/>
      </g>
     </g>
    </g>
    <g id="ytick_8">
     <g id="line2d_28">
      <path d="M 252.392727 135.811803 
L 414.72 135.811803 
" clip-path="url(#p3eb39c210d)" style="fill: none; stroke: #b0b0b0; stroke-width: 0.8; stroke-linecap: square"/>
     </g>
     <g id="line2d_29">
      <g>
       <use xlink:href="#mfa5ddaf7ea" x="252.392727" y="135.811803" style="stroke: #000000; stroke-width: 0.8"/>
      </g>
     </g>
     <g id="text_15">
      <!-- 75 -->
      <g transform="translate(232.667727 139.611022)scale(0.1 -0.1)">
       <defs>
        <path id="DejaVuSans-35" d="M 691 4666 
L 3169 4666 
L 3169 4134 
L 1269 4134 
L 1269 2991 
Q 1406 3038 1543 3061 
Q 1681 3084 1819 3084 
Q 2600 3084 3056 2656 
Q 3513 2228 3513 1497 
Q 3513 744 3044 326 
Q 2575 -91 1722 -91 
Q 1428 -91 1123 -41 
Q 819 9 494 109 
L 494 744 
Q 775 591 1075 516 
Q 1375 441 1709 441 
Q 2250 441 2565 725 
Q 2881 1009 2881 1497 
Q 2881 1984 2565 2268 
Q 2250 2553 1709 2553 
Q 1456 2553 1204 2497 
Q 953 2441 691 2322 
L 691 4666 
z
" transform="scale(0.015625)"/>
       </defs>
       <use xlink:href="#DejaVuSans-37"/>
       <use xlink:href="#DejaVuSans-35" x="63.623047"/>
      </g>
     </g>
    </g>
    <g id="ytick_9">
     <g id="line2d_30">
      <path d="M 252.392727 114.799537 
L 414.72 114.799537 
" clip-path="url(#p3eb39c210d)" style="fill: none; stroke: #b0b0b0; stroke-width: 0.8; stroke-linecap: square"/>
     </g>
     <g id="line2d_31">
      <g>
       <use xlink:href="#mfa5ddaf7ea" x="252.392727" y="114.799537" style="stroke: #000000; stroke-width: 0.8"/>
      </g>
     </g>
     <g id="text_16">
      <!-- 80 -->
      <g transform="translate(232.667727 118.598756)scale(0.1 -0.1)">
       <use xlink:href="#DejaVuSans-38"/>
       <use xlink:href="#DejaVuSans-30" x="63.623047"/>
      </g>
     </g>
    </g>
    <g id="ytick_10">
     <g id="line2d_32">
      <path d="M 252.392727 93.787271 
L 414.72 93.787271 
" clip-path="url(#p3eb39c210d)" style="fill: none; stroke: #b0b0b0; stroke-width: 0.8; stroke-linecap: square"/>
     </g>
     <g id="line2d_33">
      <g>
       <use xlink:href="#mfa5ddaf7ea" x="252.392727" y="93.787271" style="stroke: #000000; stroke-width: 0.8"/>
      </g>
     </g>
     <g id="text_17">
      <!-- 85 -->
      <g transform="translate(232.667727 97.58649)scale(0.1 -0.1)">
       <use xlink:href="#DejaVuSans-38"/>
       <use xlink:href="#DejaVuSans-35" x="63.623047"/>
      </g>
     </g>
    </g>
    <g id="ytick_11">
     <g id="line2d_34">
      <path d="M 252.392727 72.775005 
L 414.72 72.775005 
" clip-path="url(#p3eb39c210d)" style="fill: none; stroke: #b0b0b0; stroke-width: 0.8; stroke-linecap: square"/>
     </g>
     <g id="line2d_35">
      <g>
       <use xlink:href="#mfa5ddaf7ea" x="252.392727" y="72.775005" style="stroke: #000000; stroke-width: 0.8"/>
      </g>
     </g>
     <g id="text_18">
      <!-- 90 -->
      <g transform="translate(232.667727 76.574224)scale(0.1 -0.1)">
       <defs>
        <path id="DejaVuSans-39" d="M 703 97 
L 703 672 
Q 941 559 1184 500 
Q 1428 441 1663 441 
Q 2288 441 2617 861 
Q 2947 1281 2994 2138 
Q 2813 1869 2534 1725 
Q 2256 1581 1919 1581 
Q 1219 1581 811 2004 
Q 403 2428 403 3163 
Q 403 3881 828 4315 
Q 1253 4750 1959 4750 
Q 2769 4750 3195 4129 
Q 3622 3509 3622 2328 
Q 3622 1225 3098 567 
Q 2575 -91 1691 -91 
Q 1453 -91 1209 -44 
Q 966 3 703 97 
z
M 1959 2075 
Q 2384 2075 2632 2365 
Q 2881 2656 2881 3163 
Q 2881 3666 2632 3958 
Q 2384 4250 1959 4250 
Q 1534 4250 1286 3958 
Q 1038 3666 1038 3163 
Q 1038 2656 1286 2365 
Q 1534 2075 1959 2075 
z
" transform="scale(0.015625)"/>
       </defs>
       <use xlink:href="#DejaVuSans-39"/>
       <use xlink:href="#DejaVuSans-30" x="63.623047"/>
      </g>
     </g>
    </g>
    <g id="ytick_12">
     <g id="line2d_36">
      <path d="M 252.392727 51.762739 
L 414.72 51.762739 
" clip-path="url(#p3eb39c210d)" style="fill: none; stroke: #b0b0b0; stroke-width: 0.8; stroke-linecap: square"/>
     </g>
     <g id="line2d_37">
      <g>
       <use xlink:href="#mfa5ddaf7ea" x="252.392727" y="51.762739" style="stroke: #000000; stroke-width: 0.8"/>
      </g>
     </g>
     <g id="text_19">
      <!-- 95 -->
      <g transform="translate(232.667727 55.561958)scale(0.1 -0.1)">
       <use xlink:href="#DejaVuSans-39"/>
       <use xlink:href="#DejaVuSans-35" x="63.623047"/>
      </g>
     </g>
    </g>
   </g>
   <g id="LineCollection_1">
    <path d="M 296.663802 46.970182 
L 370.448926 46.970182 
" clip-path="url(#p3eb39c210d)" style="fill: none; stroke: #1f77b4; stroke-width: 1.5"/>
   </g>
   <g id="LineCollection_2">
    <path d="M 296.663802 156.933818 
L 370.448926 156.933818 
" clip-path="url(#p3eb39c210d)" style="fill: none; stroke: #1f77b4; stroke-width: 1.5"/>
   </g>
   <g id="LineCollection_3">
    <path d="M 333.556364 156.933818 
L 333.556364 46.970182 
" clip-path="url(#p3eb39c210d)" style="fill: none; stroke: #1f77b4; stroke-width: 1.5"/>
   </g>
   <g id="LineCollection_4">
    <path d="M 296.663802 135.022721 
L 370.448926 135.022721 
" clip-path="url(#p3eb39c210d)" style="fill: none; stroke: #1f77b4; stroke-width: 1.5"/>
   </g>
   <g id="patch_8">
    <path d="M 252.392727 162.432 
L 252.392727 41.472 
" style="fill: none; stroke: #000000; stroke-width: 0.8; stroke-linejoin: miter; stroke-linecap: square"/>
   </g>
   <g id="patch_9">
    <path d="M 414.72 162.432 
L 414.72 41.472 
" style="fill: none; stroke: #000000; stroke-width: 0.8; stroke-linejoin: miter; stroke-linecap: square"/>
   </g>
   <g id="patch_10">
    <path d="M 252.392727 162.432 
L 414.72 162.432 
" style="fill: none; stroke: #000000; stroke-width: 0.8; stroke-linejoin: miter; stroke-linecap: square"/>
   </g>
   <g id="patch_11">
    <path d="M 252.392727 41.472 
L 414.72 41.472 
" style="fill: none; stroke: #000000; stroke-width: 0.8; stroke-linejoin: miter; stroke-linecap: square"/>
   </g>
  </g>
  <g id="axes_3">
   <g id="patch_12">
    <path d="M 57.6 307.584 
L 219.927273 307.584 
L 219.927273 186.624 
L 57.6 186.624 
z
" style="fill: #ffffff"/>
   </g>
   <g id="matplotlib.axis_5">
    <g id="xtick_7">
     <g id="line2d_38">
      <path d="M 64.978512 307.584 
L 64.978512 186.624 
" clip-path="url(#p1c35aad636)" style="fill: none; stroke: #b0b0b0; stroke-width: 0.8; stroke-linecap: square"/>
     </g>
     <g id="line2d_39">
      <g>
       <use xlink:href="#m6d9c55f03e" x="64.978512" y="307.584" style="stroke: #000000; stroke-width: 0.8"/>
      </g>
     </g>
     <g id="text_20">
      <!-- 0 -->
      <g transform="translate(61.797262 322.182437)scale(0.1 -0.1)">
       <use xlink:href="#DejaVuSans-30"/>
      </g>
     </g>
    </g>
    <g id="xtick_8">
     <g id="line2d_40">
      <path d="M 124.124904 307.584 
L 124.124904 186.624 
" clip-path="url(#p1c35aad636)" style="fill: none; stroke: #b0b0b0; stroke-width: 0.8; stroke-linecap: square"/>
     </g>
     <g id="line2d_41">
      <g>
       <use xlink:href="#m6d9c55f03e" x="124.124904" y="307.584" style="stroke: #000000; stroke-width: 0.8"/>
      </g>
     </g>
     <g id="text_21">
      <!-- 200 -->
      <g transform="translate(114.581154 322.182437)scale(0.1 -0.1)">
       <use xlink:href="#DejaVuSans-32"/>
       <use xlink:href="#DejaVuSans-30" x="63.623047"/>
       <use xlink:href="#DejaVuSans-30" x="127.246094"/>
      </g>
     </g>
    </g>
    <g id="xtick_9">
     <g id="line2d_42">
      <path d="M 183.271296 307.584 
L 183.271296 186.624 
" clip-path="url(#p1c35aad636)" style="fill: none; stroke: #b0b0b0; stroke-width: 0.8; stroke-linecap: square"/>
     </g>
     <g id="line2d_43">
      <g>
       <use xlink:href="#m6d9c55f03e" x="183.271296" y="307.584" style="stroke: #000000; stroke-width: 0.8"/>
      </g>
     </g>
     <g id="text_22">
      <!-- 400 -->
      <g transform="translate(173.727546 322.182437)scale(0.1 -0.1)">
       <use xlink:href="#DejaVuSans-34"/>
       <use xlink:href="#DejaVuSans-30" x="63.623047"/>
       <use xlink:href="#DejaVuSans-30" x="127.246094"/>
      </g>
     </g>
    </g>
   </g>
   <g id="matplotlib.axis_6">
    <g id="ytick_13">
     <g id="line2d_44">
      <path d="M 57.6 307.584 
L 219.927273 307.584 
" clip-path="url(#p1c35aad636)" style="fill: none; stroke: #b0b0b0; stroke-width: 0.8; stroke-linecap: square"/>
     </g>
     <g id="line2d_45">
      <g>
       <use xlink:href="#mfa5ddaf7ea" x="57.6" y="307.584" style="stroke: #000000; stroke-width: 0.8"/>
      </g>
     </g>
     <g id="text_23">
      <!-- 0 -->
      <g transform="translate(44.2375 311.383219)scale(0.1 -0.1)">
       <use xlink:href="#DejaVuSans-30"/>
      </g>
     </g>
    </g>
    <g id="ytick_14">
     <g id="line2d_46">
      <path d="M 57.6 283.392 
L 219.927273 283.392 
" clip-path="url(#p1c35aad636)" style="fill: none; stroke: #b0b0b0; stroke-width: 0.8; stroke-linecap: square"/>
     </g>
     <g id="line2d_47">
      <g>
       <use xlink:href="#mfa5ddaf7ea" x="57.6" y="283.392" style="stroke: #000000; stroke-width: 0.8"/>
      </g>
     </g>
     <g id="text_24">
      <!-- 2 -->
      <g transform="translate(44.2375 287.191219)scale(0.1 -0.1)">
       <use xlink:href="#DejaVuSans-32"/>
      </g>
     </g>
    </g>
    <g id="ytick_15">
     <g id="line2d_48">
      <path d="M 57.6 259.2 
L 219.927273 259.2 
" clip-path="url(#p1c35aad636)" style="fill: none; stroke: #b0b0b0; stroke-width: 0.8; stroke-linecap: square"/>
     </g>
     <g id="line2d_49">
      <g>
       <use xlink:href="#mfa5ddaf7ea" x="57.6" y="259.2" style="stroke: #000000; stroke-width: 0.8"/>
      </g>
     </g>
     <g id="text_25">
      <!-- 4 -->
      <g transform="translate(44.2375 262.999219)scale(0.1 -0.1)">
       <use xlink:href="#DejaVuSans-34"/>
      </g>
     </g>
    </g>
    <g id="ytick_16">
     <g id="line2d_50">
      <path d="M 57.6 235.008 
L 219.927273 235.008 
" clip-path="url(#p1c35aad636)" style="fill: none; stroke: #b0b0b0; stroke-width: 0.8; stroke-linecap: square"/>
     </g>
     <g id="line2d_51">
      <g>
       <use xlink:href="#mfa5ddaf7ea" x="57.6" y="235.008" style="stroke: #000000; stroke-width: 0.8"/>
      </g>
     </g>
     <g id="text_26">
      <!-- 6 -->
      <g transform="translate(44.2375 238.807219)scale(0.1 -0.1)">
       <use xlink:href="#DejaVuSans-36"/>
      </g>
     </g>
    </g>
    <g id="ytick_17">
     <g id="line2d_52">
      <path d="M 57.6 210.816 
L 219.927273 210.816 
" clip-path="url(#p1c35aad636)" style="fill: none; stroke: #b0b0b0; stroke-width: 0.8; stroke-linecap: square"/>
     </g>
     <g id="line2d_53">
      <g>
       <use xlink:href="#mfa5ddaf7ea" x="57.6" y="210.816" style="stroke: #000000; stroke-width: 0.8"/>
      </g>
     </g>
     <g id="text_27">
      <!-- 8 -->
      <g transform="translate(44.2375 214.615219)scale(0.1 -0.1)">
       <use xlink:href="#DejaVuSans-38"/>
      </g>
     </g>
    </g>
    <g id="ytick_18">
     <g id="line2d_54">
      <path d="M 57.6 186.624 
L 219.927273 186.624 
" clip-path="url(#p1c35aad636)" style="fill: none; stroke: #b0b0b0; stroke-width: 0.8; stroke-linecap: square"/>
     </g>
     <g id="line2d_55">
      <g>
       <use xlink:href="#mfa5ddaf7ea" x="57.6" y="186.624" style="stroke: #000000; stroke-width: 0.8"/>
      </g>
     </g>
     <g id="text_28">
      <!-- 10 -->
      <g transform="translate(37.875 190.423219)scale(0.1 -0.1)">
       <use xlink:href="#DejaVuSans-31"/>
       <use xlink:href="#DejaVuSans-30" x="63.623047"/>
      </g>
     </g>
    </g>
    <g id="text_29">
     <!-- xruns per period -->
     <g transform="translate(31.795312 288.474312)rotate(-90)scale(0.1 -0.1)">
      <defs>
       <path id="DejaVuSans-78" d="M 3513 3500 
L 2247 1797 
L 3578 0 
L 2900 0 
L 1881 1375 
L 863 0 
L 184 0 
L 1544 1831 
L 300 3500 
L 978 3500 
L 1906 2253 
L 2834 3500 
L 3513 3500 
z
" transform="scale(0.015625)"/>
       <path id="DejaVuSans-72" d="M 2631 2963 
Q 2534 3019 2420 3045 
Q 2306 3072 2169 3072 
Q 1681 3072 1420 2755 
Q 1159 2438 1159 1844 
L 1159 0 
L 581 0 
L 581 3500 
L 1159 3500 
L 1159 2956 
Q 1341 3275 1631 3429 
Q 1922 3584 2338 3584 
Q 2397 3584 2469 3576 
Q 2541 3569 2628 3553 
L 2631 2963 
z
" transform="scale(0.015625)"/>
       <path id="DejaVuSans-75" d="M 544 1381 
L 544 3500 
L 1119 3500 
L 1119 1403 
Q 1119 906 1312 657 
Q 1506 409 1894 409 
Q 2359 409 2629 706 
Q 2900 1003 2900 1516 
L 2900 3500 
L 3475 3500 
L 3475 0 
L 2900 0 
L 2900 538 
Q 2691 219 2414 64 
Q 2138 -91 1772 -91 
Q 1169 -91 856 284 
Q 544 659 544 1381 
z
M 1991 3584 
L 1991 3584 
z
" transform="scale(0.015625)"/>
       <path id="DejaVuSans-6e" d="M 3513 2113 
L 3513 0 
L 2938 0 
L 2938 2094 
Q 2938 2591 2744 2837 
Q 2550 3084 2163 3084 
Q 1697 3084 1428 2787 
Q 1159 2491 1159 1978 
L 1159 0 
L 581 0 
L 581 3500 
L 1159 3500 
L 1159 2956 
Q 1366 3272 1645 3428 
Q 1925 3584 2291 3584 
Q 2894 3584 3203 3211 
Q 3513 2838 3513 2113 
z
" transform="scale(0.015625)"/>
       <path id="DejaVuSans-73" d="M 2834 3397 
L 2834 2853 
Q 2591 2978 2328 3040 
Q 2066 3103 1784 3103 
Q 1356 3103 1142 2972 
Q 928 2841 928 2578 
Q 928 2378 1081 2264 
Q 1234 2150 1697 2047 
L 1894 2003 
Q 2506 1872 2764 1633 
Q 3022 1394 3022 966 
Q 3022 478 2636 193 
Q 2250 -91 1575 -91 
Q 1294 -91 989 -36 
Q 684 19 347 128 
L 347 722 
Q 666 556 975 473 
Q 1284 391 1588 391 
Q 1994 391 2212 530 
Q 2431 669 2431 922 
Q 2431 1156 2273 1281 
Q 2116 1406 1581 1522 
L 1381 1569 
Q 847 1681 609 1914 
Q 372 2147 372 2553 
Q 372 3047 722 3315 
Q 1072 3584 1716 3584 
Q 2034 3584 2315 3537 
Q 2597 3491 2834 3397 
z
" transform="scale(0.015625)"/>
       <path id="DejaVuSans-70" d="M 1159 525 
L 1159 -1331 
L 581 -1331 
L 581 3500 
L 1159 3500 
L 1159 2969 
Q 1341 3281 1617 3432 
Q 1894 3584 2278 3584 
Q 2916 3584 3314 3078 
Q 3713 2572 3713 1747 
Q 3713 922 3314 415 
Q 2916 -91 2278 -91 
Q 1894 -91 1617 61 
Q 1341 213 1159 525 
z
M 3116 1747 
Q 3116 2381 2855 2742 
Q 2594 3103 2138 3103 
Q 1681 3103 1420 2742 
Q 1159 2381 1159 1747 
Q 1159 1113 1420 752 
Q 1681 391 2138 391 
Q 2594 391 2855 752 
Q 3116 1113 3116 1747 
z
" transform="scale(0.015625)"/>
       <path id="DejaVuSans-65" d="M 3597 1894 
L 3597 1613 
L 953 1613 
Q 991 1019 1311 708 
Q 1631 397 2203 397 
Q 2534 397 2845 478 
Q 3156 559 3463 722 
L 3463 178 
Q 3153 47 2828 -22 
Q 2503 -91 2169 -91 
Q 1331 -91 842 396 
Q 353 884 353 1716 
Q 353 2575 817 3079 
Q 1281 3584 2069 3584 
Q 2775 3584 3186 3129 
Q 3597 2675 3597 1894 
z
M 3022 2063 
Q 3016 2534 2758 2815 
Q 2500 3097 2075 3097 
Q 1594 3097 1305 2825 
Q 1016 2553 972 2059 
L 3022 2063 
z
" transform="scale(0.015625)"/>
       <path id="DejaVuSans-69" d="M 603 3500 
L 1178 3500 
L 1178 0 
L 603 0 
L 603 3500 
z
M 603 4863 
L 1178 4863 
L 1178 4134 
L 603 4134 
L 603 4863 
z
" transform="scale(0.015625)"/>
      </defs>
      <use xlink:href="#DejaVuSans-78"/>
      <use xlink:href="#DejaVuSans-72" x="59.179688"/>
      <use xlink:href="#DejaVuSans-75" x="100.292969"/>
      <use xlink:href="#DejaVuSans-6e" x="163.671875"/>
      <use xlink:href="#DejaVuSans-73" x="227.050781"/>
      <use xlink:href="#DejaVuSans-20" x="279.150391"/>
      <use xlink:href="#DejaVuSans-70" x="310.9375"/>
      <use xlink:href="#DejaVuSans-65" x="374.414062"/>
      <use xlink:href="#DejaVuSans-72" x="435.9375"/>
      <use xlink:href="#DejaVuSans-20" x="477.050781"/>
      <use xlink:href="#DejaVuSans-70" x="508.837891"/>
      <use xlink:href="#DejaVuSans-65" x="572.314453"/>
      <use xlink:href="#DejaVuSans-72" x="633.837891"/>
      <use xlink:href="#DejaVuSans-69" x="674.951172"/>
      <use xlink:href="#DejaVuSans-6f" x="702.734375"/>
      <use xlink:href="#DejaVuSans-64" x="763.916016"/>
     </g>
    </g>
   </g>
   <g id="line2d_56">
    <path d="M 64.978512 307.584 
L 67.344368 307.584 
L 67.6401 271.296 
L 67.935832 307.584 
L 68.231564 295.488 
L 68.527296 307.584 
L 75.329131 307.584 
L 75.624863 283.392 
L 76.216327 307.584 
L 76.807791 307.584 
L 77.103523 295.488 
L 77.399255 307.584 
L 80.948038 307.584 
L 81.191409 -1 
M 81.297877 -1 
L 81.539502 295.488 
L 81.835234 307.584 
L 89.524265 307.584 
L 89.819997 283.392 
L 90.411461 307.584 
L 91.298657 307.584 
L 91.594389 235.008 
L 92.185853 295.488 
L 92.481585 307.584 
L 102.536471 307.584 
L 102.832203 271.296 
L 103.127935 307.584 
L 103.719399 307.584 
L 104.015131 295.488 
L 104.310863 17.28 
L 104.606595 198.72 
L 104.902327 307.584 
L 115.844409 307.584 
L 116.140141 295.488 
L 116.435873 295.488 
L 116.731605 307.584 
L 117.323069 307.584 
L 117.618801 295.488 
L 117.914533 307.584 
L 121.759049 307.584 
L 122.054781 271.296 
L 122.350513 295.488 
L 122.646245 307.584 
L 131.222471 307.584 
L 131.518203 271.296 
L 131.813935 307.584 
L 132.701131 307.584 
L 132.996863 295.488 
L 133.292595 307.584 
L 137.432843 307.584 
L 137.728575 259.2 
L 138.024306 295.488 
L 138.320038 307.584 
L 145.417605 307.584 
L 145.713337 259.2 
L 146.009069 259.2 
L 146.304801 295.488 
L 146.600533 307.584 
L 146.896265 307.584 
L 147.191997 295.488 
L 147.487729 307.584 
L 152.515172 307.584 
L 152.810904 259.2 
L 153.106636 295.488 
L 153.402368 307.584 
L 159.908471 307.584 
L 160.204203 247.104 
L 160.499935 295.488 
L 160.795667 307.584 
L 161.387131 307.584 
L 161.682863 295.488 
L 161.978595 307.584 
L 165.823111 307.584 
L 166.118843 271.296 
L 166.414575 307.584 
L 166.710307 295.488 
L 167.006039 307.584 
L 174.990801 307.584 
L 175.286533 283.392 
L 175.877997 307.584 
L 176.469461 307.584 
L 176.765193 295.488 
L 177.060925 307.584 
L 181.792637 307.584 
L 182.088368 271.296 
L 182.3841 295.488 
L 182.679832 307.584 
L 189.185936 307.584 
L 189.481667 283.392 
L 190.073131 307.584 
L 190.664595 307.584 
L 190.960327 295.488 
L 191.256059 307.584 
L 195.692039 307.584 
L 195.987771 283.392 
L 196.283503 271.296 
L 196.579235 295.488 
L 196.874966 307.584 
L 203.676802 307.584 
L 203.972533 259.2 
L 204.268265 307.584 
L 205.155461 307.584 
L 205.451193 259.2 
L 205.746925 295.488 
L 206.042657 307.584 
L 212.54876 307.584 
L 212.54876 307.584 
" clip-path="url(#p1c35aad636)" style="fill: none; stroke: #1f77b4; stroke-width: 1.5; stroke-linecap: square"/>
   </g>
   <g id="patch_13">
    <path d="M 57.6 307.584 
L 57.6 186.624 
" style="fill: none; stroke: #000000; stroke-width: 0.8; stroke-linejoin: miter; stroke-linecap: square"/>
   </g>
   <g id="patch_14">
    <path d="M 219.927273 307.584 
L 219.927273 186.624 
" style="fill: none; stroke: #000000; stroke-width: 0.8; stroke-linejoin: miter; stroke-linecap: square"/>
   </g>
   <g id="patch_15">
    <path d="M 57.6 307.584 
L 219.927273 307.584 
" style="fill: none; stroke: #000000; stroke-width: 0.8; stroke-linejoin: miter; stroke-linecap: square"/>
   </g>
   <g id="patch_16">
    <path d="M 57.6 186.624 
L 219.927273 186.624 
" style="fill: none; stroke: #000000; stroke-width: 0.8; stroke-linejoin: miter; stroke-linecap: square"/>
   </g>
  </g>
  <g id="axes_4">
   <g id="patch_17">
    <path d="M 252.392727 307.584 
L 414.72 307.584 
L 414.72 186.624 
L 252.392727 186.624 
z
" style="fill: #ffffff"/>
   </g>
   <g id="PolyCollection_2">
    <path d="M 407.341488 302.085818 
L 259.77124 302.085818 
L 269.391286 300.975074 
L 291.611962 299.864331 
L 311.869434 298.753587 
L 323.734267 297.642843 
L 329.055754 296.532099 
L 331.161914 295.421355 
L 331.892192 294.310612 
L 332.016083 293.199868 
L 331.934376 292.089124 
L 331.905935 290.97838 
L 331.996326 289.867636 
L 332.143812 288.756893 
L 332.349614 287.646149 
L 332.643518 286.535405 
L 332.95308 285.424661 
L 333.174485 284.313917 
L 333.286031 283.203174 
L 333.329208 282.09243 
L 333.35549 280.981686 
L 333.399085 279.870942 
L 333.458923 278.760198 
L 333.510914 277.649455 
L 333.539999 276.538711 
L 333.547992 275.427967 
L 333.538279 274.317223 
L 333.507393 273.206479 
L 333.456429 272.095736 
L 333.407866 270.984992 
L 333.395954 269.874248 
L 333.430408 268.763504 
L 333.484472 267.65276 
L 333.526536 266.542017 
L 333.547368 265.431273 
L 333.554392 264.320529 
L 333.556049 263.209785 
L 333.556327 262.099041 
L 333.556361 260.988298 
L 333.556363 259.877554 
L 333.556364 258.76681 
L 333.556364 257.656066 
L 333.556364 256.545322 
L 333.556364 255.434579 
L 333.556364 254.323835 
L 333.556364 253.213091 
L 333.556364 252.102347 
L 333.556364 250.991603 
L 333.556364 249.88086 
L 333.556364 248.770116 
L 333.556364 247.659372 
L 333.556364 246.548628 
L 333.556364 245.437884 
L 333.556364 244.32714 
L 333.556364 243.216397 
L 333.556364 242.105653 
L 333.556364 240.994909 
L 333.556364 239.884165 
L 333.556364 238.773421 
L 333.556364 237.662678 
L 333.556364 236.551934 
L 333.556364 235.44119 
L 333.556364 234.330446 
L 333.556364 233.219702 
L 333.556364 232.108959 
L 333.556364 230.998215 
L 333.556364 229.887471 
L 333.556364 228.776727 
L 333.556364 227.665983 
L 333.556363 226.55524 
L 333.556349 225.444496 
L 333.556222 224.333752 
L 333.555358 223.223008 
L 333.551172 222.112264 
L 333.536886 221.001521 
L 333.503249 219.890777 
L 333.451076 218.780033 
L 333.404654 217.669289 
L 333.397464 216.558545 
L 333.435386 215.447802 
L 333.489412 214.337058 
L 333.52943 213.226314 
L 333.548488 212.11557 
L 333.55469 211.004826 
L 333.556105 209.894083 
L 333.556335 208.783339 
L 333.556361 207.672595 
L 333.556363 206.561851 
L 333.556364 205.451107 
L 333.556364 204.340364 
L 333.556364 203.22962 
L 333.556363 202.118876 
L 333.556358 201.008132 
L 333.556298 199.897388 
L 333.555843 198.786645 
L 333.553356 197.675901 
L 333.543727 196.565157 
L 333.517774 195.454413 
L 333.470701 194.343669 
L 333.418141 193.232926 
L 333.394241 192.122182 
L 333.718486 192.122182 
L 333.718486 192.122182 
L 333.694587 193.232926 
L 333.642026 194.343669 
L 333.594954 195.454413 
L 333.569 196.565157 
L 333.559372 197.675901 
L 333.556884 198.786645 
L 333.556429 199.897388 
L 333.55637 201.008132 
L 333.556364 202.118876 
L 333.556364 203.22962 
L 333.556364 204.340364 
L 333.556364 205.451107 
L 333.556364 206.561851 
L 333.556366 207.672595 
L 333.556393 208.783339 
L 333.556622 209.894083 
L 333.558038 211.004826 
L 333.564239 212.11557 
L 333.583297 213.226314 
L 333.623315 214.337058 
L 333.677341 215.447802 
L 333.715263 216.558545 
L 333.708074 217.669289 
L 333.661652 218.780033 
L 333.609479 219.890777 
L 333.575841 221.001521 
L 333.561555 222.112264 
L 333.55737 223.223008 
L 333.556505 224.333752 
L 333.556378 225.444496 
L 333.556365 226.55524 
L 333.556364 227.665983 
L 333.556364 228.776727 
L 333.556364 229.887471 
L 333.556364 230.998215 
L 333.556364 232.108959 
L 333.556364 233.219702 
L 333.556364 234.330446 
L 333.556364 235.44119 
L 333.556364 236.551934 
L 333.556364 237.662678 
L 333.556364 238.773421 
L 333.556364 239.884165 
L 333.556364 240.994909 
L 333.556364 242.105653 
L 333.556364 243.216397 
L 333.556364 244.32714 
L 333.556364 245.437884 
L 333.556364 246.548628 
L 333.556364 247.659372 
L 333.556364 248.770116 
L 333.556364 249.88086 
L 333.556364 250.991603 
L 333.556364 252.102347 
L 333.556364 253.213091 
L 333.556364 254.323835 
L 333.556364 255.434579 
L 333.556364 256.545322 
L 333.556364 257.656066 
L 333.556364 258.76681 
L 333.556364 259.877554 
L 333.556367 260.988298 
L 333.5564 262.099041 
L 333.556678 263.209785 
L 333.558336 264.320529 
L 333.565359 265.431273 
L 333.586191 266.542017 
L 333.628256 267.65276 
L 333.68232 268.763504 
L 333.716773 269.874248 
L 333.704861 270.984992 
L 333.656298 272.095736 
L 333.605334 273.206479 
L 333.574448 274.317223 
L 333.564735 275.427967 
L 333.572728 276.538711 
L 333.601813 277.649455 
L 333.653805 278.760198 
L 333.713643 279.870942 
L 333.757237 280.981686 
L 333.783519 282.09243 
L 333.826696 283.203174 
L 333.938243 284.313917 
L 334.159647 285.424661 
L 334.469209 286.535405 
L 334.763114 287.646149 
L 334.968916 288.756893 
L 335.116401 289.867636 
L 335.206793 290.97838 
L 335.178351 292.089124 
L 335.096644 293.199868 
L 335.220536 294.310612 
L 335.950814 295.421355 
L 338.056973 296.532099 
L 343.378461 297.642843 
L 355.243293 298.753587 
L 375.500766 299.864331 
L 397.721441 300.975074 
L 407.341488 302.085818 
z
" clip-path="url(#p0e4d8c6992)" style="fill: #1f77b4; fill-opacity: 0.3"/>
   </g>
   <g id="matplotlib.axis_7">
    <g id="xtick_10">
     <g id="line2d_57">
      <path d="M 274.528264 307.584 
L 274.528264 186.624 
" clip-path="url(#p0e4d8c6992)" style="fill: none; stroke: #b0b0b0; stroke-width: 0.8; stroke-linecap: square"/>
     </g>
     <g id="line2d_58">
      <g>
       <use xlink:href="#m6d9c55f03e" x="274.528264" y="307.584" style="stroke: #000000; stroke-width: 0.8"/>
      </g>
     </g>
     <g id="text_30">
      <!-- 0.8 -->
      <g transform="translate(266.576702 322.182437)scale(0.1 -0.1)">
       <use xlink:href="#DejaVuSans-30"/>
       <use xlink:href="#DejaVuSans-2e" x="63.623047"/>
       <use xlink:href="#DejaVuSans-38" x="95.410156"/>
      </g>
     </g>
    </g>
    <g id="xtick_11">
     <g id="line2d_59">
      <path d="M 333.556364 307.584 
L 333.556364 186.624 
" clip-path="url(#p0e4d8c6992)" style="fill: none; stroke: #b0b0b0; stroke-width: 0.8; stroke-linecap: square"/>
     </g>
     <g id="line2d_60">
      <g>
       <use xlink:href="#m6d9c55f03e" x="333.556364" y="307.584" style="stroke: #000000; stroke-width: 0.8"/>
      </g>
     </g>
     <g id="text_31">
      <!-- 1.0 -->
      <g transform="translate(325.604801 322.182437)scale(0.1 -0.1)">
       <use xlink:href="#DejaVuSans-31"/>
       <use xlink:href="#DejaVuSans-2e" x="63.623047"/>
       <use xlink:href="#DejaVuSans-30" x="95.410156"/>
      </g>
     </g>
    </g>
    <g id="xtick_12">
     <g id="line2d_61">
      <path d="M 392.584463 307.584 
L 392.584463 186.624 
" clip-path="url(#p0e4d8c6992)" style="fill: none; stroke: #b0b0b0; stroke-width: 0.8; stroke-linecap: square"/>
     </g>
     <g id="line2d_62">
      <g>
       <use xlink:href="#m6d9c55f03e" x="392.584463" y="307.584" style="stroke: #000000; stroke-width: 0.8"/>
      </g>
     </g>
     <g id="text_32">
      <!-- 1.2 -->
      <g transform="translate(384.6329 322.182437)scale(0.1 -0.1)">
       <use xlink:href="#DejaVuSans-31"/>
       <use xlink:href="#DejaVuSans-2e" x="63.623047"/>
       <use xlink:href="#DejaVuSans-32" x="95.410156"/>
      </g>
     </g>
    </g>
   </g>
   <g id="matplotlib.axis_8">
    <g id="ytick_19">
     <g id="line2d_63">
      <path d="M 252.392727 302.085818 
L 414.72 302.085818 
" clip-path="url(#p0e4d8c6992)" style="fill: none; stroke: #b0b0b0; stroke-width: 0.8; stroke-linecap: square"/>
     </g>
     <g id="line2d_64">
      <g>
       <use xlink:href="#mfa5ddaf7ea" x="252.392727" y="302.085818" style="stroke: #000000; stroke-width: 0.8"/>
      </g>
     </g>
     <g id="text_33">
      <!-- 0 -->
      <g transform="translate(239.030227 305.885037)scale(0.1 -0.1)">
       <use xlink:href="#DejaVuSans-30"/>
      </g>
     </g>
    </g>
    <g id="ytick_20">
     <g id="line2d_65">
      <path d="M 252.392727 266.613677 
L 414.72 266.613677 
" clip-path="url(#p0e4d8c6992)" style="fill: none; stroke: #b0b0b0; stroke-width: 0.8; stroke-linecap: square"/>
     </g>
     <g id="line2d_66">
      <g>
       <use xlink:href="#mfa5ddaf7ea" x="252.392727" y="266.613677" style="stroke: #000000; stroke-width: 0.8"/>
      </g>
     </g>
     <g id="text_34">
      <!-- 10 -->
      <g transform="translate(232.667727 270.412896)scale(0.1 -0.1)">
       <use xlink:href="#DejaVuSans-31"/>
       <use xlink:href="#DejaVuSans-30" x="63.623047"/>
      </g>
     </g>
    </g>
    <g id="ytick_21">
     <g id="line2d_67">
      <path d="M 252.392727 231.141537 
L 414.72 231.141537 
" clip-path="url(#p0e4d8c6992)" style="fill: none; stroke: #b0b0b0; stroke-width: 0.8; stroke-linecap: square"/>
     </g>
     <g id="line2d_68">
      <g>
       <use xlink:href="#mfa5ddaf7ea" x="252.392727" y="231.141537" style="stroke: #000000; stroke-width: 0.8"/>
      </g>
     </g>
     <g id="text_35">
      <!-- 20 -->
      <g transform="translate(232.667727 234.940755)scale(0.1 -0.1)">
       <use xlink:href="#DejaVuSans-32"/>
       <use xlink:href="#DejaVuSans-30" x="63.623047"/>
      </g>
     </g>
    </g>
    <g id="ytick_22">
     <g id="line2d_69">
      <path d="M 252.392727 195.669396 
L 414.72 195.669396 
" clip-path="url(#p0e4d8c6992)" style="fill: none; stroke: #b0b0b0; stroke-width: 0.8; stroke-linecap: square"/>
     </g>
     <g id="line2d_70">
      <g>
       <use xlink:href="#mfa5ddaf7ea" x="252.392727" y="195.669396" style="stroke: #000000; stroke-width: 0.8"/>
      </g>
     </g>
     <g id="text_36">
      <!-- 30 -->
      <g transform="translate(232.667727 199.468615)scale(0.1 -0.1)">
       <defs>
        <path id="DejaVuSans-33" d="M 2597 2516 
Q 3050 2419 3304 2112 
Q 3559 1806 3559 1356 
Q 3559 666 3084 287 
Q 2609 -91 1734 -91 
Q 1441 -91 1130 -33 
Q 819 25 488 141 
L 488 750 
Q 750 597 1062 519 
Q 1375 441 1716 441 
Q 2309 441 2620 675 
Q 2931 909 2931 1356 
Q 2931 1769 2642 2001 
Q 2353 2234 1838 2234 
L 1294 2234 
L 1294 2753 
L 1863 2753 
Q 2328 2753 2575 2939 
Q 2822 3125 2822 3475 
Q 2822 3834 2567 4026 
Q 2313 4219 1838 4219 
Q 1578 4219 1281 4162 
Q 984 4106 628 3988 
L 628 4550 
Q 988 4650 1302 4700 
Q 1616 4750 1894 4750 
Q 2613 4750 3031 4423 
Q 3450 4097 3450 3541 
Q 3450 3153 3228 2886 
Q 3006 2619 2597 2516 
z
" transform="scale(0.015625)"/>
       </defs>
       <use xlink:href="#DejaVuSans-33"/>
       <use xlink:href="#DejaVuSans-30" x="63.623047"/>
      </g>
     </g>
    </g>
   </g>
   <g id="LineCollection_5">
    <path d="M 296.663802 192.122182 
L 370.448926 192.122182 
" clip-path="url(#p0e4d8c6992)" style="fill: none; stroke: #1f77b4; stroke-width: 1.5"/>
   </g>
   <g id="LineCollection_6">
    <path d="M 296.663802 302.085818 
L 370.448926 302.085818 
" clip-path="url(#p0e4d8c6992)" style="fill: none; stroke: #1f77b4; stroke-width: 1.5"/>
   </g>
   <g id="LineCollection_7">
    <path d="M 333.556364 302.085818 
L 333.556364 192.122182 
" clip-path="url(#p0e4d8c6992)" style="fill: none; stroke: #1f77b4; stroke-width: 1.5"/>
   </g>
   <g id="LineCollection_8">
    <path d="M 296.663802 302.085818 
L 370.448926 302.085818 
" clip-path="url(#p0e4d8c6992)" style="fill: none; stroke: #1f77b4; stroke-width: 1.5"/>
   </g>
   <g id="patch_18">
    <path d="M 252.392727 307.584 
L 252.392727 186.624 
" style="fill: none; stroke: #000000; stroke-width: 0.8; stroke-linejoin: miter; stroke-linecap: square"/>
   </g>
   <g id="patch_19">
    <path d="M 414.72 307.584 
L 414.72 186.624 
" style="fill: none; stroke: #000000; stroke-width: 0.8; stroke-linejoin: miter; stroke-linecap: square"/>
   </g>
   <g id="patch_20">
    <path d="M 252.392727 307.584 
L 414.72 307.584 
" style="fill: none; stroke: #000000; stroke-width: 0.8; stroke-linejoin: miter; stroke-linecap: square"/>
   </g>
   <g id="patch_21">
    <path d="M 252.392727 186.624 
L 414.72 186.624 
" style="fill: none; stroke: #000000; stroke-width: 0.8; stroke-linejoin: miter; stroke-linecap: square"/>
   </g>
   <g id="text_37">
    <!-- captures/data_softcut_20220315_235751.csv -->
    <g transform="translate(196.993551 180.624)scale(0.12 -0.12)">
     <defs>
      <path id="DejaVuSans-63" d="M 3122 3366 
L 3122 2828 
Q 2878 2963 2633 3030 
Q 2388 3097 2138 3097 
Q 1578 3097 1268 2742 
Q 959 2388 959 1747 
Q 959 1106 1268 751 
Q 1578 397 2138 397 
Q 2388 397 2633 464 
Q 2878 531 3122 666 
L 3122 134 
Q 2881 22 2623 -34 
Q 2366 -91 2075 -91 
Q 1284 -91 818 406 
Q 353 903 353 1747 
Q 353 2603 823 3093 
Q 1294 3584 2113 3584 
Q 2378 3584 2631 3529 
Q 2884 3475 3122 3366 
z
" transform="scale(0.015625)"/>
      <path id="DejaVuSans-74" d="M 1172 4494 
L 1172 3500 
L 2356 3500 
L 2356 3053 
L 1172 3053 
L 1172 1153 
Q 1172 725 1289 603 
Q 1406 481 1766 481 
L 2356 481 
L 2356 0 
L 1766 0 
Q 1100 0 847 248 
Q 594 497 594 1153 
L 594 3053 
L 172 3053 
L 172 3500 
L 594 3500 
L 594 4494 
L 1172 4494 
z
" transform="scale(0.015625)"/>
      <path id="DejaVuSans-2f" d="M 1625 4666 
L 2156 4666 
L 531 -594 
L 0 -594 
L 1625 4666 
z
" transform="scale(0.015625)"/>
      <path id="DejaVuSans-5f" d="M 3263 -1063 
L 3263 -1509 
L -63 -1509 
L -63 -1063 
L 3263 -1063 
z
" transform="scale(0.015625)"/>
      <path id="DejaVuSans-66" d="M 2375 4863 
L 2375 4384 
L 1825 4384 
Q 1516 4384 1395 4259 
Q 1275 4134 1275 3809 
L 1275 3500 
L 2222 3500 
L 2222 3053 
L 1275 3053 
L 1275 0 
L 697 0 
L 697 3053 
L 147 3053 
L 147 3500 
L 697 3500 
L 697 3744 
Q 697 4328 969 4595 
Q 1241 4863 1831 4863 
L 2375 4863 
z
" transform="scale(0.015625)"/>
      <path id="DejaVuSans-76" d="M 191 3500 
L 800 3500 
L 1894 563 
L 2988 3500 
L 3597 3500 
L 2284 0 
L 1503 0 
L 191 3500 
z
" transform="scale(0.015625)"/>
     </defs>
     <use xlink:href="#DejaVuSans-63"/>
     <use xlink:href="#DejaVuSans-61" x="54.980469"/>
     <use xlink:href="#DejaVuSans-70" x="116.259766"/>
     <use xlink:href="#DejaVuSans-74" x="179.736328"/>
     <use xlink:href="#DejaVuSans-75" x="218.945312"/>
     <use xlink:href="#DejaVuSans-72" x="282.324219"/>
     <use xlink:href="#DejaVuSans-65" x="321.1875"/>
     <use xlink:href="#DejaVuSans-73" x="382.710938"/>
     <use xlink:href="#DejaVuSans-2f" x="434.810547"/>
     <use xlink:href="#DejaVuSans-64" x="468.501953"/>
     <use xlink:href="#DejaVuSans-61" x="531.978516"/>
     <use xlink:href="#DejaVuSans-74" x="593.257812"/>
     <use xlink:href="#DejaVuSans-61" x="632.466797"/>
     <use xlink:href="#DejaVuSans-5f" x="693.746094"/>
     <use xlink:href="#DejaVuSans-73" x="743.746094"/>
     <use xlink:href="#DejaVuSans-6f" x="795.845703"/>
     <use xlink:href="#DejaVuSans-66" x="857.027344"/>
     <use xlink:href="#DejaVuSans-74" x="890.482422"/>
     <use xlink:href="#DejaVuSans-63" x="929.691406"/>
     <use xlink:href="#DejaVuSans-75" x="984.671875"/>
     <use xlink:href="#DejaVuSans-74" x="1048.050781"/>
     <use xlink:href="#DejaVuSans-5f" x="1087.259766"/>
     <use xlink:href="#DejaVuSans-32" x="1137.259766"/>
     <use xlink:href="#DejaVuSans-30" x="1200.882812"/>
     <use xlink:href="#DejaVuSans-32" x="1264.505859"/>
     <use xlink:href="#DejaVuSans-32" x="1328.128906"/>
     <use xlink:href="#DejaVuSans-30" x="1391.751953"/>
     <use xlink:href="#DejaVuSans-33" x="1455.375"/>
     <use xlink:href="#DejaVuSans-31" x="1518.998047"/>
     <use xlink:href="#DejaVuSans-35" x="1582.621094"/>
     <use xlink:href="#DejaVuSans-5f" x="1646.244141"/>
     <use xlink:href="#DejaVuSans-32" x="1696.244141"/>
     <use xlink:href="#DejaVuSans-33" x="1759.867188"/>
     <use xlink:href="#DejaVuSans-35" x="1823.490234"/>
     <use xlink:href="#DejaVuSans-37" x="1887.113281"/>
     <use xlink:href="#DejaVuSans-35" x="1950.736328"/>
     <use xlink:href="#DejaVuSans-31" x="2014.359375"/>
     <use xlink:href="#DejaVuSans-2e" x="2077.982422"/>
     <use xlink:href="#DejaVuSans-63" x="2109.769531"/>
     <use xlink:href="#DejaVuSans-73" x="2164.75"/>
     <use xlink:href="#DejaVuSans-76" x="2216.849609"/>
    </g>
   </g>
  </g>
 </g>
 <defs>
  <clipPath id="p650d012fea">
   <rect x="57.6" y="41.472" width="162.327273" height="120.96"/>
  </clipPath>
  <clipPath id="p3eb39c210d">
   <rect x="252.392727" y="41.472" width="162.327273" height="120.96"/>
  </clipPath>
  <clipPath id="p1c35aad636">
   <rect x="57.6" y="186.624" width="162.327273" height="120.96"/>
  </clipPath>
  <clipPath id="p0e4d8c6992">
   <rect x="252.392727" y="186.624" width="162.327273" height="120.96"/>
  </clipPath>
 </defs>
</svg>
