<?xml version="1.0" encoding="utf-8" standalone="no"?>
<!DOCTYPE svg PUBLIC "-//W3C//DTD SVG 1.1//EN"
  "http://www.w3.org/Graphics/SVG/1.1/DTD/svg11.dtd">
<svg xmlns:xlink="http://www.w3.org/1999/xlink" width="460.8pt" height="345.6pt" viewBox="0 0 460.8 345.6" xmlns="http://www.w3.org/2000/svg" version="1.1">
 <metadata>
  <rdf:RDF xmlns:dc="http://purl.org/dc/elements/1.1/" xmlns:cc="http://creativecommons.org/ns#" xmlns:rdf="http://www.w3.org/1999/02/22-rdf-syntax-ns#">
   <cc:Work>
    <dc:type rdf:resource="http://purl.org/dc/dcmitype/StillImage"/>
    <dc:date>2022-03-16T16:33:52.182379</dc:date>
    <dc:format>image/svg+xml</dc:format>
    <dc:creator>
     <cc:Agent>
      <dc:title>Matplotlib v3.5.1, https://matplotlib.org/</dc:title>
     </cc:Agent>
    </dc:creator>
   </cc:Work>
  </rdf:RDF>
 </metadata>
 <defs>
  <style type="text/css">*{stroke-linejoin: round; stroke-linecap: butt}</style>
 </defs>
 <g id="figure_1">
  <g id="patch_1">
   <path d="M 0 345.6 
L 460.8 345.6 
L 460.8 0 
L 0 0 
z
" style="fill: #ffffff"/>
  </g>
  <g id="axes_1">
   <g id="patch_2">
    <path d="M 57.6 162.432 
L 219.927273 162.432 
L 219.927273 41.472 
L 57.6 41.472 
z
" style="fill: #ffffff"/>
   </g>
   <g id="matplotlib.axis_1">
    <g id="xtick_1">
     <g id="line2d_1">
      <path d="M 64.978512 162.432 
L 64.978512 41.472 
" clip-path="url(#p8246cbebd7)" style="fill: none; stroke: #b0b0b0; stroke-width: 0.8; stroke-linecap: square"/>
     </g>
     <g id="line2d_2">
      <defs>
       <path id="m25322a5ed5" d="M 0 0 
L 0 3.5 
" style="stroke: #000000; stroke-width: 0.8"/>
      </defs>
      <g>
       <use xlink:href="#m25322a5ed5" x="64.978512" y="162.432" style="stroke: #000000; stroke-width: 0.8"/>
      </g>
     </g>
     <g id="text_1">
      <!-- 0 -->
      <g transform="translate(61.797262 177.030437)scale(0.1 -0.1)">
       <defs>
        <path id="DejaVuSans-30" d="M 2034 4250 
Q 1547 4250 1301 3770 
Q 1056 3291 1056 2328 
Q 1056 1369 1301 889 
Q 1547 409 2034 409 
Q 2525 409 2770 889 
Q 3016 1369 3016 2328 
Q 3016 3291 2770 3770 
Q 2525 4250 2034 4250 
z
M 2034 4750 
Q 2819 4750 3233 4129 
Q 3647 3509 3647 2328 
Q 3647 1150 3233 529 
Q 2819 -91 2034 -91 
Q 1250 -91 836 529 
Q 422 1150 422 2328 
Q 422 3509 836 4129 
Q 1250 4750 2034 4750 
z
" transform="scale(0.015625)"/>
       </defs>
       <use xlink:href="#DejaVuSans-30"/>
      </g>
     </g>
    </g>
    <g id="xtick_2">
     <g id="line2d_3">
      <path d="M 124.124904 162.432 
L 124.124904 41.472 
" clip-path="url(#p8246cbebd7)" style="fill: none; stroke: #b0b0b0; stroke-width: 0.8; stroke-linecap: square"/>
     </g>
     <g id="line2d_4">
      <g>
       <use xlink:href="#m25322a5ed5" x="124.124904" y="162.432" style="stroke: #000000; stroke-width: 0.8"/>
      </g>
     </g>
     <g id="text_2">
      <!-- 200 -->
      <g transform="translate(114.581154 177.030437)scale(0.1 -0.1)">
       <defs>
        <path id="DejaVuSans-32" d="M 1228 531 
L 3431 531 
L 3431 0 
L 469 0 
L 469 531 
Q 828 903 1448 1529 
Q 2069 2156 2228 2338 
Q 2531 2678 2651 2914 
Q 2772 3150 2772 3378 
Q 2772 3750 2511 3984 
Q 2250 4219 1831 4219 
Q 1534 4219 1204 4116 
Q 875 4013 500 3803 
L 500 4441 
Q 881 4594 1212 4672 
Q 1544 4750 1819 4750 
Q 2544 4750 2975 4387 
Q 3406 4025 3406 3419 
Q 3406 3131 3298 2873 
Q 3191 2616 2906 2266 
Q 2828 2175 2409 1742 
Q 1991 1309 1228 531 
z
" transform="scale(0.015625)"/>
       </defs>
       <use xlink:href="#DejaVuSans-32"/>
       <use xlink:href="#DejaVuSans-30" x="63.623047"/>
       <use xlink:href="#DejaVuSans-30" x="127.246094"/>
      </g>
     </g>
    </g>
    <g id="xtick_3">
     <g id="line2d_5">
      <path d="M 183.271296 162.432 
L 183.271296 41.472 
" clip-path="url(#p8246cbebd7)" style="fill: none; stroke: #b0b0b0; stroke-width: 0.8; stroke-linecap: square"/>
     </g>
     <g id="line2d_6">
      <g>
       <use xlink:href="#m25322a5ed5" x="183.271296" y="162.432" style="stroke: #000000; stroke-width: 0.8"/>
      </g>
     </g>
     <g id="text_3">
      <!-- 400 -->
      <g transform="translate(173.727546 177.030437)scale(0.1 -0.1)">
       <defs>
        <path id="DejaVuSans-34" d="M 2419 4116 
L 825 1625 
L 2419 1625 
L 2419 4116 
z
M 2253 4666 
L 3047 4666 
L 3047 1625 
L 3713 1625 
L 3713 1100 
L 3047 1100 
L 3047 0 
L 2419 0 
L 2419 1100 
L 313 1100 
L 313 1709 
L 2253 4666 
z
" transform="scale(0.015625)"/>
       </defs>
       <use xlink:href="#DejaVuSans-34"/>
       <use xlink:href="#DejaVuSans-30" x="63.623047"/>
       <use xlink:href="#DejaVuSans-30" x="127.246094"/>
      </g>
     </g>
    </g>
   </g>
   <g id="matplotlib.axis_2">
    <g id="ytick_1">
     <g id="line2d_7">
      <path d="M 57.6 162.432 
L 219.927273 162.432 
" clip-path="url(#p8246cbebd7)" style="fill: none; stroke: #b0b0b0; stroke-width: 0.8; stroke-linecap: square"/>
     </g>
     <g id="line2d_8">
      <defs>
       <path id="m1f705ae233" d="M 0 0 
L -3.5 0 
" style="stroke: #000000; stroke-width: 0.8"/>
      </defs>
      <g>
       <use xlink:href="#m1f705ae233" x="57.6" y="162.432" style="stroke: #000000; stroke-width: 0.8"/>
      </g>
     </g>
     <g id="text_4">
      <!-- 0 -->
      <g transform="translate(44.2375 166.231219)scale(0.1 -0.1)">
       <use xlink:href="#DejaVuSans-30"/>
      </g>
     </g>
    </g>
    <g id="ytick_2">
     <g id="line2d_9">
      <path d="M 57.6 138.24 
L 219.927273 138.24 
" clip-path="url(#p8246cbebd7)" style="fill: none; stroke: #b0b0b0; stroke-width: 0.8; stroke-linecap: square"/>
     </g>
     <g id="line2d_10">
      <g>
       <use xlink:href="#m1f705ae233" x="57.6" y="138.24" style="stroke: #000000; stroke-width: 0.8"/>
      </g>
     </g>
     <g id="text_5">
      <!-- 20 -->
      <g transform="translate(37.875 142.039219)scale(0.1 -0.1)">
       <use xlink:href="#DejaVuSans-32"/>
       <use xlink:href="#DejaVuSans-30" x="63.623047"/>
      </g>
     </g>
    </g>
    <g id="ytick_3">
     <g id="line2d_11">
      <path d="M 57.6 114.048 
L 219.927273 114.048 
" clip-path="url(#p8246cbebd7)" style="fill: none; stroke: #b0b0b0; stroke-width: 0.8; stroke-linecap: square"/>
     </g>
     <g id="line2d_12">
      <g>
       <use xlink:href="#m1f705ae233" x="57.6" y="114.048" style="stroke: #000000; stroke-width: 0.8"/>
      </g>
     </g>
     <g id="text_6">
      <!-- 40 -->
      <g transform="translate(37.875 117.847219)scale(0.1 -0.1)">
       <use xlink:href="#DejaVuSans-34"/>
       <use xlink:href="#DejaVuSans-30" x="63.623047"/>
      </g>
     </g>
    </g>
    <g id="ytick_4">
     <g id="line2d_13">
      <path d="M 57.6 89.856 
L 219.927273 89.856 
" clip-path="url(#p8246cbebd7)" style="fill: none; stroke: #b0b0b0; stroke-width: 0.8; stroke-linecap: square"/>
     </g>
     <g id="line2d_14">
      <g>
       <use xlink:href="#m1f705ae233" x="57.6" y="89.856" style="stroke: #000000; stroke-width: 0.8"/>
      </g>
     </g>
     <g id="text_7">
      <!-- 60 -->
      <g transform="translate(37.875 93.655219)scale(0.1 -0.1)">
       <defs>
        <path id="DejaVuSans-36" d="M 2113 2584 
Q 1688 2584 1439 2293 
Q 1191 2003 1191 1497 
Q 1191 994 1439 701 
Q 1688 409 2113 409 
Q 2538 409 2786 701 
Q 3034 994 3034 1497 
Q 3034 2003 2786 2293 
Q 2538 2584 2113 2584 
z
M 3366 4563 
L 3366 3988 
Q 3128 4100 2886 4159 
Q 2644 4219 2406 4219 
Q 1781 4219 1451 3797 
Q 1122 3375 1075 2522 
Q 1259 2794 1537 2939 
Q 1816 3084 2150 3084 
Q 2853 3084 3261 2657 
Q 3669 2231 3669 1497 
Q 3669 778 3244 343 
Q 2819 -91 2113 -91 
Q 1303 -91 875 529 
Q 447 1150 447 2328 
Q 447 3434 972 4092 
Q 1497 4750 2381 4750 
Q 2619 4750 2861 4703 
Q 3103 4656 3366 4563 
z
" transform="scale(0.015625)"/>
       </defs>
       <use xlink:href="#DejaVuSans-36"/>
       <use xlink:href="#DejaVuSans-30" x="63.623047"/>
      </g>
     </g>
    </g>
    <g id="ytick_5">
     <g id="line2d_15">
      <path d="M 57.6 65.664 
L 219.927273 65.664 
" clip-path="url(#p8246cbebd7)" style="fill: none; stroke: #b0b0b0; stroke-width: 0.8; stroke-linecap: square"/>
     </g>
     <g id="line2d_16">
      <g>
       <use xlink:href="#m1f705ae233" x="57.6" y="65.664" style="stroke: #000000; stroke-width: 0.8"/>
      </g>
     </g>
     <g id="text_8">
      <!-- 80 -->
      <g transform="translate(37.875 69.463219)scale(0.1 -0.1)">
       <defs>
        <path id="DejaVuSans-38" d="M 2034 2216 
Q 1584 2216 1326 1975 
Q 1069 1734 1069 1313 
Q 1069 891 1326 650 
Q 1584 409 2034 409 
Q 2484 409 2743 651 
Q 3003 894 3003 1313 
Q 3003 1734 2745 1975 
Q 2488 2216 2034 2216 
z
M 1403 2484 
Q 997 2584 770 2862 
Q 544 3141 544 3541 
Q 544 4100 942 4425 
Q 1341 4750 2034 4750 
Q 2731 4750 3128 4425 
Q 3525 4100 3525 3541 
Q 3525 3141 3298 2862 
Q 3072 2584 2669 2484 
Q 3125 2378 3379 2068 
Q 3634 1759 3634 1313 
Q 3634 634 3220 271 
Q 2806 -91 2034 -91 
Q 1263 -91 848 271 
Q 434 634 434 1313 
Q 434 1759 690 2068 
Q 947 2378 1403 2484 
z
M 1172 3481 
Q 1172 3119 1398 2916 
Q 1625 2713 2034 2713 
Q 2441 2713 2670 2916 
Q 2900 3119 2900 3481 
Q 2900 3844 2670 4047 
Q 2441 4250 2034 4250 
Q 1625 4250 1398 4047 
Q 1172 3844 1172 3481 
z
" transform="scale(0.015625)"/>
       </defs>
       <use xlink:href="#DejaVuSans-38"/>
       <use xlink:href="#DejaVuSans-30" x="63.623047"/>
      </g>
     </g>
    </g>
    <g id="ytick_6">
     <g id="line2d_17">
      <path d="M 57.6 41.472 
L 219.927273 41.472 
" clip-path="url(#p8246cbebd7)" style="fill: none; stroke: #b0b0b0; stroke-width: 0.8; stroke-linecap: square"/>
     </g>
     <g id="line2d_18">
      <g>
       <use xlink:href="#m1f705ae233" x="57.6" y="41.472" style="stroke: #000000; stroke-width: 0.8"/>
      </g>
     </g>
     <g id="text_9">
      <!-- 100 -->
      <g transform="translate(31.5125 45.271219)scale(0.1 -0.1)">
       <defs>
        <path id="DejaVuSans-31" d="M 794 531 
L 1825 531 
L 1825 4091 
L 703 3866 
L 703 4441 
L 1819 4666 
L 2450 4666 
L 2450 531 
L 3481 531 
L 3481 0 
L 794 0 
L 794 531 
z
" transform="scale(0.015625)"/>
       </defs>
       <use xlink:href="#DejaVuSans-31"/>
       <use xlink:href="#DejaVuSans-30" x="63.623047"/>
       <use xlink:href="#DejaVuSans-30" x="127.246094"/>
      </g>
     </g>
    </g>
    <g id="text_10">
     <!-- CPU load % -->
     <g transform="translate(25.432812 130.73325)rotate(-90)scale(0.1 -0.1)">
      <defs>
       <path id="DejaVuSans-43" d="M 4122 4306 
L 4122 3641 
Q 3803 3938 3442 4084 
Q 3081 4231 2675 4231 
Q 1875 4231 1450 3742 
Q 1025 3253 1025 2328 
Q 1025 1406 1450 917 
Q 1875 428 2675 428 
Q 3081 428 3442 575 
Q 3803 722 4122 1019 
L 4122 359 
Q 3791 134 3420 21 
Q 3050 -91 2638 -91 
Q 1578 -91 968 557 
Q 359 1206 359 2328 
Q 359 3453 968 4101 
Q 1578 4750 2638 4750 
Q 3056 4750 3426 4639 
Q 3797 4528 4122 4306 
z
" transform="scale(0.015625)"/>
       <path id="DejaVuSans-50" d="M 1259 4147 
L 1259 2394 
L 2053 2394 
Q 2494 2394 2734 2622 
Q 2975 2850 2975 3272 
Q 2975 3691 2734 3919 
Q 2494 4147 2053 4147 
L 1259 4147 
z
M 628 4666 
L 2053 4666 
Q 2838 4666 3239 4311 
Q 3641 3956 3641 3272 
Q 3641 2581 3239 2228 
Q 2838 1875 2053 1875 
L 1259 1875 
L 1259 0 
L 628 0 
L 628 4666 
z
" transform="scale(0.015625)"/>
       <path id="DejaVuSans-55" d="M 556 4666 
L 1191 4666 
L 1191 1831 
Q 1191 1081 1462 751 
Q 1734 422 2344 422 
Q 2950 422 3222 751 
Q 3494 1081 3494 1831 
L 3494 4666 
L 4128 4666 
L 4128 1753 
Q 4128 841 3676 375 
Q 3225 -91 2344 -91 
Q 1459 -91 1007 375 
Q 556 841 556 1753 
L 556 4666 
z
" transform="scale(0.015625)"/>
       <path id="DejaVuSans-20" transform="scale(0.015625)"/>
       <path id="DejaVuSans-6c" d="M 603 4863 
L 1178 4863 
L 1178 0 
L 603 0 
L 603 4863 
z
" transform="scale(0.015625)"/>
       <path id="DejaVuSans-6f" d="M 1959 3097 
Q 1497 3097 1228 2736 
Q 959 2375 959 1747 
Q 959 1119 1226 758 
Q 1494 397 1959 397 
Q 2419 397 2687 759 
Q 2956 1122 2956 1747 
Q 2956 2369 2687 2733 
Q 2419 3097 1959 3097 
z
M 1959 3584 
Q 2709 3584 3137 3096 
Q 3566 2609 3566 1747 
Q 3566 888 3137 398 
Q 2709 -91 1959 -91 
Q 1206 -91 779 398 
Q 353 888 353 1747 
Q 353 2609 779 3096 
Q 1206 3584 1959 3584 
z
" transform="scale(0.015625)"/>
       <path id="DejaVuSans-61" d="M 2194 1759 
Q 1497 1759 1228 1600 
Q 959 1441 959 1056 
Q 959 750 1161 570 
Q 1363 391 1709 391 
Q 2188 391 2477 730 
Q 2766 1069 2766 1631 
L 2766 1759 
L 2194 1759 
z
M 3341 1997 
L 3341 0 
L 2766 0 
L 2766 531 
Q 2569 213 2275 61 
Q 1981 -91 1556 -91 
Q 1019 -91 701 211 
Q 384 513 384 1019 
Q 384 1609 779 1909 
Q 1175 2209 1959 2209 
L 2766 2209 
L 2766 2266 
Q 2766 2663 2505 2880 
Q 2244 3097 1772 3097 
Q 1472 3097 1187 3025 
Q 903 2953 641 2809 
L 641 3341 
Q 956 3463 1253 3523 
Q 1550 3584 1831 3584 
Q 2591 3584 2966 3190 
Q 3341 2797 3341 1997 
z
" transform="scale(0.015625)"/>
       <path id="DejaVuSans-64" d="M 2906 2969 
L 2906 4863 
L 3481 4863 
L 3481 0 
L 2906 0 
L 2906 525 
Q 2725 213 2448 61 
Q 2172 -91 1784 -91 
Q 1150 -91 751 415 
Q 353 922 353 1747 
Q 353 2572 751 3078 
Q 1150 3584 1784 3584 
Q 2172 3584 2448 3432 
Q 2725 3281 2906 2969 
z
M 947 1747 
Q 947 1113 1208 752 
Q 1469 391 1925 391 
Q 2381 391 2643 752 
Q 2906 1113 2906 1747 
Q 2906 2381 2643 2742 
Q 2381 3103 1925 3103 
Q 1469 3103 1208 2742 
Q 947 2381 947 1747 
z
" transform="scale(0.015625)"/>
       <path id="DejaVuSans-25" d="M 4653 2053 
Q 4381 2053 4226 1822 
Q 4072 1591 4072 1178 
Q 4072 772 4226 539 
Q 4381 306 4653 306 
Q 4919 306 5073 539 
Q 5228 772 5228 1178 
Q 5228 1588 5073 1820 
Q 4919 2053 4653 2053 
z
M 4653 2450 
Q 5147 2450 5437 2106 
Q 5728 1763 5728 1178 
Q 5728 594 5436 251 
Q 5144 -91 4653 -91 
Q 4153 -91 3862 251 
Q 3572 594 3572 1178 
Q 3572 1766 3864 2108 
Q 4156 2450 4653 2450 
z
M 1428 4353 
Q 1159 4353 1004 4120 
Q 850 3888 850 3481 
Q 850 3069 1003 2837 
Q 1156 2606 1428 2606 
Q 1700 2606 1854 2837 
Q 2009 3069 2009 3481 
Q 2009 3884 1853 4118 
Q 1697 4353 1428 4353 
z
M 4250 4750 
L 4750 4750 
L 1831 -91 
L 1331 -91 
L 4250 4750 
z
M 1428 4750 
Q 1922 4750 2215 4408 
Q 2509 4066 2509 3481 
Q 2509 2891 2217 2550 
Q 1925 2209 1428 2209 
Q 931 2209 642 2551 
Q 353 2894 353 3481 
Q 353 4063 643 4406 
Q 934 4750 1428 4750 
z
" transform="scale(0.015625)"/>
      </defs>
      <use xlink:href="#DejaVuSans-43"/>
      <use xlink:href="#DejaVuSans-50" x="69.824219"/>
      <use xlink:href="#DejaVuSans-55" x="130.126953"/>
      <use xlink:href="#DejaVuSans-20" x="203.320312"/>
      <use xlink:href="#DejaVuSans-6c" x="235.107422"/>
      <use xlink:href="#DejaVuSans-6f" x="262.890625"/>
      <use xlink:href="#DejaVuSans-61" x="324.072266"/>
      <use xlink:href="#DejaVuSans-64" x="385.351562"/>
      <use xlink:href="#DejaVuSans-20" x="448.828125"/>
      <use xlink:href="#DejaVuSans-25" x="480.615234"/>
     </g>
    </g>
   </g>
   <g id="line2d_19">
    <path d="M 64.978512 132.168437 
L 65.274244 132.095477 
L 65.865708 132.224168 
L 66.16144 131.932303 
L 66.457172 132.309834 
L 67.344368 132.278767 
L 68.231564 132.350661 
L 68.527296 132.226014 
L 69.710224 132.339066 
L 70.301688 132.166294 
L 70.59742 132.18028 
L 70.893152 131.960842 
L 71.188884 132.222657 
L 71.484616 132.232698 
L 71.780347 132.012764 
L 73.850471 132.217328 
L 74.441935 132.223278 
L 74.737667 132.28949 
L 75.033399 132.218366 
L 75.624863 131.58876 
L 76.216327 132.176549 
L 77.103523 132.187582 
L 77.399255 131.927728 
L 77.694987 132.241204 
L 77.990719 132.110247 
L 78.877915 132.369031 
L 79.173646 132.275961 
L 79.469378 132.39816 
L 80.060842 132.362176 
L 80.356574 132.006265 
L 80.652306 132.165948 
L 82.426698 132.203423 
L 82.72243 132.065819 
L 83.018162 132.207421 
L 83.313894 131.822451 
L 83.609626 132.194016 
L 84.792554 132.270973 
L 85.088286 132.040237 
L 86.271214 132.183505 
L 86.566945 132.046314 
L 86.862677 132.216326 
L 87.158409 132.231909 
L 87.454141 131.876553 
L 88.045605 132.113698 
L 88.637069 132.159068 
L 88.932801 132.30415 
L 89.524265 132.32526 
L 89.819997 131.967625 
L 90.115729 132.399319 
L 90.411461 132.390893 
L 90.707193 132.197011 
L 91.890121 132.351376 
L 92.185853 132.141031 
L 92.481585 132.267868 
L 93.368781 132.20178 
L 93.664512 132.286805 
L 94.551708 132.102996 
L 95.143172 132.302269 
L 96.030368 132.296298 
L 96.621832 132.293947 
L 96.917564 132.12818 
L 97.509028 132.282103 
L 98.691956 132.320198 
L 100.170616 132.066707 
L 100.466348 132.139476 
L 100.76208 131.978424 
L 101.057811 132.13411 
L 101.353543 132.062824 
L 101.649275 131.764674 
L 101.945007 132.062016 
L 103.127935 132.327179 
L 103.719399 132.311445 
L 104.015131 132.113355 
L 104.310863 132.281422 
L 105.198059 132.293421 
L 106.676719 132.273455 
L 107.268183 132.290754 
L 108.45111 132.30157 
L 108.746842 132.083763 
L 109.042574 132.317425 
L 109.634038 132.241811 
L 110.225502 132.324288 
L 111.704162 132.325772 
L 111.999894 132.120811 
L 112.295626 132.100472 
L 112.591358 132.262797 
L 113.182822 132.157303 
L 113.478554 131.810514 
L 113.774286 132.260582 
L 114.36575 132.425957 
L 115.548678 132.355608 
L 115.844409 132.124544 
L 116.140141 132.180732 
L 116.435873 132.119695 
L 116.731605 132.293558 
L 117.914533 132.335222 
L 118.210265 132.053937 
L 118.505997 132.319367 
L 120.280389 132.372694 
L 120.576121 132.206083 
L 120.871853 132.332712 
L 122.054781 132.329193 
L 122.646245 132.371735 
L 122.941977 132.041488 
L 123.237708 132.306466 
L 123.53344 132.243172 
L 123.829172 132.399734 
L 124.124904 132.192445 
L 125.0121 132.247876 
L 125.307832 131.816162 
L 125.603564 132.147855 
L 126.49076 132.289398 
L 127.082224 132.169063 
L 127.377956 132.260028 
L 127.673688 131.953796 
L 127.96942 132.216105 
L 128.856616 132.28647 
L 130.926739 132.31006 
L 131.813935 132.330695 
L 132.109667 132.280232 
L 132.405399 131.956322 
L 132.701131 132.261793 
L 133.292595 132.411796 
L 133.884059 132.403508 
L 134.475523 132.384235 
L 135.066987 132.093269 
L 136.249915 132.152926 
L 136.545647 131.906377 
L 136.841379 131.988986 
L 137.137111 131.358448 
L 137.432843 132.101985 
L 137.728575 131.860311 
L 138.320038 132.044676 
L 139.207234 132.255208 
L 139.502966 131.958865 
L 139.798698 132.279124 
L 140.981626 132.330806 
L 141.57309 132.293777 
L 141.868822 131.918317 
L 142.164554 132.245698 
L 142.460286 132.383035 
L 143.938946 132.433125 
L 144.234678 132.049163 
L 144.53041 132.352798 
L 145.121873 132.264345 
L 145.713337 132.336758 
L 146.304801 132.304505 
L 146.600533 131.948014 
L 146.896265 132.221054 
L 148.079193 132.149752 
L 148.374925 132.229258 
L 148.670657 131.972634 
L 148.966389 131.112529 
L 149.262121 132.054232 
L 149.853585 132.321356 
L 150.445049 132.216603 
L 150.740781 132.328356 
L 151.036513 132.296956 
L 151.332245 132.015126 
L 151.627977 132.337199 
L 151.923709 132.105229 
L 153.402368 132.179945 
L 153.6981 131.955132 
L 153.993832 132.233288 
L 155.472492 132.269524 
L 155.768224 130.644885 
L 156.063956 131.785934 
L 156.359688 132.217808 
L 156.65542 132.141345 
L 157.246884 132.20007 
L 157.838348 132.157741 
L 158.13408 132.201898 
L 158.429812 131.793402 
L 158.725544 132.099636 
L 159.021276 132.075532 
L 159.61274 132.284068 
L 159.908471 132.331118 
L 160.204203 132.251928 
L 160.499935 132.310086 
L 160.795667 131.523357 
L 161.387131 131.796249 
L 162.274327 132.117627 
L 163.161523 131.938105 
L 163.457255 132.208473 
L 164.640183 132.409685 
L 165.231647 132.287919 
L 165.527379 131.957284 
L 166.414575 132.263722 
L 166.710307 132.23216 
L 167.006039 132.347316 
L 167.30177 132.242609 
L 167.597502 132.286235 
L 167.893234 131.94573 
L 168.188966 132.215099 
L 168.78043 132.209022 
L 169.963358 132.176025 
L 170.25909 132.028367 
L 170.554822 132.185725 
L 172.329214 132.270327 
L 172.624946 131.478686 
L 172.920678 132.122689 
L 173.21641 131.879915 
L 173.807874 132.097885 
L 174.990801 132.195595 
L 175.286533 132.064843 
L 175.582265 132.224314 
L 177.060925 132.278157 
L 177.356657 131.927707 
L 177.652389 132.178817 
L 178.243853 132.212146 
L 179.131049 132.269979 
L 179.722513 132.339615 
L 180.018245 132.122546 
L 181.201173 132.266885 
L 181.792637 132.239608 
L 182.088368 131.894533 
L 182.679832 132.245133 
L 184.454224 132.235058 
L 184.749956 132.018735 
L 185.34142 132.1542 
L 185.932884 131.954271 
L 186.228616 132.119745 
L 186.524348 132.146102 
L 186.82008 131.843139 
L 187.115812 132.151228 
L 188.29874 132.310563 
L 189.777399 132.046775 
L 190.960327 132.425742 
L 191.256059 132.422556 
L 191.551791 132.030829 
L 191.847523 132.344833 
L 193.030451 132.423396 
L 195.987771 132.156918 
L 196.283503 131.617636 
L 196.579235 132.236472 
L 197.170698 132.428047 
L 197.46643 132.417171 
L 198.057894 132.083154 
L 198.649358 132.326063 
L 198.94509 132.251296 
L 199.240822 132.372394 
L 201.015214 132.328831 
L 201.310946 132.149553 
L 203.085338 132.277901 
L 203.676802 132.139822 
L 204.268265 132.268816 
L 205.746925 132.295705 
L 206.042657 132.014967 
L 206.338389 132.110318 
L 207.521317 132.07537 
L 208.112781 132.067883 
L 208.408513 131.924105 
L 208.704245 132.206722 
L 209.295709 132.258519 
L 210.478637 131.902889 
L 211.070101 132.287091 
L 212.54876 132.192159 
L 212.54876 132.192159 
" clip-path="url(#p8246cbebd7)" style="fill: none; stroke: #1f77b4; stroke-width: 1.5; stroke-linecap: square"/>
   </g>
   <g id="patch_3">
    <path d="M 57.6 162.432 
L 57.6 41.472 
" style="fill: none; stroke: #000000; stroke-width: 0.8; stroke-linejoin: miter; stroke-linecap: square"/>
   </g>
   <g id="patch_4">
    <path d="M 219.927273 162.432 
L 219.927273 41.472 
" style="fill: none; stroke: #000000; stroke-width: 0.8; stroke-linejoin: miter; stroke-linecap: square"/>
   </g>
   <g id="patch_5">
    <path d="M 57.6 162.432 
L 219.927273 162.432 
" style="fill: none; stroke: #000000; stroke-width: 0.8; stroke-linejoin: miter; stroke-linecap: square"/>
   </g>
   <g id="patch_6">
    <path d="M 57.6 41.472 
L 219.927273 41.472 
" style="fill: none; stroke: #000000; stroke-width: 0.8; stroke-linejoin: miter; stroke-linecap: square"/>
   </g>
  </g>
  <g id="axes_2">
   <g id="patch_7">
    <path d="M 252.392727 162.432 
L 414.72 162.432 
L 414.72 41.472 
L 252.392727 41.472 
z
" style="fill: #ffffff"/>
   </g>
   <g id="PolyCollection_1">
    <path d="M 344.822541 156.933818 
L 322.290186 156.933818 
L 317.735269 155.823074 
L 312.45372 154.712331 
L 306.398807 153.601587 
L 299.459291 152.490843 
L 291.628739 151.380099 
L 283.2054 150.269355 
L 274.875583 149.158612 
L 267.598326 148.047868 
L 262.336719 146.937124 
L 259.77124 145.82638 
L 260.123334 144.715636 
L 263.138038 143.604893 
L 268.194147 142.494149 
L 274.478007 141.383405 
L 281.166927 140.272661 
L 287.586822 139.161917 
L 293.317936 138.051174 
L 298.229089 136.94043 
L 302.433042 135.829686 
L 306.172614 134.718942 
L 309.669998 133.608198 
L 312.99929 132.497455 
L 316.051861 131.386711 
L 318.624025 130.275967 
L 320.574438 129.165223 
L 321.940271 128.054479 
L 322.929109 126.943736 
L 323.801156 125.832992 
L 324.735467 124.722248 
L 325.768374 123.611504 
L 326.82329 122.50076 
L 327.789924 121.390017 
L 328.597675 120.279273 
L 329.24858 119.168529 
L 329.80278 118.057785 
L 330.333171 116.947041 
L 330.880654 115.836298 
L 331.437062 114.725554 
L 331.959703 113.61481 
L 332.399039 112.504066 
L 332.719219 111.393322 
L 332.90602 110.282579 
L 332.968382 109.171835 
L 332.937486 108.061091 
L 332.860092 106.950347 
L 332.783317 105.839603 
L 332.736958 104.72886 
L 332.725445 103.618116 
L 332.735887 102.507372 
L 332.755481 101.396628 
L 332.783876 100.285884 
L 332.831326 99.17514 
L 332.905979 98.064397 
L 333.001894 96.953653 
L 333.097776 95.842909 
L 333.167922 94.732165 
L 333.19811 93.621421 
L 333.195405 92.510678 
L 333.184557 91.399934 
L 333.192952 90.28919 
L 333.234546 89.178446 
L 333.303764 88.067702 
L 333.382123 86.956959 
L 333.450586 85.846215 
L 333.498088 84.735471 
L 333.521992 83.624727 
L 333.523291 82.513983 
L 333.502107 81.40324 
L 333.457427 80.292496 
L 333.391355 79.181752 
L 333.314422 78.071008 
L 333.246528 76.960264 
L 333.210175 75.849521 
L 333.218931 74.738777 
L 333.269457 73.628033 
L 333.343564 72.517289 
L 333.41868 71.406545 
L 333.478655 70.295802 
L 333.518105 69.185058 
L 333.539932 68.074314 
L 333.550208 66.96357 
L 333.554352 65.852826 
L 333.55579 64.742083 
L 333.556221 63.631339 
L 333.556332 62.520595 
L 333.556354 61.409851 
L 333.556344 60.299107 
L 333.556274 59.188364 
L 333.555987 58.07762 
L 333.554984 56.966876 
L 333.551959 55.856132 
L 333.544095 54.745388 
L 333.526551 53.634645 
L 333.493169 52.523901 
L 333.439514 51.413157 
L 333.367888 50.302413 
L 333.291171 49.191669 
L 333.230868 48.080926 
L 333.207861 46.970182 
L 333.904867 46.970182 
L 333.904867 46.970182 
L 333.881859 48.080926 
L 333.821557 49.191669 
L 333.74484 50.302413 
L 333.673213 51.413157 
L 333.619558 52.523901 
L 333.586177 53.634645 
L 333.568633 54.745388 
L 333.560768 55.856132 
L 333.557743 56.966876 
L 333.55674 58.07762 
L 333.556454 59.188364 
L 333.556383 60.299107 
L 333.556373 61.409851 
L 333.556395 62.520595 
L 333.556506 63.631339 
L 333.556937 64.742083 
L 333.558375 65.852826 
L 333.56252 66.96357 
L 333.572795 68.074314 
L 333.594623 69.185058 
L 333.634072 70.295802 
L 333.694047 71.406545 
L 333.769164 72.517289 
L 333.84327 73.628033 
L 333.893796 74.738777 
L 333.902553 75.849521 
L 333.866199 76.960264 
L 333.798305 78.071008 
L 333.721372 79.181752 
L 333.6553 80.292496 
L 333.610621 81.40324 
L 333.589436 82.513983 
L 333.590735 83.624727 
L 333.61464 84.735471 
L 333.662141 85.846215 
L 333.730604 86.956959 
L 333.808963 88.067702 
L 333.878181 89.178446 
L 333.919775 90.28919 
L 333.92817 91.399934 
L 333.917322 92.510678 
L 333.914617 93.621421 
L 333.944805 94.732165 
L 334.014951 95.842909 
L 334.110833 96.953653 
L 334.206748 98.064397 
L 334.281401 99.17514 
L 334.328851 100.285884 
L 334.357246 101.396628 
L 334.37684 102.507372 
L 334.387282 103.618116 
L 334.375769 104.72886 
L 334.32941 105.839603 
L 334.252635 106.950347 
L 334.175241 108.061091 
L 334.144346 109.171835 
L 334.206707 110.282579 
L 334.393509 111.393322 
L 334.713688 112.504066 
L 335.153024 113.61481 
L 335.675665 114.725554 
L 336.232074 115.836298 
L 336.779556 116.947041 
L 337.309948 118.057785 
L 337.864147 119.168529 
L 338.515052 120.279273 
L 339.322803 121.390017 
L 340.289438 122.50076 
L 341.344354 123.611504 
L 342.377261 124.722248 
L 343.311571 125.832992 
L 344.183618 126.943736 
L 345.172456 128.054479 
L 346.538289 129.165223 
L 348.488703 130.275967 
L 351.060866 131.386711 
L 354.113438 132.497455 
L 357.44273 133.608198 
L 360.940113 134.718942 
L 364.679685 135.829686 
L 368.883639 136.94043 
L 373.794791 138.051174 
L 379.525905 139.161917 
L 385.9458 140.272661 
L 392.63472 141.383405 
L 398.91858 142.494149 
L 403.974689 143.604893 
L 406.989393 144.715636 
L 407.341488 145.82638 
L 404.776009 146.937124 
L 399.514401 148.047868 
L 392.237144 149.158612 
L 383.907327 150.269355 
L 375.483988 151.380099 
L 367.653437 152.490843 
L 360.71392 153.601587 
L 354.659007 154.712331 
L 349.377458 155.823074 
L 344.822541 156.933818 
z
" clip-path="url(#p1dfa2da332)" style="fill: #1f77b4; fill-opacity: 0.3"/>
   </g>
   <g id="matplotlib.axis_3">
    <g id="xtick_4">
     <g id="line2d_20">
      <path d="M 274.528264 162.432 
L 274.528264 41.472 
" clip-path="url(#p1dfa2da332)" style="fill: none; stroke: #b0b0b0; stroke-width: 0.8; stroke-linecap: square"/>
     </g>
     <g id="line2d_21">
      <g>
       <use xlink:href="#m25322a5ed5" x="274.528264" y="162.432" style="stroke: #000000; stroke-width: 0.8"/>
      </g>
     </g>
     <g id="text_11">
      <!-- 0.8 -->
      <g transform="translate(266.576702 177.030437)scale(0.1 -0.1)">
       <defs>
        <path id="DejaVuSans-2e" d="M 684 794 
L 1344 794 
L 1344 0 
L 684 0 
L 684 794 
z
" transform="scale(0.015625)"/>
       </defs>
       <use xlink:href="#DejaVuSans-30"/>
       <use xlink:href="#DejaVuSans-2e" x="63.623047"/>
       <use xlink:href="#DejaVuSans-38" x="95.410156"/>
      </g>
     </g>
    </g>
    <g id="xtick_5">
     <g id="line2d_22">
      <path d="M 333.556364 162.432 
L 333.556364 41.472 
" clip-path="url(#p1dfa2da332)" style="fill: none; stroke: #b0b0b0; stroke-width: 0.8; stroke-linecap: square"/>
     </g>
     <g id="line2d_23">
      <g>
       <use xlink:href="#m25322a5ed5" x="333.556364" y="162.432" style="stroke: #000000; stroke-width: 0.8"/>
      </g>
     </g>
     <g id="text_12">
      <!-- 1.0 -->
      <g transform="translate(325.604801 177.030437)scale(0.1 -0.1)">
       <use xlink:href="#DejaVuSans-31"/>
       <use xlink:href="#DejaVuSans-2e" x="63.623047"/>
       <use xlink:href="#DejaVuSans-30" x="95.410156"/>
      </g>
     </g>
    </g>
    <g id="xtick_6">
     <g id="line2d_24">
      <path d="M 392.584463 162.432 
L 392.584463 41.472 
" clip-path="url(#p1dfa2da332)" style="fill: none; stroke: #b0b0b0; stroke-width: 0.8; stroke-linecap: square"/>
     </g>
     <g id="line2d_25">
      <g>
       <use xlink:href="#m25322a5ed5" x="392.584463" y="162.432" style="stroke: #000000; stroke-width: 0.8"/>
      </g>
     </g>
     <g id="text_13">
      <!-- 1.2 -->
      <g transform="translate(384.6329 177.030437)scale(0.1 -0.1)">
       <use xlink:href="#DejaVuSans-31"/>
       <use xlink:href="#DejaVuSans-2e" x="63.623047"/>
       <use xlink:href="#DejaVuSans-32" x="95.410156"/>
      </g>
     </g>
    </g>
   </g>
   <g id="matplotlib.axis_4">
    <g id="ytick_7">
     <g id="line2d_26">
      <path d="M 252.392727 141.364004 
L 414.72 141.364004 
" clip-path="url(#p1dfa2da332)" style="fill: none; stroke: #b0b0b0; stroke-width: 0.8; stroke-linecap: square"/>
     </g>
     <g id="line2d_27">
      <g>
       <use xlink:href="#m1f705ae233" x="252.392727" y="141.364004" style="stroke: #000000; stroke-width: 0.8"/>
      </g>
     </g>
     <g id="text_14">
      <!-- 25.0 -->
      <g transform="translate(223.127102 145.163222)scale(0.1 -0.1)">
       <defs>
        <path id="DejaVuSans-35" d="M 691 4666 
L 3169 4666 
L 3169 4134 
L 1269 4134 
L 1269 2991 
Q 1406 3038 1543 3061 
Q 1681 3084 1819 3084 
Q 2600 3084 3056 2656 
Q 3513 2228 3513 1497 
Q 3513 744 3044 326 
Q 2575 -91 1722 -91 
Q 1428 -91 1123 -41 
Q 819 9 494 109 
L 494 744 
Q 775 591 1075 516 
Q 1375 441 1709 441 
Q 2250 441 2565 725 
Q 2881 1009 2881 1497 
Q 2881 1984 2565 2268 
Q 2250 2553 1709 2553 
Q 1456 2553 1204 2497 
Q 953 2441 691 2322 
L 691 4666 
z
" transform="scale(0.015625)"/>
       </defs>
       <use xlink:href="#DejaVuSans-32"/>
       <use xlink:href="#DejaVuSans-35" x="63.623047"/>
       <use xlink:href="#DejaVuSans-2e" x="127.246094"/>
       <use xlink:href="#DejaVuSans-30" x="159.033203"/>
      </g>
     </g>
    </g>
    <g id="ytick_8">
     <g id="line2d_28">
      <path d="M 252.392727 104.463449 
L 414.72 104.463449 
" clip-path="url(#p1dfa2da332)" style="fill: none; stroke: #b0b0b0; stroke-width: 0.8; stroke-linecap: square"/>
     </g>
     <g id="line2d_29">
      <g>
       <use xlink:href="#m1f705ae233" x="252.392727" y="104.463449" style="stroke: #000000; stroke-width: 0.8"/>
      </g>
     </g>
     <g id="text_15">
      <!-- 25.5 -->
      <g transform="translate(223.127102 108.262668)scale(0.1 -0.1)">
       <use xlink:href="#DejaVuSans-32"/>
       <use xlink:href="#DejaVuSans-35" x="63.623047"/>
       <use xlink:href="#DejaVuSans-2e" x="127.246094"/>
       <use xlink:href="#DejaVuSans-35" x="159.033203"/>
      </g>
     </g>
    </g>
    <g id="ytick_9">
     <g id="line2d_30">
      <path d="M 252.392727 67.562894 
L 414.72 67.562894 
" clip-path="url(#p1dfa2da332)" style="fill: none; stroke: #b0b0b0; stroke-width: 0.8; stroke-linecap: square"/>
     </g>
     <g id="line2d_31">
      <g>
       <use xlink:href="#m1f705ae233" x="252.392727" y="67.562894" style="stroke: #000000; stroke-width: 0.8"/>
      </g>
     </g>
     <g id="text_16">
      <!-- 26.0 -->
      <g transform="translate(223.127102 71.362113)scale(0.1 -0.1)">
       <use xlink:href="#DejaVuSans-32"/>
       <use xlink:href="#DejaVuSans-36" x="63.623047"/>
       <use xlink:href="#DejaVuSans-2e" x="127.246094"/>
       <use xlink:href="#DejaVuSans-30" x="159.033203"/>
      </g>
     </g>
    </g>
   </g>
   <g id="LineCollection_1">
    <path d="M 296.663802 46.970182 
L 370.448926 46.970182 
" clip-path="url(#p1dfa2da332)" style="fill: none; stroke: #1f77b4; stroke-width: 1.5"/>
   </g>
   <g id="LineCollection_2">
    <path d="M 296.663802 156.933818 
L 370.448926 156.933818 
" clip-path="url(#p1dfa2da332)" style="fill: none; stroke: #1f77b4; stroke-width: 1.5"/>
   </g>
   <g id="LineCollection_3">
    <path d="M 333.556364 156.933818 
L 333.556364 46.970182 
" clip-path="url(#p1dfa2da332)" style="fill: none; stroke: #1f77b4; stroke-width: 1.5"/>
   </g>
   <g id="LineCollection_4">
    <path d="M 296.663802 143.981448 
L 370.448926 143.981448 
" clip-path="url(#p1dfa2da332)" style="fill: none; stroke: #1f77b4; stroke-width: 1.5"/>
   </g>
   <g id="patch_8">
    <path d="M 252.392727 162.432 
L 252.392727 41.472 
" style="fill: none; stroke: #000000; stroke-width: 0.8; stroke-linejoin: miter; stroke-linecap: square"/>
   </g>
   <g id="patch_9">
    <path d="M 414.72 162.432 
L 414.72 41.472 
" style="fill: none; stroke: #000000; stroke-width: 0.8; stroke-linejoin: miter; stroke-linecap: square"/>
   </g>
   <g id="patch_10">
    <path d="M 252.392727 162.432 
L 414.72 162.432 
" style="fill: none; stroke: #000000; stroke-width: 0.8; stroke-linejoin: miter; stroke-linecap: square"/>
   </g>
   <g id="patch_11">
    <path d="M 252.392727 41.472 
L 414.72 41.472 
" style="fill: none; stroke: #000000; stroke-width: 0.8; stroke-linejoin: miter; stroke-linecap: square"/>
   </g>
  </g>
  <g id="axes_3">
   <g id="patch_12">
    <path d="M 57.6 307.584 
L 219.927273 307.584 
L 219.927273 186.624 
L 57.6 186.624 
z
" style="fill: #ffffff"/>
   </g>
   <g id="matplotlib.axis_5">
    <g id="xtick_7">
     <g id="line2d_32">
      <path d="M 64.978512 307.584 
L 64.978512 186.624 
" clip-path="url(#p012ed0e0dd)" style="fill: none; stroke: #b0b0b0; stroke-width: 0.8; stroke-linecap: square"/>
     </g>
     <g id="line2d_33">
      <g>
       <use xlink:href="#m25322a5ed5" x="64.978512" y="307.584" style="stroke: #000000; stroke-width: 0.8"/>
      </g>
     </g>
     <g id="text_17">
      <!-- 0 -->
      <g transform="translate(61.797262 322.182437)scale(0.1 -0.1)">
       <use xlink:href="#DejaVuSans-30"/>
      </g>
     </g>
    </g>
    <g id="xtick_8">
     <g id="line2d_34">
      <path d="M 124.124904 307.584 
L 124.124904 186.624 
" clip-path="url(#p012ed0e0dd)" style="fill: none; stroke: #b0b0b0; stroke-width: 0.8; stroke-linecap: square"/>
     </g>
     <g id="line2d_35">
      <g>
       <use xlink:href="#m25322a5ed5" x="124.124904" y="307.584" style="stroke: #000000; stroke-width: 0.8"/>
      </g>
     </g>
     <g id="text_18">
      <!-- 200 -->
      <g transform="translate(114.581154 322.182437)scale(0.1 -0.1)">
       <use xlink:href="#DejaVuSans-32"/>
       <use xlink:href="#DejaVuSans-30" x="63.623047"/>
       <use xlink:href="#DejaVuSans-30" x="127.246094"/>
      </g>
     </g>
    </g>
    <g id="xtick_9">
     <g id="line2d_36">
      <path d="M 183.271296 307.584 
L 183.271296 186.624 
" clip-path="url(#p012ed0e0dd)" style="fill: none; stroke: #b0b0b0; stroke-width: 0.8; stroke-linecap: square"/>
     </g>
     <g id="line2d_37">
      <g>
       <use xlink:href="#m25322a5ed5" x="183.271296" y="307.584" style="stroke: #000000; stroke-width: 0.8"/>
      </g>
     </g>
     <g id="text_19">
      <!-- 400 -->
      <g transform="translate(173.727546 322.182437)scale(0.1 -0.1)">
       <use xlink:href="#DejaVuSans-34"/>
       <use xlink:href="#DejaVuSans-30" x="63.623047"/>
       <use xlink:href="#DejaVuSans-30" x="127.246094"/>
      </g>
     </g>
    </g>
   </g>
   <g id="matplotlib.axis_6">
    <g id="ytick_10">
     <g id="line2d_38">
      <path d="M 57.6 307.584 
L 219.927273 307.584 
" clip-path="url(#p012ed0e0dd)" style="fill: none; stroke: #b0b0b0; stroke-width: 0.8; stroke-linecap: square"/>
     </g>
     <g id="line2d_39">
      <g>
       <use xlink:href="#m1f705ae233" x="57.6" y="307.584" style="stroke: #000000; stroke-width: 0.8"/>
      </g>
     </g>
     <g id="text_20">
      <!-- 0 -->
      <g transform="translate(44.2375 311.383219)scale(0.1 -0.1)">
       <use xlink:href="#DejaVuSans-30"/>
      </g>
     </g>
    </g>
    <g id="ytick_11">
     <g id="line2d_40">
      <path d="M 57.6 283.392 
L 219.927273 283.392 
" clip-path="url(#p012ed0e0dd)" style="fill: none; stroke: #b0b0b0; stroke-width: 0.8; stroke-linecap: square"/>
     </g>
     <g id="line2d_41">
      <g>
       <use xlink:href="#m1f705ae233" x="57.6" y="283.392" style="stroke: #000000; stroke-width: 0.8"/>
      </g>
     </g>
     <g id="text_21">
      <!-- 2 -->
      <g transform="translate(44.2375 287.191219)scale(0.1 -0.1)">
       <use xlink:href="#DejaVuSans-32"/>
      </g>
     </g>
    </g>
    <g id="ytick_12">
     <g id="line2d_42">
      <path d="M 57.6 259.2 
L 219.927273 259.2 
" clip-path="url(#p012ed0e0dd)" style="fill: none; stroke: #b0b0b0; stroke-width: 0.8; stroke-linecap: square"/>
     </g>
     <g id="line2d_43">
      <g>
       <use xlink:href="#m1f705ae233" x="57.6" y="259.2" style="stroke: #000000; stroke-width: 0.8"/>
      </g>
     </g>
     <g id="text_22">
      <!-- 4 -->
      <g transform="translate(44.2375 262.999219)scale(0.1 -0.1)">
       <use xlink:href="#DejaVuSans-34"/>
      </g>
     </g>
    </g>
    <g id="ytick_13">
     <g id="line2d_44">
      <path d="M 57.6 235.008 
L 219.927273 235.008 
" clip-path="url(#p012ed0e0dd)" style="fill: none; stroke: #b0b0b0; stroke-width: 0.8; stroke-linecap: square"/>
     </g>
     <g id="line2d_45">
      <g>
       <use xlink:href="#m1f705ae233" x="57.6" y="235.008" style="stroke: #000000; stroke-width: 0.8"/>
      </g>
     </g>
     <g id="text_23">
      <!-- 6 -->
      <g transform="translate(44.2375 238.807219)scale(0.1 -0.1)">
       <use xlink:href="#DejaVuSans-36"/>
      </g>
     </g>
    </g>
    <g id="ytick_14">
     <g id="line2d_46">
      <path d="M 57.6 210.816 
L 219.927273 210.816 
" clip-path="url(#p012ed0e0dd)" style="fill: none; stroke: #b0b0b0; stroke-width: 0.8; stroke-linecap: square"/>
     </g>
     <g id="line2d_47">
      <g>
       <use xlink:href="#m1f705ae233" x="57.6" y="210.816" style="stroke: #000000; stroke-width: 0.8"/>
      </g>
     </g>
     <g id="text_24">
      <!-- 8 -->
      <g transform="translate(44.2375 214.615219)scale(0.1 -0.1)">
       <use xlink:href="#DejaVuSans-38"/>
      </g>
     </g>
    </g>
    <g id="ytick_15">
     <g id="line2d_48">
      <path d="M 57.6 186.624 
L 219.927273 186.624 
" clip-path="url(#p012ed0e0dd)" style="fill: none; stroke: #b0b0b0; stroke-width: 0.8; stroke-linecap: square"/>
     </g>
     <g id="line2d_49">
      <g>
       <use xlink:href="#m1f705ae233" x="57.6" y="186.624" style="stroke: #000000; stroke-width: 0.8"/>
      </g>
     </g>
     <g id="text_25">
      <!-- 10 -->
      <g transform="translate(37.875 190.423219)scale(0.1 -0.1)">
       <use xlink:href="#DejaVuSans-31"/>
       <use xlink:href="#DejaVuSans-30" x="63.623047"/>
      </g>
     </g>
    </g>
    <g id="text_26">
     <!-- xruns per period -->
     <g transform="translate(31.795312 288.474312)rotate(-90)scale(0.1 -0.1)">
      <defs>
       <path id="DejaVuSans-78" d="M 3513 3500 
L 2247 1797 
L 3578 0 
L 2900 0 
L 1881 1375 
L 863 0 
L 184 0 
L 1544 1831 
L 300 3500 
L 978 3500 
L 1906 2253 
L 2834 3500 
L 3513 3500 
z
" transform="scale(0.015625)"/>
       <path id="DejaVuSans-72" d="M 2631 2963 
Q 2534 3019 2420 3045 
Q 2306 3072 2169 3072 
Q 1681 3072 1420 2755 
Q 1159 2438 1159 1844 
L 1159 0 
L 581 0 
L 581 3500 
L 1159 3500 
L 1159 2956 
Q 1341 3275 1631 3429 
Q 1922 3584 2338 3584 
Q 2397 3584 2469 3576 
Q 2541 3569 2628 3553 
L 2631 2963 
z
" transform="scale(0.015625)"/>
       <path id="DejaVuSans-75" d="M 544 1381 
L 544 3500 
L 1119 3500 
L 1119 1403 
Q 1119 906 1312 657 
Q 1506 409 1894 409 
Q 2359 409 2629 706 
Q 2900 1003 2900 1516 
L 2900 3500 
L 3475 3500 
L 3475 0 
L 2900 0 
L 2900 538 
Q 2691 219 2414 64 
Q 2138 -91 1772 -91 
Q 1169 -91 856 284 
Q 544 659 544 1381 
z
M 1991 3584 
L 1991 3584 
z
" transform="scale(0.015625)"/>
       <path id="DejaVuSans-6e" d="M 3513 2113 
L 3513 0 
L 2938 0 
L 2938 2094 
Q 2938 2591 2744 2837 
Q 2550 3084 2163 3084 
Q 1697 3084 1428 2787 
Q 1159 2491 1159 1978 
L 1159 0 
L 581 0 
L 581 3500 
L 1159 3500 
L 1159 2956 
Q 1366 3272 1645 3428 
Q 1925 3584 2291 3584 
Q 2894 3584 3203 3211 
Q 3513 2838 3513 2113 
z
" transform="scale(0.015625)"/>
       <path id="DejaVuSans-73" d="M 2834 3397 
L 2834 2853 
Q 2591 2978 2328 3040 
Q 2066 3103 1784 3103 
Q 1356 3103 1142 2972 
Q 928 2841 928 2578 
Q 928 2378 1081 2264 
Q 1234 2150 1697 2047 
L 1894 2003 
Q 2506 1872 2764 1633 
Q 3022 1394 3022 966 
Q 3022 478 2636 193 
Q 2250 -91 1575 -91 
Q 1294 -91 989 -36 
Q 684 19 347 128 
L 347 722 
Q 666 556 975 473 
Q 1284 391 1588 391 
Q 1994 391 2212 530 
Q 2431 669 2431 922 
Q 2431 1156 2273 1281 
Q 2116 1406 1581 1522 
L 1381 1569 
Q 847 1681 609 1914 
Q 372 2147 372 2553 
Q 372 3047 722 3315 
Q 1072 3584 1716 3584 
Q 2034 3584 2315 3537 
Q 2597 3491 2834 3397 
z
" transform="scale(0.015625)"/>
       <path id="DejaVuSans-70" d="M 1159 525 
L 1159 -1331 
L 581 -1331 
L 581 3500 
L 1159 3500 
L 1159 2969 
Q 1341 3281 1617 3432 
Q 1894 3584 2278 3584 
Q 2916 3584 3314 3078 
Q 3713 2572 3713 1747 
Q 3713 922 3314 415 
Q 2916 -91 2278 -91 
Q 1894 -91 1617 61 
Q 1341 213 1159 525 
z
M 3116 1747 
Q 3116 2381 2855 2742 
Q 2594 3103 2138 3103 
Q 1681 3103 1420 2742 
Q 1159 2381 1159 1747 
Q 1159 1113 1420 752 
Q 1681 391 2138 391 
Q 2594 391 2855 752 
Q 3116 1113 3116 1747 
z
" transform="scale(0.015625)"/>
       <path id="DejaVuSans-65" d="M 3597 1894 
L 3597 1613 
L 953 1613 
Q 991 1019 1311 708 
Q 1631 397 2203 397 
Q 2534 397 2845 478 
Q 3156 559 3463 722 
L 3463 178 
Q 3153 47 2828 -22 
Q 2503 -91 2169 -91 
Q 1331 -91 842 396 
Q 353 884 353 1716 
Q 353 2575 817 3079 
Q 1281 3584 2069 3584 
Q 2775 3584 3186 3129 
Q 3597 2675 3597 1894 
z
M 3022 2063 
Q 3016 2534 2758 2815 
Q 2500 3097 2075 3097 
Q 1594 3097 1305 2825 
Q 1016 2553 972 2059 
L 3022 2063 
z
" transform="scale(0.015625)"/>
       <path id="DejaVuSans-69" d="M 603 3500 
L 1178 3500 
L 1178 0 
L 603 0 
L 603 3500 
z
M 603 4863 
L 1178 4863 
L 1178 4134 
L 603 4134 
L 603 4863 
z
" transform="scale(0.015625)"/>
      </defs>
      <use xlink:href="#DejaVuSans-78"/>
      <use xlink:href="#DejaVuSans-72" x="59.179688"/>
      <use xlink:href="#DejaVuSans-75" x="100.292969"/>
      <use xlink:href="#DejaVuSans-6e" x="163.671875"/>
      <use xlink:href="#DejaVuSans-73" x="227.050781"/>
      <use xlink:href="#DejaVuSans-20" x="279.150391"/>
      <use xlink:href="#DejaVuSans-70" x="310.9375"/>
      <use xlink:href="#DejaVuSans-65" x="374.414062"/>
      <use xlink:href="#DejaVuSans-72" x="435.9375"/>
      <use xlink:href="#DejaVuSans-20" x="477.050781"/>
      <use xlink:href="#DejaVuSans-70" x="508.837891"/>
      <use xlink:href="#DejaVuSans-65" x="572.314453"/>
      <use xlink:href="#DejaVuSans-72" x="633.837891"/>
      <use xlink:href="#DejaVuSans-69" x="674.951172"/>
      <use xlink:href="#DejaVuSans-6f" x="702.734375"/>
      <use xlink:href="#DejaVuSans-64" x="763.916016"/>
     </g>
    </g>
   </g>
   <g id="line2d_50">
    <path d="M 64.978512 307.584 
L 212.54876 307.584 
L 212.54876 307.584 
" clip-path="url(#p012ed0e0dd)" style="fill: none; stroke: #1f77b4; stroke-width: 1.5; stroke-linecap: square"/>
   </g>
   <g id="patch_13">
    <path d="M 57.6 307.584 
L 57.6 186.624 
" style="fill: none; stroke: #000000; stroke-width: 0.8; stroke-linejoin: miter; stroke-linecap: square"/>
   </g>
   <g id="patch_14">
    <path d="M 219.927273 307.584 
L 219.927273 186.624 
" style="fill: none; stroke: #000000; stroke-width: 0.8; stroke-linejoin: miter; stroke-linecap: square"/>
   </g>
   <g id="patch_15">
    <path d="M 57.6 307.584 
L 219.927273 307.584 
" style="fill: none; stroke: #000000; stroke-width: 0.8; stroke-linejoin: miter; stroke-linecap: square"/>
   </g>
   <g id="patch_16">
    <path d="M 57.6 186.624 
L 219.927273 186.624 
" style="fill: none; stroke: #000000; stroke-width: 0.8; stroke-linejoin: miter; stroke-linecap: square"/>
   </g>
  </g>
  <g id="axes_4">
   <g id="patch_17">
    <path d="M 252.392727 307.584 
L 414.72 307.584 
L 414.72 186.624 
L 252.392727 186.624 
z
" style="fill: #ffffff"/>
   </g>
   <g id="PolyCollection_2">
    <path d="M 407.341488 247.104 
L 259.77124 247.104 
L 259.77124 247.104 
L 259.77124 247.104 
L 259.77124 247.104 
L 259.77124 247.104 
L 259.77124 247.104 
L 259.77124 247.104 
L 259.77124 247.104 
L 259.77124 247.104 
L 259.77124 247.104 
L 259.77124 247.104 
L 259.77124 247.104 
L 259.77124 247.104 
L 259.77124 247.104 
L 259.77124 247.104 
L 259.77124 247.104 
L 259.77124 247.104 
L 259.77124 247.104 
L 259.77124 247.104 
L 259.77124 247.104 
L 259.77124 247.104 
L 259.77124 247.104 
L 259.77124 247.104 
L 259.77124 247.104 
L 259.77124 247.104 
L 259.77124 247.104 
L 259.77124 247.104 
L 259.77124 247.104 
L 259.77124 247.104 
L 259.77124 247.104 
L 259.77124 247.104 
L 259.77124 247.104 
L 259.77124 247.104 
L 259.77124 247.104 
L 259.77124 247.104 
L 259.77124 247.104 
L 259.77124 247.104 
L 259.77124 247.104 
L 259.77124 247.104 
L 259.77124 247.104 
L 259.77124 247.104 
L 259.77124 247.104 
L 259.77124 247.104 
L 259.77124 247.104 
L 259.77124 247.104 
L 259.77124 247.104 
L 259.77124 247.104 
L 259.77124 247.104 
L 259.77124 247.104 
L 259.77124 247.104 
L 259.77124 247.104 
L 259.77124 247.104 
L 259.77124 247.104 
L 259.77124 247.104 
L 259.77124 247.104 
L 259.77124 247.104 
L 259.77124 247.104 
L 259.77124 247.104 
L 259.77124 247.104 
L 259.77124 247.104 
L 259.77124 247.104 
L 259.77124 247.104 
L 259.77124 247.104 
L 259.77124 247.104 
L 259.77124 247.104 
L 259.77124 247.104 
L 259.77124 247.104 
L 259.77124 247.104 
L 259.77124 247.104 
L 259.77124 247.104 
L 259.77124 247.104 
L 259.77124 247.104 
L 259.77124 247.104 
L 259.77124 247.104 
L 259.77124 247.104 
L 259.77124 247.104 
L 259.77124 247.104 
L 259.77124 247.104 
L 259.77124 247.104 
L 259.77124 247.104 
L 259.77124 247.104 
L 259.77124 247.104 
L 259.77124 247.104 
L 259.77124 247.104 
L 259.77124 247.104 
L 259.77124 247.104 
L 259.77124 247.104 
L 259.77124 247.104 
L 259.77124 247.104 
L 259.77124 247.104 
L 259.77124 247.104 
L 259.77124 247.104 
L 259.77124 247.104 
L 259.77124 247.104 
L 259.77124 247.104 
L 259.77124 247.104 
L 259.77124 247.104 
L 259.77124 247.104 
L 259.77124 247.104 
L 259.77124 247.104 
L 407.341488 247.104 
L 407.341488 247.104 
L 407.341488 247.104 
L 407.341488 247.104 
L 407.341488 247.104 
L 407.341488 247.104 
L 407.341488 247.104 
L 407.341488 247.104 
L 407.341488 247.104 
L 407.341488 247.104 
L 407.341488 247.104 
L 407.341488 247.104 
L 407.341488 247.104 
L 407.341488 247.104 
L 407.341488 247.104 
L 407.341488 247.104 
L 407.341488 247.104 
L 407.341488 247.104 
L 407.341488 247.104 
L 407.341488 247.104 
L 407.341488 247.104 
L 407.341488 247.104 
L 407.341488 247.104 
L 407.341488 247.104 
L 407.341488 247.104 
L 407.341488 247.104 
L 407.341488 247.104 
L 407.341488 247.104 
L 407.341488 247.104 
L 407.341488 247.104 
L 407.341488 247.104 
L 407.341488 247.104 
L 407.341488 247.104 
L 407.341488 247.104 
L 407.341488 247.104 
L 407.341488 247.104 
L 407.341488 247.104 
L 407.341488 247.104 
L 407.341488 247.104 
L 407.341488 247.104 
L 407.341488 247.104 
L 407.341488 247.104 
L 407.341488 247.104 
L 407.341488 247.104 
L 407.341488 247.104 
L 407.341488 247.104 
L 407.341488 247.104 
L 407.341488 247.104 
L 407.341488 247.104 
L 407.341488 247.104 
L 407.341488 247.104 
L 407.341488 247.104 
L 407.341488 247.104 
L 407.341488 247.104 
L 407.341488 247.104 
L 407.341488 247.104 
L 407.341488 247.104 
L 407.341488 247.104 
L 407.341488 247.104 
L 407.341488 247.104 
L 407.341488 247.104 
L 407.341488 247.104 
L 407.341488 247.104 
L 407.341488 247.104 
L 407.341488 247.104 
L 407.341488 247.104 
L 407.341488 247.104 
L 407.341488 247.104 
L 407.341488 247.104 
L 407.341488 247.104 
L 407.341488 247.104 
L 407.341488 247.104 
L 407.341488 247.104 
L 407.341488 247.104 
L 407.341488 247.104 
L 407.341488 247.104 
L 407.341488 247.104 
L 407.341488 247.104 
L 407.341488 247.104 
L 407.341488 247.104 
L 407.341488 247.104 
L 407.341488 247.104 
L 407.341488 247.104 
L 407.341488 247.104 
L 407.341488 247.104 
L 407.341488 247.104 
L 407.341488 247.104 
L 407.341488 247.104 
L 407.341488 247.104 
L 407.341488 247.104 
L 407.341488 247.104 
L 407.341488 247.104 
L 407.341488 247.104 
L 407.341488 247.104 
L 407.341488 247.104 
L 407.341488 247.104 
L 407.341488 247.104 
L 407.341488 247.104 
L 407.341488 247.104 
L 407.341488 247.104 
L 407.341488 247.104 
z
" clip-path="url(#p8d0b60708e)" style="fill: #1f77b4; fill-opacity: 0.3"/>
   </g>
   <g id="matplotlib.axis_7">
    <g id="xtick_10">
     <g id="line2d_51">
      <path d="M 274.528264 307.584 
L 274.528264 186.624 
" clip-path="url(#p8d0b60708e)" style="fill: none; stroke: #b0b0b0; stroke-width: 0.8; stroke-linecap: square"/>
     </g>
     <g id="line2d_52">
      <g>
       <use xlink:href="#m25322a5ed5" x="274.528264" y="307.584" style="stroke: #000000; stroke-width: 0.8"/>
      </g>
     </g>
     <g id="text_27">
      <!-- 0.8 -->
      <g transform="translate(266.576702 322.182437)scale(0.1 -0.1)">
       <use xlink:href="#DejaVuSans-30"/>
       <use xlink:href="#DejaVuSans-2e" x="63.623047"/>
       <use xlink:href="#DejaVuSans-38" x="95.410156"/>
      </g>
     </g>
    </g>
    <g id="xtick_11">
     <g id="line2d_53">
      <path d="M 333.556364 307.584 
L 333.556364 186.624 
" clip-path="url(#p8d0b60708e)" style="fill: none; stroke: #b0b0b0; stroke-width: 0.8; stroke-linecap: square"/>
     </g>
     <g id="line2d_54">
      <g>
       <use xlink:href="#m25322a5ed5" x="333.556364" y="307.584" style="stroke: #000000; stroke-width: 0.8"/>
      </g>
     </g>
     <g id="text_28">
      <!-- 1.0 -->
      <g transform="translate(325.604801 322.182437)scale(0.1 -0.1)">
       <use xlink:href="#DejaVuSans-31"/>
       <use xlink:href="#DejaVuSans-2e" x="63.623047"/>
       <use xlink:href="#DejaVuSans-30" x="95.410156"/>
      </g>
     </g>
    </g>
    <g id="xtick_12">
     <g id="line2d_55">
      <path d="M 392.584463 307.584 
L 392.584463 186.624 
" clip-path="url(#p8d0b60708e)" style="fill: none; stroke: #b0b0b0; stroke-width: 0.8; stroke-linecap: square"/>
     </g>
     <g id="line2d_56">
      <g>
       <use xlink:href="#m25322a5ed5" x="392.584463" y="307.584" style="stroke: #000000; stroke-width: 0.8"/>
      </g>
     </g>
     <g id="text_29">
      <!-- 1.2 -->
      <g transform="translate(384.6329 322.182437)scale(0.1 -0.1)">
       <use xlink:href="#DejaVuSans-31"/>
       <use xlink:href="#DejaVuSans-2e" x="63.623047"/>
       <use xlink:href="#DejaVuSans-32" x="95.410156"/>
      </g>
     </g>
    </g>
   </g>
   <g id="matplotlib.axis_8">
    <g id="ytick_16">
     <g id="line2d_57">
      <path d="M 252.392727 291.089455 
L 414.72 291.089455 
" clip-path="url(#p8d0b60708e)" style="fill: none; stroke: #b0b0b0; stroke-width: 0.8; stroke-linecap: square"/>
     </g>
     <g id="line2d_58">
      <g>
       <use xlink:href="#m1f705ae233" x="252.392727" y="291.089455" style="stroke: #000000; stroke-width: 0.8"/>
      </g>
     </g>
     <g id="text_30">
      <!-- 0.04 -->
      <g transform="translate(214.747415 294.888673)scale(0.1 -0.1)">
       <defs>
        <path id="DejaVuSans-2212" d="M 678 2272 
L 4684 2272 
L 4684 1741 
L 678 1741 
L 678 2272 
z
" transform="scale(0.015625)"/>
       </defs>
       <use xlink:href="#DejaVuSans-2212"/>
       <use xlink:href="#DejaVuSans-30" x="83.789062"/>
       <use xlink:href="#DejaVuSans-2e" x="147.412109"/>
       <use xlink:href="#DejaVuSans-30" x="179.199219"/>
       <use xlink:href="#DejaVuSans-34" x="242.822266"/>
      </g>
     </g>
    </g>
    <g id="ytick_17">
     <g id="line2d_59">
      <path d="M 252.392727 269.096727 
L 414.72 269.096727 
" clip-path="url(#p8d0b60708e)" style="fill: none; stroke: #b0b0b0; stroke-width: 0.8; stroke-linecap: square"/>
     </g>
     <g id="line2d_60">
      <g>
       <use xlink:href="#m1f705ae233" x="252.392727" y="269.096727" style="stroke: #000000; stroke-width: 0.8"/>
      </g>
     </g>
     <g id="text_31">
      <!-- 0.02 -->
      <g transform="translate(214.747415 272.895946)scale(0.1 -0.1)">
       <use xlink:href="#DejaVuSans-2212"/>
       <use xlink:href="#DejaVuSans-30" x="83.789062"/>
       <use xlink:href="#DejaVuSans-2e" x="147.412109"/>
       <use xlink:href="#DejaVuSans-30" x="179.199219"/>
       <use xlink:href="#DejaVuSans-32" x="242.822266"/>
      </g>
     </g>
    </g>
    <g id="ytick_18">
     <g id="line2d_61">
      <path d="M 252.392727 247.104 
L 414.72 247.104 
" clip-path="url(#p8d0b60708e)" style="fill: none; stroke: #b0b0b0; stroke-width: 0.8; stroke-linecap: square"/>
     </g>
     <g id="line2d_62">
      <g>
       <use xlink:href="#m1f705ae233" x="252.392727" y="247.104" style="stroke: #000000; stroke-width: 0.8"/>
      </g>
     </g>
     <g id="text_32">
      <!-- 0.00 -->
      <g transform="translate(223.127102 250.903219)scale(0.1 -0.1)">
       <use xlink:href="#DejaVuSans-30"/>
       <use xlink:href="#DejaVuSans-2e" x="63.623047"/>
       <use xlink:href="#DejaVuSans-30" x="95.410156"/>
       <use xlink:href="#DejaVuSans-30" x="159.033203"/>
      </g>
     </g>
    </g>
    <g id="ytick_19">
     <g id="line2d_63">
      <path d="M 252.392727 225.111273 
L 414.72 225.111273 
" clip-path="url(#p8d0b60708e)" style="fill: none; stroke: #b0b0b0; stroke-width: 0.8; stroke-linecap: square"/>
     </g>
     <g id="line2d_64">
      <g>
       <use xlink:href="#m1f705ae233" x="252.392727" y="225.111273" style="stroke: #000000; stroke-width: 0.8"/>
      </g>
     </g>
     <g id="text_33">
      <!-- 0.02 -->
      <g transform="translate(223.127102 228.910491)scale(0.1 -0.1)">
       <use xlink:href="#DejaVuSans-30"/>
       <use xlink:href="#DejaVuSans-2e" x="63.623047"/>
       <use xlink:href="#DejaVuSans-30" x="95.410156"/>
       <use xlink:href="#DejaVuSans-32" x="159.033203"/>
      </g>
     </g>
    </g>
    <g id="ytick_20">
     <g id="line2d_65">
      <path d="M 252.392727 203.118545 
L 414.72 203.118545 
" clip-path="url(#p8d0b60708e)" style="fill: none; stroke: #b0b0b0; stroke-width: 0.8; stroke-linecap: square"/>
     </g>
     <g id="line2d_66">
      <g>
       <use xlink:href="#m1f705ae233" x="252.392727" y="203.118545" style="stroke: #000000; stroke-width: 0.8"/>
      </g>
     </g>
     <g id="text_34">
      <!-- 0.04 -->
      <g transform="translate(223.127102 206.917764)scale(0.1 -0.1)">
       <use xlink:href="#DejaVuSans-30"/>
       <use xlink:href="#DejaVuSans-2e" x="63.623047"/>
       <use xlink:href="#DejaVuSans-30" x="95.410156"/>
       <use xlink:href="#DejaVuSans-34" x="159.033203"/>
      </g>
     </g>
    </g>
   </g>
   <g id="LineCollection_5">
    <path d="M 296.663802 247.104 
L 370.448926 247.104 
" clip-path="url(#p8d0b60708e)" style="fill: none; stroke: #1f77b4; stroke-width: 1.5"/>
   </g>
   <g id="LineCollection_6">
    <path d="M 296.663802 247.104 
L 370.448926 247.104 
" clip-path="url(#p8d0b60708e)" style="fill: none; stroke: #1f77b4; stroke-width: 1.5"/>
   </g>
   <g id="LineCollection_7">
    <path d="M 333.556364 247.104 
L 333.556364 247.104 
" clip-path="url(#p8d0b60708e)" style="fill: none; stroke: #1f77b4; stroke-width: 1.5"/>
   </g>
   <g id="LineCollection_8">
    <path d="M 296.663802 247.104 
L 370.448926 247.104 
" clip-path="url(#p8d0b60708e)" style="fill: none; stroke: #1f77b4; stroke-width: 1.5"/>
   </g>
   <g id="patch_18">
    <path d="M 252.392727 307.584 
L 252.392727 186.624 
" style="fill: none; stroke: #000000; stroke-width: 0.8; stroke-linejoin: miter; stroke-linecap: square"/>
   </g>
   <g id="patch_19">
    <path d="M 414.72 307.584 
L 414.72 186.624 
" style="fill: none; stroke: #000000; stroke-width: 0.8; stroke-linejoin: miter; stroke-linecap: square"/>
   </g>
   <g id="patch_20">
    <path d="M 252.392727 307.584 
L 414.72 307.584 
" style="fill: none; stroke: #000000; stroke-width: 0.8; stroke-linejoin: miter; stroke-linecap: square"/>
   </g>
   <g id="patch_21">
    <path d="M 252.392727 186.624 
L 414.72 186.624 
" style="fill: none; stroke: #000000; stroke-width: 0.8; stroke-linejoin: miter; stroke-linecap: square"/>
   </g>
  </g>
 </g>
 <defs>
  <clipPath id="p8246cbebd7">
   <rect x="57.6" y="41.472" width="162.327273" height="120.96"/>
  </clipPath>
  <clipPath id="p1dfa2da332">
   <rect x="252.392727" y="41.472" width="162.327273" height="120.96"/>
  </clipPath>
  <clipPath id="p012ed0e0dd">
   <rect x="57.6" y="186.624" width="162.327273" height="120.96"/>
  </clipPath>
  <clipPath id="p8d0b60708e">
   <rect x="252.392727" y="186.624" width="162.327273" height="120.96"/>
  </clipPath>
 </defs>
</svg>
