<?xml version="1.0" encoding="utf-8" standalone="no"?>
<!DOCTYPE svg PUBLIC "-//W3C//DTD SVG 1.1//EN"
  "http://www.w3.org/Graphics/SVG/1.1/DTD/svg11.dtd">
<svg xmlns:xlink="http://www.w3.org/1999/xlink" width="460.8pt" height="345.6pt" viewBox="0 0 460.8 345.6" xmlns="http://www.w3.org/2000/svg" version="1.1">
 <metadata>
  <rdf:RDF xmlns:dc="http://purl.org/dc/elements/1.1/" xmlns:cc="http://creativecommons.org/ns#" xmlns:rdf="http://www.w3.org/1999/02/22-rdf-syntax-ns#">
   <cc:Work>
    <dc:type rdf:resource="http://purl.org/dc/dcmitype/StillImage"/>
    <dc:date>2022-03-17T02:12:08.408928</dc:date>
    <dc:format>image/svg+xml</dc:format>
    <dc:creator>
     <cc:Agent>
      <dc:title>Matplotlib v3.5.1, https://matplotlib.org/</dc:title>
     </cc:Agent>
    </dc:creator>
   </cc:Work>
  </rdf:RDF>
 </metadata>
 <defs>
  <style type="text/css">*{stroke-linejoin: round; stroke-linecap: butt}</style>
 </defs>
 <g id="figure_1">
  <g id="patch_1">
   <path d="M 0 345.6 
L 460.8 345.6 
L 460.8 0 
L 0 0 
z
" style="fill: #ffffff"/>
  </g>
  <g id="axes_1">
   <g id="patch_2">
    <path d="M 57.6 162.432 
L 219.927273 162.432 
L 219.927273 41.472 
L 57.6 41.472 
z
" style="fill: #ffffff"/>
   </g>
   <g id="matplotlib.axis_1">
    <g id="xtick_1">
     <g id="line2d_1">
      <path d="M 64.978512 162.432 
L 64.978512 41.472 
" clip-path="url(#p21c059ea32)" style="fill: none; stroke: #b0b0b0; stroke-width: 0.8; stroke-linecap: square"/>
     </g>
     <g id="line2d_2">
      <defs>
       <path id="m2e569338cc" d="M 0 0 
L 0 3.5 
" style="stroke: #000000; stroke-width: 0.8"/>
      </defs>
      <g>
       <use xlink:href="#m2e569338cc" x="64.978512" y="162.432" style="stroke: #000000; stroke-width: 0.8"/>
      </g>
     </g>
     <g id="text_1">
      <!-- 0 -->
      <g transform="translate(61.797262 177.030437)scale(0.1 -0.1)">
       <defs>
        <path id="DejaVuSans-30" d="M 2034 4250 
Q 1547 4250 1301 3770 
Q 1056 3291 1056 2328 
Q 1056 1369 1301 889 
Q 1547 409 2034 409 
Q 2525 409 2770 889 
Q 3016 1369 3016 2328 
Q 3016 3291 2770 3770 
Q 2525 4250 2034 4250 
z
M 2034 4750 
Q 2819 4750 3233 4129 
Q 3647 3509 3647 2328 
Q 3647 1150 3233 529 
Q 2819 -91 2034 -91 
Q 1250 -91 836 529 
Q 422 1150 422 2328 
Q 422 3509 836 4129 
Q 1250 4750 2034 4750 
z
" transform="scale(0.015625)"/>
       </defs>
       <use xlink:href="#DejaVuSans-30"/>
      </g>
     </g>
    </g>
    <g id="xtick_2">
     <g id="line2d_3">
      <path d="M 124.124904 162.432 
L 124.124904 41.472 
" clip-path="url(#p21c059ea32)" style="fill: none; stroke: #b0b0b0; stroke-width: 0.8; stroke-linecap: square"/>
     </g>
     <g id="line2d_4">
      <g>
       <use xlink:href="#m2e569338cc" x="124.124904" y="162.432" style="stroke: #000000; stroke-width: 0.8"/>
      </g>
     </g>
     <g id="text_2">
      <!-- 200 -->
      <g transform="translate(114.581154 177.030437)scale(0.1 -0.1)">
       <defs>
        <path id="DejaVuSans-32" d="M 1228 531 
L 3431 531 
L 3431 0 
L 469 0 
L 469 531 
Q 828 903 1448 1529 
Q 2069 2156 2228 2338 
Q 2531 2678 2651 2914 
Q 2772 3150 2772 3378 
Q 2772 3750 2511 3984 
Q 2250 4219 1831 4219 
Q 1534 4219 1204 4116 
Q 875 4013 500 3803 
L 500 4441 
Q 881 4594 1212 4672 
Q 1544 4750 1819 4750 
Q 2544 4750 2975 4387 
Q 3406 4025 3406 3419 
Q 3406 3131 3298 2873 
Q 3191 2616 2906 2266 
Q 2828 2175 2409 1742 
Q 1991 1309 1228 531 
z
" transform="scale(0.015625)"/>
       </defs>
       <use xlink:href="#DejaVuSans-32"/>
       <use xlink:href="#DejaVuSans-30" x="63.623047"/>
       <use xlink:href="#DejaVuSans-30" x="127.246094"/>
      </g>
     </g>
    </g>
    <g id="xtick_3">
     <g id="line2d_5">
      <path d="M 183.271296 162.432 
L 183.271296 41.472 
" clip-path="url(#p21c059ea32)" style="fill: none; stroke: #b0b0b0; stroke-width: 0.8; stroke-linecap: square"/>
     </g>
     <g id="line2d_6">
      <g>
       <use xlink:href="#m2e569338cc" x="183.271296" y="162.432" style="stroke: #000000; stroke-width: 0.8"/>
      </g>
     </g>
     <g id="text_3">
      <!-- 400 -->
      <g transform="translate(173.727546 177.030437)scale(0.1 -0.1)">
       <defs>
        <path id="DejaVuSans-34" d="M 2419 4116 
L 825 1625 
L 2419 1625 
L 2419 4116 
z
M 2253 4666 
L 3047 4666 
L 3047 1625 
L 3713 1625 
L 3713 1100 
L 3047 1100 
L 3047 0 
L 2419 0 
L 2419 1100 
L 313 1100 
L 313 1709 
L 2253 4666 
z
" transform="scale(0.015625)"/>
       </defs>
       <use xlink:href="#DejaVuSans-34"/>
       <use xlink:href="#DejaVuSans-30" x="63.623047"/>
       <use xlink:href="#DejaVuSans-30" x="127.246094"/>
      </g>
     </g>
    </g>
   </g>
   <g id="matplotlib.axis_2">
    <g id="ytick_1">
     <g id="line2d_7">
      <path d="M 57.6 162.432 
L 219.927273 162.432 
" clip-path="url(#p21c059ea32)" style="fill: none; stroke: #b0b0b0; stroke-width: 0.8; stroke-linecap: square"/>
     </g>
     <g id="line2d_8">
      <defs>
       <path id="m560dd2f590" d="M 0 0 
L -3.5 0 
" style="stroke: #000000; stroke-width: 0.8"/>
      </defs>
      <g>
       <use xlink:href="#m560dd2f590" x="57.6" y="162.432" style="stroke: #000000; stroke-width: 0.8"/>
      </g>
     </g>
     <g id="text_4">
      <!-- 0 -->
      <g transform="translate(44.2375 166.231219)scale(0.1 -0.1)">
       <use xlink:href="#DejaVuSans-30"/>
      </g>
     </g>
    </g>
    <g id="ytick_2">
     <g id="line2d_9">
      <path d="M 57.6 138.24 
L 219.927273 138.24 
" clip-path="url(#p21c059ea32)" style="fill: none; stroke: #b0b0b0; stroke-width: 0.8; stroke-linecap: square"/>
     </g>
     <g id="line2d_10">
      <g>
       <use xlink:href="#m560dd2f590" x="57.6" y="138.24" style="stroke: #000000; stroke-width: 0.8"/>
      </g>
     </g>
     <g id="text_5">
      <!-- 20 -->
      <g transform="translate(37.875 142.039219)scale(0.1 -0.1)">
       <use xlink:href="#DejaVuSans-32"/>
       <use xlink:href="#DejaVuSans-30" x="63.623047"/>
      </g>
     </g>
    </g>
    <g id="ytick_3">
     <g id="line2d_11">
      <path d="M 57.6 114.048 
L 219.927273 114.048 
" clip-path="url(#p21c059ea32)" style="fill: none; stroke: #b0b0b0; stroke-width: 0.8; stroke-linecap: square"/>
     </g>
     <g id="line2d_12">
      <g>
       <use xlink:href="#m560dd2f590" x="57.6" y="114.048" style="stroke: #000000; stroke-width: 0.8"/>
      </g>
     </g>
     <g id="text_6">
      <!-- 40 -->
      <g transform="translate(37.875 117.847219)scale(0.1 -0.1)">
       <use xlink:href="#DejaVuSans-34"/>
       <use xlink:href="#DejaVuSans-30" x="63.623047"/>
      </g>
     </g>
    </g>
    <g id="ytick_4">
     <g id="line2d_13">
      <path d="M 57.6 89.856 
L 219.927273 89.856 
" clip-path="url(#p21c059ea32)" style="fill: none; stroke: #b0b0b0; stroke-width: 0.8; stroke-linecap: square"/>
     </g>
     <g id="line2d_14">
      <g>
       <use xlink:href="#m560dd2f590" x="57.6" y="89.856" style="stroke: #000000; stroke-width: 0.8"/>
      </g>
     </g>
     <g id="text_7">
      <!-- 60 -->
      <g transform="translate(37.875 93.655219)scale(0.1 -0.1)">
       <defs>
        <path id="DejaVuSans-36" d="M 2113 2584 
Q 1688 2584 1439 2293 
Q 1191 2003 1191 1497 
Q 1191 994 1439 701 
Q 1688 409 2113 409 
Q 2538 409 2786 701 
Q 3034 994 3034 1497 
Q 3034 2003 2786 2293 
Q 2538 2584 2113 2584 
z
M 3366 4563 
L 3366 3988 
Q 3128 4100 2886 4159 
Q 2644 4219 2406 4219 
Q 1781 4219 1451 3797 
Q 1122 3375 1075 2522 
Q 1259 2794 1537 2939 
Q 1816 3084 2150 3084 
Q 2853 3084 3261 2657 
Q 3669 2231 3669 1497 
Q 3669 778 3244 343 
Q 2819 -91 2113 -91 
Q 1303 -91 875 529 
Q 447 1150 447 2328 
Q 447 3434 972 4092 
Q 1497 4750 2381 4750 
Q 2619 4750 2861 4703 
Q 3103 4656 3366 4563 
z
" transform="scale(0.015625)"/>
       </defs>
       <use xlink:href="#DejaVuSans-36"/>
       <use xlink:href="#DejaVuSans-30" x="63.623047"/>
      </g>
     </g>
    </g>
    <g id="ytick_5">
     <g id="line2d_15">
      <path d="M 57.6 65.664 
L 219.927273 65.664 
" clip-path="url(#p21c059ea32)" style="fill: none; stroke: #b0b0b0; stroke-width: 0.8; stroke-linecap: square"/>
     </g>
     <g id="line2d_16">
      <g>
       <use xlink:href="#m560dd2f590" x="57.6" y="65.664" style="stroke: #000000; stroke-width: 0.8"/>
      </g>
     </g>
     <g id="text_8">
      <!-- 80 -->
      <g transform="translate(37.875 69.463219)scale(0.1 -0.1)">
       <defs>
        <path id="DejaVuSans-38" d="M 2034 2216 
Q 1584 2216 1326 1975 
Q 1069 1734 1069 1313 
Q 1069 891 1326 650 
Q 1584 409 2034 409 
Q 2484 409 2743 651 
Q 3003 894 3003 1313 
Q 3003 1734 2745 1975 
Q 2488 2216 2034 2216 
z
M 1403 2484 
Q 997 2584 770 2862 
Q 544 3141 544 3541 
Q 544 4100 942 4425 
Q 1341 4750 2034 4750 
Q 2731 4750 3128 4425 
Q 3525 4100 3525 3541 
Q 3525 3141 3298 2862 
Q 3072 2584 2669 2484 
Q 3125 2378 3379 2068 
Q 3634 1759 3634 1313 
Q 3634 634 3220 271 
Q 2806 -91 2034 -91 
Q 1263 -91 848 271 
Q 434 634 434 1313 
Q 434 1759 690 2068 
Q 947 2378 1403 2484 
z
M 1172 3481 
Q 1172 3119 1398 2916 
Q 1625 2713 2034 2713 
Q 2441 2713 2670 2916 
Q 2900 3119 2900 3481 
Q 2900 3844 2670 4047 
Q 2441 4250 2034 4250 
Q 1625 4250 1398 4047 
Q 1172 3844 1172 3481 
z
" transform="scale(0.015625)"/>
       </defs>
       <use xlink:href="#DejaVuSans-38"/>
       <use xlink:href="#DejaVuSans-30" x="63.623047"/>
      </g>
     </g>
    </g>
    <g id="ytick_6">
     <g id="line2d_17">
      <path d="M 57.6 41.472 
L 219.927273 41.472 
" clip-path="url(#p21c059ea32)" style="fill: none; stroke: #b0b0b0; stroke-width: 0.8; stroke-linecap: square"/>
     </g>
     <g id="line2d_18">
      <g>
       <use xlink:href="#m560dd2f590" x="57.6" y="41.472" style="stroke: #000000; stroke-width: 0.8"/>
      </g>
     </g>
     <g id="text_9">
      <!-- 100 -->
      <g transform="translate(31.5125 45.271219)scale(0.1 -0.1)">
       <defs>
        <path id="DejaVuSans-31" d="M 794 531 
L 1825 531 
L 1825 4091 
L 703 3866 
L 703 4441 
L 1819 4666 
L 2450 4666 
L 2450 531 
L 3481 531 
L 3481 0 
L 794 0 
L 794 531 
z
" transform="scale(0.015625)"/>
       </defs>
       <use xlink:href="#DejaVuSans-31"/>
       <use xlink:href="#DejaVuSans-30" x="63.623047"/>
       <use xlink:href="#DejaVuSans-30" x="127.246094"/>
      </g>
     </g>
    </g>
    <g id="text_10">
     <!-- CPU load % -->
     <g transform="translate(25.432812 130.73325)rotate(-90)scale(0.1 -0.1)">
      <defs>
       <path id="DejaVuSans-43" d="M 4122 4306 
L 4122 3641 
Q 3803 3938 3442 4084 
Q 3081 4231 2675 4231 
Q 1875 4231 1450 3742 
Q 1025 3253 1025 2328 
Q 1025 1406 1450 917 
Q 1875 428 2675 428 
Q 3081 428 3442 575 
Q 3803 722 4122 1019 
L 4122 359 
Q 3791 134 3420 21 
Q 3050 -91 2638 -91 
Q 1578 -91 968 557 
Q 359 1206 359 2328 
Q 359 3453 968 4101 
Q 1578 4750 2638 4750 
Q 3056 4750 3426 4639 
Q 3797 4528 4122 4306 
z
" transform="scale(0.015625)"/>
       <path id="DejaVuSans-50" d="M 1259 4147 
L 1259 2394 
L 2053 2394 
Q 2494 2394 2734 2622 
Q 2975 2850 2975 3272 
Q 2975 3691 2734 3919 
Q 2494 4147 2053 4147 
L 1259 4147 
z
M 628 4666 
L 2053 4666 
Q 2838 4666 3239 4311 
Q 3641 3956 3641 3272 
Q 3641 2581 3239 2228 
Q 2838 1875 2053 1875 
L 1259 1875 
L 1259 0 
L 628 0 
L 628 4666 
z
" transform="scale(0.015625)"/>
       <path id="DejaVuSans-55" d="M 556 4666 
L 1191 4666 
L 1191 1831 
Q 1191 1081 1462 751 
Q 1734 422 2344 422 
Q 2950 422 3222 751 
Q 3494 1081 3494 1831 
L 3494 4666 
L 4128 4666 
L 4128 1753 
Q 4128 841 3676 375 
Q 3225 -91 2344 -91 
Q 1459 -91 1007 375 
Q 556 841 556 1753 
L 556 4666 
z
" transform="scale(0.015625)"/>
       <path id="DejaVuSans-20" transform="scale(0.015625)"/>
       <path id="DejaVuSans-6c" d="M 603 4863 
L 1178 4863 
L 1178 0 
L 603 0 
L 603 4863 
z
" transform="scale(0.015625)"/>
       <path id="DejaVuSans-6f" d="M 1959 3097 
Q 1497 3097 1228 2736 
Q 959 2375 959 1747 
Q 959 1119 1226 758 
Q 1494 397 1959 397 
Q 2419 397 2687 759 
Q 2956 1122 2956 1747 
Q 2956 2369 2687 2733 
Q 2419 3097 1959 3097 
z
M 1959 3584 
Q 2709 3584 3137 3096 
Q 3566 2609 3566 1747 
Q 3566 888 3137 398 
Q 2709 -91 1959 -91 
Q 1206 -91 779 398 
Q 353 888 353 1747 
Q 353 2609 779 3096 
Q 1206 3584 1959 3584 
z
" transform="scale(0.015625)"/>
       <path id="DejaVuSans-61" d="M 2194 1759 
Q 1497 1759 1228 1600 
Q 959 1441 959 1056 
Q 959 750 1161 570 
Q 1363 391 1709 391 
Q 2188 391 2477 730 
Q 2766 1069 2766 1631 
L 2766 1759 
L 2194 1759 
z
M 3341 1997 
L 3341 0 
L 2766 0 
L 2766 531 
Q 2569 213 2275 61 
Q 1981 -91 1556 -91 
Q 1019 -91 701 211 
Q 384 513 384 1019 
Q 384 1609 779 1909 
Q 1175 2209 1959 2209 
L 2766 2209 
L 2766 2266 
Q 2766 2663 2505 2880 
Q 2244 3097 1772 3097 
Q 1472 3097 1187 3025 
Q 903 2953 641 2809 
L 641 3341 
Q 956 3463 1253 3523 
Q 1550 3584 1831 3584 
Q 2591 3584 2966 3190 
Q 3341 2797 3341 1997 
z
" transform="scale(0.015625)"/>
       <path id="DejaVuSans-64" d="M 2906 2969 
L 2906 4863 
L 3481 4863 
L 3481 0 
L 2906 0 
L 2906 525 
Q 2725 213 2448 61 
Q 2172 -91 1784 -91 
Q 1150 -91 751 415 
Q 353 922 353 1747 
Q 353 2572 751 3078 
Q 1150 3584 1784 3584 
Q 2172 3584 2448 3432 
Q 2725 3281 2906 2969 
z
M 947 1747 
Q 947 1113 1208 752 
Q 1469 391 1925 391 
Q 2381 391 2643 752 
Q 2906 1113 2906 1747 
Q 2906 2381 2643 2742 
Q 2381 3103 1925 3103 
Q 1469 3103 1208 2742 
Q 947 2381 947 1747 
z
" transform="scale(0.015625)"/>
       <path id="DejaVuSans-25" d="M 4653 2053 
Q 4381 2053 4226 1822 
Q 4072 1591 4072 1178 
Q 4072 772 4226 539 
Q 4381 306 4653 306 
Q 4919 306 5073 539 
Q 5228 772 5228 1178 
Q 5228 1588 5073 1820 
Q 4919 2053 4653 2053 
z
M 4653 2450 
Q 5147 2450 5437 2106 
Q 5728 1763 5728 1178 
Q 5728 594 5436 251 
Q 5144 -91 4653 -91 
Q 4153 -91 3862 251 
Q 3572 594 3572 1178 
Q 3572 1766 3864 2108 
Q 4156 2450 4653 2450 
z
M 1428 4353 
Q 1159 4353 1004 4120 
Q 850 3888 850 3481 
Q 850 3069 1003 2837 
Q 1156 2606 1428 2606 
Q 1700 2606 1854 2837 
Q 2009 3069 2009 3481 
Q 2009 3884 1853 4118 
Q 1697 4353 1428 4353 
z
M 4250 4750 
L 4750 4750 
L 1831 -91 
L 1331 -91 
L 4250 4750 
z
M 1428 4750 
Q 1922 4750 2215 4408 
Q 2509 4066 2509 3481 
Q 2509 2891 2217 2550 
Q 1925 2209 1428 2209 
Q 931 2209 642 2551 
Q 353 2894 353 3481 
Q 353 4063 643 4406 
Q 934 4750 1428 4750 
z
" transform="scale(0.015625)"/>
      </defs>
      <use xlink:href="#DejaVuSans-43"/>
      <use xlink:href="#DejaVuSans-50" x="69.824219"/>
      <use xlink:href="#DejaVuSans-55" x="130.126953"/>
      <use xlink:href="#DejaVuSans-20" x="203.320312"/>
      <use xlink:href="#DejaVuSans-6c" x="235.107422"/>
      <use xlink:href="#DejaVuSans-6f" x="262.890625"/>
      <use xlink:href="#DejaVuSans-61" x="324.072266"/>
      <use xlink:href="#DejaVuSans-64" x="385.351562"/>
      <use xlink:href="#DejaVuSans-20" x="448.828125"/>
      <use xlink:href="#DejaVuSans-25" x="480.615234"/>
     </g>
    </g>
   </g>
   <g id="line2d_19">
    <path d="M 64.978512 79.96879 
L 65.274244 80.462802 
L 65.569976 80.317646 
L 66.752904 80.719917 
L 67.048636 80.616336 
L 67.344368 79.803729 
L 67.6401 80.581213 
L 67.935832 80.587654 
L 68.527296 80.992648 
L 68.823028 77.162509 
L 69.11876 76.570315 
L 69.414492 80.789556 
L 69.710224 79.836721 
L 70.005956 80.54321 
L 70.893152 80.956869 
L 71.484616 81.040248 
L 71.780347 80.004172 
L 72.076079 77.798926 
L 72.371811 80.863725 
L 72.667543 81.150409 
L 72.963275 81.061483 
L 73.259007 81.214833 
L 73.554739 81.063864 
L 74.146203 81.349597 
L 74.441935 80.195959 
L 74.737667 80.913808 
L 75.033399 80.982635 
L 75.329131 80.218144 
L 75.624863 80.094233 
L 75.920595 80.787673 
L 76.216327 81.140904 
L 76.512059 81.241771 
L 76.807791 80.675897 
L 77.103523 71.888191 
L 77.399255 68.50415 
L 77.694987 76.661991 
L 77.990719 80.574153 
L 78.286451 78.000606 
L 78.877915 69.361977 
L 79.173646 80.138059 
L 79.469378 81.14478 
L 79.76511 81.165138 
L 80.060842 81.426295 
L 80.948038 81.420989 
L 81.539502 81.299173 
L 82.130966 81.349025 
L 82.426698 81.511668 
L 83.018162 81.616763 
L 83.313894 81.686918 
L 83.609626 81.485847 
L 83.905358 80.553287 
L 84.20109 81.111612 
L 84.792554 81.53869 
L 85.975482 81.625733 
L 86.271214 81.574607 
L 86.566945 81.352698 
L 86.862677 81.523462 
L 87.158409 81.510783 
L 87.454141 80.96474 
L 88.341337 81.211751 
L 88.637069 81.426443 
L 88.932801 81.311502 
L 89.228533 81.513071 
L 89.524265 80.721154 
L 89.819997 81.370795 
L 90.115729 81.548416 
L 90.411461 80.873037 
L 90.707193 73.903505 
L 91.002925 71.410292 
L 91.298657 79.157714 
L 91.594389 80.993875 
L 91.890121 75.54631 
L 92.185853 76.901407 
L 92.481585 84.710189 
L 92.777317 71.660874 
L 93.073049 80.31198 
L 93.368781 81.478446 
L 93.664512 81.374717 
L 94.255976 81.613542 
L 94.551708 81.488007 
L 95.734636 81.428667 
L 96.030368 80.444058 
L 96.3261 81.443913 
L 96.917564 81.385312 
L 97.509028 81.559491 
L 98.100492 81.450917 
L 98.396224 81.121727 
L 98.691956 81.386234 
L 99.28342 81.477274 
L 99.579152 81.47098 
L 99.874884 81.249006 
L 100.170616 80.841272 
L 100.466348 81.204322 
L 100.76208 80.744945 
L 101.057811 81.39645 
L 101.945007 81.512647 
L 102.536471 81.515406 
L 102.832203 81.538136 
L 103.127935 80.287589 
L 103.423667 58.174432 
L 104.015131 79.625849 
L 104.310863 81.109102 
L 104.606595 75.997409 
L 104.902327 57.60124 
L 105.198059 72.934151 
L 105.493791 79.699834 
L 105.789523 81.175068 
L 106.085255 81.438874 
L 107.268183 81.557276 
L 107.563915 81.446958 
L 107.859647 80.576774 
L 108.155379 81.284019 
L 108.746842 81.379978 
L 109.338306 81.438191 
L 109.92977 67.542704 
L 110.225502 78.97486 
L 110.521234 81.175197 
L 110.816966 81.438892 
L 111.40843 81.572392 
L 111.704162 81.522567 
L 111.999894 80.954875 
L 112.295626 81.25255 
L 112.591358 80.921117 
L 112.88709 81.276692 
L 113.182822 81.050667 
L 113.478554 81.389298 
L 113.774286 81.380587 
L 114.070018 81.509933 
L 114.661482 81.387047 
L 114.957214 80.60899 
L 115.252946 81.356777 
L 115.548678 81.348158 
L 115.844409 81.176932 
L 116.435873 81.405245 
L 116.731605 81.274819 
L 117.027337 81.383291 
L 117.323069 80.988504 
L 117.618801 81.035569 
L 117.914533 58.93991 
L 118.210265 76.458964 
L 118.505997 80.36162 
L 118.801729 80.957201 
L 119.097461 78.54758 
L 119.688925 70.640219 
L 119.984657 78.290141 
L 120.280389 78.355978 
L 120.576121 81.063799 
L 120.871853 81.441975 
L 121.167585 81.460893 
L 121.463317 81.616384 
L 121.759049 81.57911 
L 122.054781 80.740755 
L 122.350513 81.24562 
L 122.646245 80.063871 
L 122.941977 81.039095 
L 123.53344 68.914625 
L 123.829172 79.929015 
L 124.124904 80.755678 
L 124.420636 79.860844 
L 124.716368 80.951331 
L 125.0121 81.382552 
L 125.603564 81.354571 
L 126.195028 81.580282 
L 126.49076 81.376102 
L 126.786492 80.613291 
L 127.082224 81.327181 
L 127.377956 81.576988 
L 127.96942 81.576674 
L 128.265152 81.489077 
L 128.856616 81.558291 
L 129.152348 81.373351 
L 129.44808 81.350225 
L 130.039544 81.614954 
L 131.222471 81.607673 
L 131.518203 79.712126 
L 131.813935 81.113237 
L 132.109667 80.92072 
L 132.405399 81.293654 
L 132.701131 80.829847 
L 132.996863 74.850904 
L 133.292595 81.25519 
L 133.884059 81.477357 
L 134.179791 75.20407 
L 134.475523 74.340512 
L 134.771255 77.017234 
L 135.066987 80.800039 
L 135.362719 81.386327 
L 135.658451 81.317833 
L 135.954183 81.564474 
L 136.545647 80.828306 
L 136.841379 80.947492 
L 137.137111 81.342371 
L 137.728575 80.963329 
L 138.024306 81.094816 
L 138.320038 81.34945 
L 138.61577 79.118373 
L 138.911502 59.443242 
L 139.207234 76.62397 
L 139.502966 80.841623 
L 140.09443 81.390074 
L 140.981626 81.398591 
L 141.277358 81.001738 
L 141.57309 81.281094 
L 142.756018 81.42194 
L 143.05175 81.356297 
L 143.347482 81.404821 
L 143.643214 80.889113 
L 144.234678 81.392233 
L 144.826142 81.380245 
L 145.121873 81.498546 
L 145.417605 81.076636 
L 145.713337 81.131657 
L 146.009069 80.957681 
L 146.896265 72.103178 
L 147.191997 79.102546 
L 147.487729 80.969964 
L 147.783461 76.036741 
L 148.079193 74.716823 
L 148.374925 76.843082 
L 148.670657 70.359875 
L 148.966389 79.763695 
L 149.262121 80.882468 
L 149.557853 81.481694 
L 149.853585 81.511225 
L 150.445049 81.340987 
L 150.740781 81.300815 
L 151.332245 81.567279 
L 152.515172 81.583651 
L 152.810904 81.609048 
L 153.106636 81.17552 
L 153.402368 81.524007 
L 153.993832 81.672964 
L 154.289564 81.710949 
L 154.585296 81.60795 
L 155.17676 81.648047 
L 155.472492 80.009211 
L 155.768224 81.457617 
L 156.063956 81.62732 
L 157.542616 81.654369 
L 157.838348 80.994023 
L 158.13408 81.535349 
L 158.725544 81.537028 
L 159.021276 80.355502 
L 159.317008 65.405417 
L 159.61274 63.281437 
L 159.908471 76.615996 
L 160.204203 79.329678 
L 160.499935 77.448058 
L 160.795667 74.768466 
L 161.091399 76.690747 
L 161.387131 80.384922 
L 161.682863 81.135939 
L 162.274327 81.216024 
L 162.570059 80.366428 
L 162.865791 81.12228 
L 163.161523 81.454968 
L 163.457255 81.51357 
L 163.752987 81.441486 
L 164.048719 81.545906 
L 164.344451 81.473887 
L 164.640183 81.595325 
L 164.935915 80.676599 
L 165.231647 81.450299 
L 166.118843 81.565212 
L 167.006039 81.363569 
L 167.30177 79.681617 
L 167.597502 81.104728 
L 168.188966 81.323997 
L 168.484698 81.395103 
L 168.78043 81.290562 
L 169.371894 81.37086 
L 171.442018 81.316522 
L 171.73775 81.382829 
L 172.033482 79.786102 
L 172.329214 81.117795 
L 172.624946 80.473248 
L 173.21641 68.639227 
L 173.807874 80.305465 
L 174.399338 75.925722 
L 174.695069 57.104533 
L 174.990801 73.785168 
L 175.286533 80.53782 
L 175.877997 81.48175 
L 176.469461 81.599284 
L 176.765193 81.174302 
L 177.060925 81.359379 
L 177.356657 81.235053 
L 177.948121 81.27074 
L 178.243853 81.535903 
L 179.131049 81.561133 
L 179.426781 81.084462 
L 179.722513 81.512619 
L 180.018245 81.60017 
L 180.313977 81.469328 
L 180.609709 81.555061 
L 181.496905 81.520491 
L 181.792637 81.277882 
L 182.088368 81.604858 
L 183.86276 81.557183 
L 184.158492 81.220084 
L 184.749956 81.524312 
L 185.045688 80.784941 
L 185.34142 81.32205 
L 185.637152 80.963836 
L 185.932884 81.049504 
L 186.228616 80.521421 
L 186.524348 65.199298 
L 186.82008 70.594482 
L 187.115812 78.318464 
L 187.411544 80.63376 
L 187.707276 75.898295 
L 188.003008 75.34606 
L 188.29874 72.271174 
L 188.594472 81.169937 
L 188.890204 80.820047 
L 189.185936 81.30375 
L 190.368863 81.430947 
L 190.960327 81.425511 
L 191.256059 81.0108 
L 191.551791 81.412665 
L 192.438987 81.591375 
L 192.734719 81.507922 
L 193.326183 81.646073 
L 193.621915 81.03269 
L 193.917647 81.494799 
L 195.692039 81.497623 
L 195.987771 80.883686 
L 196.283503 81.459158 
L 197.170698 81.545999 
L 197.46643 81.530605 
L 197.762162 81.233779 
L 198.057894 81.278132 
L 198.353626 80.629404 
L 198.649358 81.251572 
L 198.94509 81.38605 
L 199.240822 77.67674 
L 199.536554 77.218748 
L 199.832286 81.880117 
L 200.128018 80.903159 
L 200.42375 81.302809 
L 200.719482 74.802261 
L 201.015214 73.320475 
L 201.310946 79.53828 
L 201.606678 81.194577 
L 201.90241 81.53773 
L 202.789606 81.675272 
L 203.085338 79.833998 
L 203.38107 81.118109 
L 203.676802 81.335348 
L 203.972533 81.33414 
L 204.268265 81.19788 
L 204.563997 81.526803 
L 204.859729 81.52254 
L 205.155461 77.699479 
L 205.451193 77.5789 
L 205.746925 76.072234 
L 206.042657 80.795351 
L 206.338389 81.510506 
L 207.225585 81.551333 
L 207.521317 81.58438 
L 207.817049 80.758428 
L 208.112781 81.534251 
L 208.999977 81.637508 
L 209.295709 81.519365 
L 209.591441 81.612352 
L 209.887173 81.578612 
L 210.182905 80.4798 
L 210.478637 80.830198 
L 210.774369 81.441144 
L 211.661564 81.4266 
L 211.957296 81.634786 
L 212.253028 81.547383 
L 212.54876 80.165542 
L 212.54876 80.165542 
" clip-path="url(#p21c059ea32)" style="fill: none; stroke: #1f77b4; stroke-width: 1.5; stroke-linecap: square"/>
   </g>
   <g id="patch_3">
    <path d="M 57.6 162.432 
L 57.6 41.472 
" style="fill: none; stroke: #000000; stroke-width: 0.8; stroke-linejoin: miter; stroke-linecap: square"/>
   </g>
   <g id="patch_4">
    <path d="M 219.927273 162.432 
L 219.927273 41.472 
" style="fill: none; stroke: #000000; stroke-width: 0.8; stroke-linejoin: miter; stroke-linecap: square"/>
   </g>
   <g id="patch_5">
    <path d="M 57.6 162.432 
L 219.927273 162.432 
" style="fill: none; stroke: #000000; stroke-width: 0.8; stroke-linejoin: miter; stroke-linecap: square"/>
   </g>
   <g id="patch_6">
    <path d="M 57.6 41.472 
L 219.927273 41.472 
" style="fill: none; stroke: #000000; stroke-width: 0.8; stroke-linejoin: miter; stroke-linecap: square"/>
   </g>
  </g>
  <g id="axes_2">
   <g id="patch_7">
    <path d="M 252.392727 162.432 
L 414.72 162.432 
L 414.72 41.472 
L 252.392727 41.472 
z
" style="fill: #ffffff"/>
   </g>
   <g id="PolyCollection_1">
    <path d="M 334.06619 156.933818 
L 333.046537 156.933818 
L 332.615286 155.823074 
L 331.729644 154.712331 
L 330.037425 153.601587 
L 327.066112 152.490843 
L 322.293528 151.380099 
L 315.303489 150.269355 
L 306.009409 149.158612 
L 294.873689 148.047868 
L 283.008591 146.937124 
L 272.05531 145.82638 
L 263.820269 144.715636 
L 259.77124 143.604893 
L 260.589293 142.494149 
L 265.968973 141.383405 
L 274.749409 140.272661 
L 285.305134 139.161917 
L 296.018038 138.051174 
L 305.646451 136.94043 
L 313.490138 135.829686 
L 319.358155 134.718942 
L 323.418593 133.608198 
L 326.022141 132.497455 
L 327.561483 131.386711 
L 328.387703 130.275967 
L 328.776197 129.165223 
L 328.9239 128.054479 
L 328.961277 126.943736 
L 328.968389 125.832992 
L 328.98979 124.722248 
L 329.046435 123.611504 
L 329.144644 122.50076 
L 329.282768 121.390017 
L 329.456025 120.279273 
L 329.659563 119.168529 
L 329.889585 118.057785 
L 330.14268 116.947041 
L 330.414039 115.836298 
L 330.695699 114.725554 
L 330.975933 113.61481 
L 331.240405 112.504066 
L 331.474968 111.393322 
L 331.669193 110.282579 
L 331.819262 109.171835 
L 331.928973 108.061091 
L 332.008305 106.950347 
L 332.070082 105.839603 
L 332.126098 104.72886 
L 332.184113 103.618116 
L 332.246526 102.507372 
L 332.3107 101.396628 
L 332.370491 100.285884 
L 332.41859 99.17514 
L 332.449374 98.064397 
L 332.461698 96.953653 
L 332.460631 95.842909 
L 332.457112 94.732165 
L 332.465164 93.621421 
L 332.497497 92.510678 
L 332.561173 91.399934 
L 332.655047 90.28919 
L 332.769849 89.178446 
L 332.890709 88.067702 
L 333.001164 86.956959 
L 333.087419 85.846215 
L 333.14179 84.735471 
L 333.164478 83.624727 
L 333.16313 82.513983 
L 333.150167 81.40324 
L 333.138635 80.292496 
L 333.138026 79.181752 
L 333.15175 78.071008 
L 333.177269 76.960264 
L 333.208664 75.849521 
L 333.240181 74.738777 
L 333.268921 73.628033 
L 333.295451 72.517289 
L 333.322416 71.406545 
L 333.352241 70.295802 
L 333.385319 69.185058 
L 333.419478 68.074314 
L 333.450669 66.96357 
L 333.474177 65.852826 
L 333.485643 64.742083 
L 333.481611 63.631339 
L 333.45975 62.520595 
L 333.419125 61.409851 
L 333.360647 60.299107 
L 333.287508 59.188364 
L 333.20519 58.07762 
L 333.120752 56.966876 
L 333.041537 55.856132 
L 332.973855 54.745388 
L 332.922239 53.634645 
L 332.889558 52.523901 
L 332.877652 51.413157 
L 332.887831 50.302413 
L 332.9207 49.191669 
L 332.975334 48.080926 
L 333.048346 46.970182 
L 334.064382 46.970182 
L 334.064382 46.970182 
L 334.137394 48.080926 
L 334.192027 49.191669 
L 334.224897 50.302413 
L 334.235075 51.413157 
L 334.223169 52.523901 
L 334.190489 53.634645 
L 334.138872 54.745388 
L 334.07119 55.856132 
L 333.991975 56.966876 
L 333.907537 58.07762 
L 333.825219 59.188364 
L 333.75208 60.299107 
L 333.693602 61.409851 
L 333.652977 62.520595 
L 333.631117 63.631339 
L 333.627084 64.742083 
L 333.638551 65.852826 
L 333.662058 66.96357 
L 333.693249 68.074314 
L 333.727408 69.185058 
L 333.760486 70.295802 
L 333.790312 71.406545 
L 333.817276 72.517289 
L 333.843806 73.628033 
L 333.872546 74.738777 
L 333.904064 75.849521 
L 333.935458 76.960264 
L 333.960977 78.071008 
L 333.974701 79.181752 
L 333.974093 80.292496 
L 333.96256 81.40324 
L 333.949597 82.513983 
L 333.948249 83.624727 
L 333.970938 84.735471 
L 334.025309 85.846215 
L 334.111563 86.956959 
L 334.222018 88.067702 
L 334.342879 89.178446 
L 334.45768 90.28919 
L 334.551554 91.399934 
L 334.615231 92.510678 
L 334.647563 93.621421 
L 334.655616 94.732165 
L 334.652096 95.842909 
L 334.651029 96.953653 
L 334.663353 98.064397 
L 334.694138 99.17514 
L 334.742237 100.285884 
L 334.802027 101.396628 
L 334.866201 102.507372 
L 334.928615 103.618116 
L 334.98663 104.72886 
L 335.042646 105.839603 
L 335.104423 106.950347 
L 335.183754 108.061091 
L 335.293465 109.171835 
L 335.443535 110.282579 
L 335.637759 111.393322 
L 335.872322 112.504066 
L 336.136794 113.61481 
L 336.417028 114.725554 
L 336.698689 115.836298 
L 336.970047 116.947041 
L 337.223142 118.057785 
L 337.453164 119.168529 
L 337.656702 120.279273 
L 337.829959 121.390017 
L 337.968083 122.50076 
L 338.066293 123.611504 
L 338.122937 124.722248 
L 338.144338 125.832992 
L 338.151451 126.943736 
L 338.188827 128.054479 
L 338.336531 129.165223 
L 338.725024 130.275967 
L 339.551244 131.386711 
L 341.090586 132.497455 
L 343.694134 133.608198 
L 347.754572 134.718942 
L 353.622589 135.829686 
L 361.466276 136.94043 
L 371.094689 138.051174 
L 381.807593 139.161917 
L 392.363319 140.272661 
L 401.143754 141.383405 
L 406.523434 142.494149 
L 407.341488 143.604893 
L 403.292459 144.715636 
L 395.057417 145.82638 
L 384.104137 146.937124 
L 372.239038 148.047868 
L 361.103318 149.158612 
L 351.809238 150.269355 
L 344.819199 151.380099 
L 340.046615 152.490843 
L 337.075302 153.601587 
L 335.383083 154.712331 
L 334.497441 155.823074 
L 334.06619 156.933818 
z
" clip-path="url(#p5490a77995)" style="fill: #1f77b4; fill-opacity: 0.3"/>
   </g>
   <g id="matplotlib.axis_3">
    <g id="xtick_4">
     <g id="line2d_20">
      <path d="M 274.528264 162.432 
L 274.528264 41.472 
" clip-path="url(#p5490a77995)" style="fill: none; stroke: #b0b0b0; stroke-width: 0.8; stroke-linecap: square"/>
     </g>
     <g id="line2d_21">
      <g>
       <use xlink:href="#m2e569338cc" x="274.528264" y="162.432" style="stroke: #000000; stroke-width: 0.8"/>
      </g>
     </g>
     <g id="text_11">
      <!-- 0.8 -->
      <g transform="translate(266.576702 177.030437)scale(0.1 -0.1)">
       <defs>
        <path id="DejaVuSans-2e" d="M 684 794 
L 1344 794 
L 1344 0 
L 684 0 
L 684 794 
z
" transform="scale(0.015625)"/>
       </defs>
       <use xlink:href="#DejaVuSans-30"/>
       <use xlink:href="#DejaVuSans-2e" x="63.623047"/>
       <use xlink:href="#DejaVuSans-38" x="95.410156"/>
      </g>
     </g>
    </g>
    <g id="xtick_5">
     <g id="line2d_22">
      <path d="M 333.556364 162.432 
L 333.556364 41.472 
" clip-path="url(#p5490a77995)" style="fill: none; stroke: #b0b0b0; stroke-width: 0.8; stroke-linecap: square"/>
     </g>
     <g id="line2d_23">
      <g>
       <use xlink:href="#m2e569338cc" x="333.556364" y="162.432" style="stroke: #000000; stroke-width: 0.8"/>
      </g>
     </g>
     <g id="text_12">
      <!-- 1.0 -->
      <g transform="translate(325.604801 177.030437)scale(0.1 -0.1)">
       <use xlink:href="#DejaVuSans-31"/>
       <use xlink:href="#DejaVuSans-2e" x="63.623047"/>
       <use xlink:href="#DejaVuSans-30" x="95.410156"/>
      </g>
     </g>
    </g>
    <g id="xtick_6">
     <g id="line2d_24">
      <path d="M 392.584463 162.432 
L 392.584463 41.472 
" clip-path="url(#p5490a77995)" style="fill: none; stroke: #b0b0b0; stroke-width: 0.8; stroke-linecap: square"/>
     </g>
     <g id="line2d_25">
      <g>
       <use xlink:href="#m2e569338cc" x="392.584463" y="162.432" style="stroke: #000000; stroke-width: 0.8"/>
      </g>
     </g>
     <g id="text_13">
      <!-- 1.2 -->
      <g transform="translate(384.6329 177.030437)scale(0.1 -0.1)">
       <use xlink:href="#DejaVuSans-31"/>
       <use xlink:href="#DejaVuSans-2e" x="63.623047"/>
       <use xlink:href="#DejaVuSans-32" x="95.410156"/>
      </g>
     </g>
    </g>
   </g>
   <g id="matplotlib.axis_4">
    <g id="ytick_7">
     <g id="line2d_26">
      <path d="M 252.392727 153.340063 
L 414.72 153.340063 
" clip-path="url(#p5490a77995)" style="fill: none; stroke: #b0b0b0; stroke-width: 0.8; stroke-linecap: square"/>
     </g>
     <g id="line2d_27">
      <g>
       <use xlink:href="#m560dd2f590" x="252.392727" y="153.340063" style="stroke: #000000; stroke-width: 0.8"/>
      </g>
     </g>
     <g id="text_14">
      <!-- 65 -->
      <g transform="translate(232.667727 157.139282)scale(0.1 -0.1)">
       <defs>
        <path id="DejaVuSans-35" d="M 691 4666 
L 3169 4666 
L 3169 4134 
L 1269 4134 
L 1269 2991 
Q 1406 3038 1543 3061 
Q 1681 3084 1819 3084 
Q 2600 3084 3056 2656 
Q 3513 2228 3513 1497 
Q 3513 744 3044 326 
Q 2575 -91 1722 -91 
Q 1428 -91 1123 -41 
Q 819 9 494 109 
L 494 744 
Q 775 591 1075 516 
Q 1375 441 1709 441 
Q 2250 441 2565 725 
Q 2881 1009 2881 1497 
Q 2881 1984 2565 2268 
Q 2250 2553 1709 2553 
Q 1456 2553 1204 2497 
Q 953 2441 691 2322 
L 691 4666 
z
" transform="scale(0.015625)"/>
       </defs>
       <use xlink:href="#DejaVuSans-36"/>
       <use xlink:href="#DejaVuSans-35" x="63.623047"/>
      </g>
     </g>
    </g>
    <g id="ytick_8">
     <g id="line2d_28">
      <path d="M 252.392727 129.24862 
L 414.72 129.24862 
" clip-path="url(#p5490a77995)" style="fill: none; stroke: #b0b0b0; stroke-width: 0.8; stroke-linecap: square"/>
     </g>
     <g id="line2d_29">
      <g>
       <use xlink:href="#m560dd2f590" x="252.392727" y="129.24862" style="stroke: #000000; stroke-width: 0.8"/>
      </g>
     </g>
     <g id="text_15">
      <!-- 70 -->
      <g transform="translate(232.667727 133.047839)scale(0.1 -0.1)">
       <defs>
        <path id="DejaVuSans-37" d="M 525 4666 
L 3525 4666 
L 3525 4397 
L 1831 0 
L 1172 0 
L 2766 4134 
L 525 4134 
L 525 4666 
z
" transform="scale(0.015625)"/>
       </defs>
       <use xlink:href="#DejaVuSans-37"/>
       <use xlink:href="#DejaVuSans-30" x="63.623047"/>
      </g>
     </g>
    </g>
    <g id="ytick_9">
     <g id="line2d_30">
      <path d="M 252.392727 105.157177 
L 414.72 105.157177 
" clip-path="url(#p5490a77995)" style="fill: none; stroke: #b0b0b0; stroke-width: 0.8; stroke-linecap: square"/>
     </g>
     <g id="line2d_31">
      <g>
       <use xlink:href="#m560dd2f590" x="252.392727" y="105.157177" style="stroke: #000000; stroke-width: 0.8"/>
      </g>
     </g>
     <g id="text_16">
      <!-- 75 -->
      <g transform="translate(232.667727 108.956396)scale(0.1 -0.1)">
       <use xlink:href="#DejaVuSans-37"/>
       <use xlink:href="#DejaVuSans-35" x="63.623047"/>
      </g>
     </g>
    </g>
    <g id="ytick_10">
     <g id="line2d_32">
      <path d="M 252.392727 81.065734 
L 414.72 81.065734 
" clip-path="url(#p5490a77995)" style="fill: none; stroke: #b0b0b0; stroke-width: 0.8; stroke-linecap: square"/>
     </g>
     <g id="line2d_33">
      <g>
       <use xlink:href="#m560dd2f590" x="252.392727" y="81.065734" style="stroke: #000000; stroke-width: 0.8"/>
      </g>
     </g>
     <g id="text_17">
      <!-- 80 -->
      <g transform="translate(232.667727 84.864953)scale(0.1 -0.1)">
       <use xlink:href="#DejaVuSans-38"/>
       <use xlink:href="#DejaVuSans-30" x="63.623047"/>
      </g>
     </g>
    </g>
    <g id="ytick_11">
     <g id="line2d_34">
      <path d="M 252.392727 56.974292 
L 414.72 56.974292 
" clip-path="url(#p5490a77995)" style="fill: none; stroke: #b0b0b0; stroke-width: 0.8; stroke-linecap: square"/>
     </g>
     <g id="line2d_35">
      <g>
       <use xlink:href="#m560dd2f590" x="252.392727" y="56.974292" style="stroke: #000000; stroke-width: 0.8"/>
      </g>
     </g>
     <g id="text_18">
      <!-- 85 -->
      <g transform="translate(232.667727 60.77351)scale(0.1 -0.1)">
       <use xlink:href="#DejaVuSans-38"/>
       <use xlink:href="#DejaVuSans-35" x="63.623047"/>
      </g>
     </g>
    </g>
   </g>
   <g id="LineCollection_1">
    <path d="M 296.663802 46.970182 
L 370.448926 46.970182 
" clip-path="url(#p5490a77995)" style="fill: none; stroke: #1f77b4; stroke-width: 1.5"/>
   </g>
   <g id="LineCollection_2">
    <path d="M 296.663802 156.933818 
L 370.448926 156.933818 
" clip-path="url(#p5490a77995)" style="fill: none; stroke: #1f77b4; stroke-width: 1.5"/>
   </g>
   <g id="LineCollection_3">
    <path d="M 333.556364 156.933818 
L 333.556364 46.970182 
" clip-path="url(#p5490a77995)" style="fill: none; stroke: #1f77b4; stroke-width: 1.5"/>
   </g>
   <g id="LineCollection_4">
    <path d="M 296.663802 143.419841 
L 370.448926 143.419841 
" clip-path="url(#p5490a77995)" style="fill: none; stroke: #1f77b4; stroke-width: 1.5"/>
   </g>
   <g id="patch_8">
    <path d="M 252.392727 162.432 
L 252.392727 41.472 
" style="fill: none; stroke: #000000; stroke-width: 0.8; stroke-linejoin: miter; stroke-linecap: square"/>
   </g>
   <g id="patch_9">
    <path d="M 414.72 162.432 
L 414.72 41.472 
" style="fill: none; stroke: #000000; stroke-width: 0.8; stroke-linejoin: miter; stroke-linecap: square"/>
   </g>
   <g id="patch_10">
    <path d="M 252.392727 162.432 
L 414.72 162.432 
" style="fill: none; stroke: #000000; stroke-width: 0.8; stroke-linejoin: miter; stroke-linecap: square"/>
   </g>
   <g id="patch_11">
    <path d="M 252.392727 41.472 
L 414.72 41.472 
" style="fill: none; stroke: #000000; stroke-width: 0.8; stroke-linejoin: miter; stroke-linecap: square"/>
   </g>
  </g>
  <g id="axes_3">
   <g id="patch_12">
    <path d="M 57.6 307.584 
L 219.927273 307.584 
L 219.927273 186.624 
L 57.6 186.624 
z
" style="fill: #ffffff"/>
   </g>
   <g id="matplotlib.axis_5">
    <g id="xtick_7">
     <g id="line2d_36">
      <path d="M 64.978512 307.584 
L 64.978512 186.624 
" clip-path="url(#p211d232339)" style="fill: none; stroke: #b0b0b0; stroke-width: 0.8; stroke-linecap: square"/>
     </g>
     <g id="line2d_37">
      <g>
       <use xlink:href="#m2e569338cc" x="64.978512" y="307.584" style="stroke: #000000; stroke-width: 0.8"/>
      </g>
     </g>
     <g id="text_19">
      <!-- 0 -->
      <g transform="translate(61.797262 322.182437)scale(0.1 -0.1)">
       <use xlink:href="#DejaVuSans-30"/>
      </g>
     </g>
    </g>
    <g id="xtick_8">
     <g id="line2d_38">
      <path d="M 124.124904 307.584 
L 124.124904 186.624 
" clip-path="url(#p211d232339)" style="fill: none; stroke: #b0b0b0; stroke-width: 0.8; stroke-linecap: square"/>
     </g>
     <g id="line2d_39">
      <g>
       <use xlink:href="#m2e569338cc" x="124.124904" y="307.584" style="stroke: #000000; stroke-width: 0.8"/>
      </g>
     </g>
     <g id="text_20">
      <!-- 200 -->
      <g transform="translate(114.581154 322.182437)scale(0.1 -0.1)">
       <use xlink:href="#DejaVuSans-32"/>
       <use xlink:href="#DejaVuSans-30" x="63.623047"/>
       <use xlink:href="#DejaVuSans-30" x="127.246094"/>
      </g>
     </g>
    </g>
    <g id="xtick_9">
     <g id="line2d_40">
      <path d="M 183.271296 307.584 
L 183.271296 186.624 
" clip-path="url(#p211d232339)" style="fill: none; stroke: #b0b0b0; stroke-width: 0.8; stroke-linecap: square"/>
     </g>
     <g id="line2d_41">
      <g>
       <use xlink:href="#m2e569338cc" x="183.271296" y="307.584" style="stroke: #000000; stroke-width: 0.8"/>
      </g>
     </g>
     <g id="text_21">
      <!-- 400 -->
      <g transform="translate(173.727546 322.182437)scale(0.1 -0.1)">
       <use xlink:href="#DejaVuSans-34"/>
       <use xlink:href="#DejaVuSans-30" x="63.623047"/>
       <use xlink:href="#DejaVuSans-30" x="127.246094"/>
      </g>
     </g>
    </g>
   </g>
   <g id="matplotlib.axis_6">
    <g id="ytick_12">
     <g id="line2d_42">
      <path d="M 57.6 307.584 
L 219.927273 307.584 
" clip-path="url(#p211d232339)" style="fill: none; stroke: #b0b0b0; stroke-width: 0.8; stroke-linecap: square"/>
     </g>
     <g id="line2d_43">
      <g>
       <use xlink:href="#m560dd2f590" x="57.6" y="307.584" style="stroke: #000000; stroke-width: 0.8"/>
      </g>
     </g>
     <g id="text_22">
      <!-- 0 -->
      <g transform="translate(44.2375 311.383219)scale(0.1 -0.1)">
       <use xlink:href="#DejaVuSans-30"/>
      </g>
     </g>
    </g>
    <g id="ytick_13">
     <g id="line2d_44">
      <path d="M 57.6 283.392 
L 219.927273 283.392 
" clip-path="url(#p211d232339)" style="fill: none; stroke: #b0b0b0; stroke-width: 0.8; stroke-linecap: square"/>
     </g>
     <g id="line2d_45">
      <g>
       <use xlink:href="#m560dd2f590" x="57.6" y="283.392" style="stroke: #000000; stroke-width: 0.8"/>
      </g>
     </g>
     <g id="text_23">
      <!-- 2 -->
      <g transform="translate(44.2375 287.191219)scale(0.1 -0.1)">
       <use xlink:href="#DejaVuSans-32"/>
      </g>
     </g>
    </g>
    <g id="ytick_14">
     <g id="line2d_46">
      <path d="M 57.6 259.2 
L 219.927273 259.2 
" clip-path="url(#p211d232339)" style="fill: none; stroke: #b0b0b0; stroke-width: 0.8; stroke-linecap: square"/>
     </g>
     <g id="line2d_47">
      <g>
       <use xlink:href="#m560dd2f590" x="57.6" y="259.2" style="stroke: #000000; stroke-width: 0.8"/>
      </g>
     </g>
     <g id="text_24">
      <!-- 4 -->
      <g transform="translate(44.2375 262.999219)scale(0.1 -0.1)">
       <use xlink:href="#DejaVuSans-34"/>
      </g>
     </g>
    </g>
    <g id="ytick_15">
     <g id="line2d_48">
      <path d="M 57.6 235.008 
L 219.927273 235.008 
" clip-path="url(#p211d232339)" style="fill: none; stroke: #b0b0b0; stroke-width: 0.8; stroke-linecap: square"/>
     </g>
     <g id="line2d_49">
      <g>
       <use xlink:href="#m560dd2f590" x="57.6" y="235.008" style="stroke: #000000; stroke-width: 0.8"/>
      </g>
     </g>
     <g id="text_25">
      <!-- 6 -->
      <g transform="translate(44.2375 238.807219)scale(0.1 -0.1)">
       <use xlink:href="#DejaVuSans-36"/>
      </g>
     </g>
    </g>
    <g id="ytick_16">
     <g id="line2d_50">
      <path d="M 57.6 210.816 
L 219.927273 210.816 
" clip-path="url(#p211d232339)" style="fill: none; stroke: #b0b0b0; stroke-width: 0.8; stroke-linecap: square"/>
     </g>
     <g id="line2d_51">
      <g>
       <use xlink:href="#m560dd2f590" x="57.6" y="210.816" style="stroke: #000000; stroke-width: 0.8"/>
      </g>
     </g>
     <g id="text_26">
      <!-- 8 -->
      <g transform="translate(44.2375 214.615219)scale(0.1 -0.1)">
       <use xlink:href="#DejaVuSans-38"/>
      </g>
     </g>
    </g>
    <g id="ytick_17">
     <g id="line2d_52">
      <path d="M 57.6 186.624 
L 219.927273 186.624 
" clip-path="url(#p211d232339)" style="fill: none; stroke: #b0b0b0; stroke-width: 0.8; stroke-linecap: square"/>
     </g>
     <g id="line2d_53">
      <g>
       <use xlink:href="#m560dd2f590" x="57.6" y="186.624" style="stroke: #000000; stroke-width: 0.8"/>
      </g>
     </g>
     <g id="text_27">
      <!-- 10 -->
      <g transform="translate(37.875 190.423219)scale(0.1 -0.1)">
       <use xlink:href="#DejaVuSans-31"/>
       <use xlink:href="#DejaVuSans-30" x="63.623047"/>
      </g>
     </g>
    </g>
    <g id="text_28">
     <!-- xruns per period -->
     <g transform="translate(31.795312 288.474312)rotate(-90)scale(0.1 -0.1)">
      <defs>
       <path id="DejaVuSans-78" d="M 3513 3500 
L 2247 1797 
L 3578 0 
L 2900 0 
L 1881 1375 
L 863 0 
L 184 0 
L 1544 1831 
L 300 3500 
L 978 3500 
L 1906 2253 
L 2834 3500 
L 3513 3500 
z
" transform="scale(0.015625)"/>
       <path id="DejaVuSans-72" d="M 2631 2963 
Q 2534 3019 2420 3045 
Q 2306 3072 2169 3072 
Q 1681 3072 1420 2755 
Q 1159 2438 1159 1844 
L 1159 0 
L 581 0 
L 581 3500 
L 1159 3500 
L 1159 2956 
Q 1341 3275 1631 3429 
Q 1922 3584 2338 3584 
Q 2397 3584 2469 3576 
Q 2541 3569 2628 3553 
L 2631 2963 
z
" transform="scale(0.015625)"/>
       <path id="DejaVuSans-75" d="M 544 1381 
L 544 3500 
L 1119 3500 
L 1119 1403 
Q 1119 906 1312 657 
Q 1506 409 1894 409 
Q 2359 409 2629 706 
Q 2900 1003 2900 1516 
L 2900 3500 
L 3475 3500 
L 3475 0 
L 2900 0 
L 2900 538 
Q 2691 219 2414 64 
Q 2138 -91 1772 -91 
Q 1169 -91 856 284 
Q 544 659 544 1381 
z
M 1991 3584 
L 1991 3584 
z
" transform="scale(0.015625)"/>
       <path id="DejaVuSans-6e" d="M 3513 2113 
L 3513 0 
L 2938 0 
L 2938 2094 
Q 2938 2591 2744 2837 
Q 2550 3084 2163 3084 
Q 1697 3084 1428 2787 
Q 1159 2491 1159 1978 
L 1159 0 
L 581 0 
L 581 3500 
L 1159 3500 
L 1159 2956 
Q 1366 3272 1645 3428 
Q 1925 3584 2291 3584 
Q 2894 3584 3203 3211 
Q 3513 2838 3513 2113 
z
" transform="scale(0.015625)"/>
       <path id="DejaVuSans-73" d="M 2834 3397 
L 2834 2853 
Q 2591 2978 2328 3040 
Q 2066 3103 1784 3103 
Q 1356 3103 1142 2972 
Q 928 2841 928 2578 
Q 928 2378 1081 2264 
Q 1234 2150 1697 2047 
L 1894 2003 
Q 2506 1872 2764 1633 
Q 3022 1394 3022 966 
Q 3022 478 2636 193 
Q 2250 -91 1575 -91 
Q 1294 -91 989 -36 
Q 684 19 347 128 
L 347 722 
Q 666 556 975 473 
Q 1284 391 1588 391 
Q 1994 391 2212 530 
Q 2431 669 2431 922 
Q 2431 1156 2273 1281 
Q 2116 1406 1581 1522 
L 1381 1569 
Q 847 1681 609 1914 
Q 372 2147 372 2553 
Q 372 3047 722 3315 
Q 1072 3584 1716 3584 
Q 2034 3584 2315 3537 
Q 2597 3491 2834 3397 
z
" transform="scale(0.015625)"/>
       <path id="DejaVuSans-70" d="M 1159 525 
L 1159 -1331 
L 581 -1331 
L 581 3500 
L 1159 3500 
L 1159 2969 
Q 1341 3281 1617 3432 
Q 1894 3584 2278 3584 
Q 2916 3584 3314 3078 
Q 3713 2572 3713 1747 
Q 3713 922 3314 415 
Q 2916 -91 2278 -91 
Q 1894 -91 1617 61 
Q 1341 213 1159 525 
z
M 3116 1747 
Q 3116 2381 2855 2742 
Q 2594 3103 2138 3103 
Q 1681 3103 1420 2742 
Q 1159 2381 1159 1747 
Q 1159 1113 1420 752 
Q 1681 391 2138 391 
Q 2594 391 2855 752 
Q 3116 1113 3116 1747 
z
" transform="scale(0.015625)"/>
       <path id="DejaVuSans-65" d="M 3597 1894 
L 3597 1613 
L 953 1613 
Q 991 1019 1311 708 
Q 1631 397 2203 397 
Q 2534 397 2845 478 
Q 3156 559 3463 722 
L 3463 178 
Q 3153 47 2828 -22 
Q 2503 -91 2169 -91 
Q 1331 -91 842 396 
Q 353 884 353 1716 
Q 353 2575 817 3079 
Q 1281 3584 2069 3584 
Q 2775 3584 3186 3129 
Q 3597 2675 3597 1894 
z
M 3022 2063 
Q 3016 2534 2758 2815 
Q 2500 3097 2075 3097 
Q 1594 3097 1305 2825 
Q 1016 2553 972 2059 
L 3022 2063 
z
" transform="scale(0.015625)"/>
       <path id="DejaVuSans-69" d="M 603 3500 
L 1178 3500 
L 1178 0 
L 603 0 
L 603 3500 
z
M 603 4863 
L 1178 4863 
L 1178 4134 
L 603 4134 
L 603 4863 
z
" transform="scale(0.015625)"/>
      </defs>
      <use xlink:href="#DejaVuSans-78"/>
      <use xlink:href="#DejaVuSans-72" x="59.179688"/>
      <use xlink:href="#DejaVuSans-75" x="100.292969"/>
      <use xlink:href="#DejaVuSans-6e" x="163.671875"/>
      <use xlink:href="#DejaVuSans-73" x="227.050781"/>
      <use xlink:href="#DejaVuSans-20" x="279.150391"/>
      <use xlink:href="#DejaVuSans-70" x="310.9375"/>
      <use xlink:href="#DejaVuSans-65" x="374.414062"/>
      <use xlink:href="#DejaVuSans-72" x="435.9375"/>
      <use xlink:href="#DejaVuSans-20" x="477.050781"/>
      <use xlink:href="#DejaVuSans-70" x="508.837891"/>
      <use xlink:href="#DejaVuSans-65" x="572.314453"/>
      <use xlink:href="#DejaVuSans-72" x="633.837891"/>
      <use xlink:href="#DejaVuSans-69" x="674.951172"/>
      <use xlink:href="#DejaVuSans-6f" x="702.734375"/>
      <use xlink:href="#DejaVuSans-64" x="763.916016"/>
     </g>
    </g>
   </g>
   <g id="line2d_54">
    <path d="M 64.978512 307.584 
L 68.527296 307.584 
L 68.823028 283.392 
L 69.11876 307.584 
L 69.414492 295.488 
L 69.710224 307.584 
L 76.807791 307.584 
L 77.103523 295.488 
L 77.399255 295.488 
L 77.694987 307.584 
L 78.286451 307.584 
L 78.582183 295.488 
L 78.877915 222.912 
L 79.173646 295.488 
L 79.469378 307.584 
L 90.411461 307.584 
L 90.707193 295.488 
L 91.002925 295.488 
L 91.298657 307.584 
L 91.890121 307.584 
L 92.481585 247.104 
L 92.777317 295.488 
L 93.073049 307.584 
L 103.127935 307.584 
L 103.423667 295.488 
L 103.719399 307.584 
L 104.606595 307.584 
L 104.902327 295.488 
L 105.198059 307.584 
L 109.634038 307.584 
L 109.92977 222.912 
L 110.225502 295.488 
L 110.521234 307.584 
L 117.618801 307.584 
L 117.914533 247.104 
L 118.210265 295.488 
L 118.505997 307.584 
L 119.097461 307.584 
L 119.393193 295.488 
L 119.688925 307.584 
L 123.237708 307.584 
L 123.53344 283.392 
L 124.124904 307.584 
L 132.701131 307.584 
L 132.996863 283.392 
L 133.588327 307.584 
L 134.179791 307.584 
L 134.475523 295.488 
L 134.771255 307.584 
L 138.61577 307.584 
L 138.911502 283.392 
L 139.502966 307.584 
L 146.304801 307.584 
L 146.600533 259.2 
L 146.896265 307.584 
L 147.783461 307.584 
L 148.374925 235.008 
L 148.670657 295.488 
L 148.966389 307.584 
L 159.021276 307.584 
L 159.317008 295.488 
L 159.61274 295.488 
L 159.908471 307.584 
L 160.499935 307.584 
L 160.795667 295.488 
L 161.387131 295.488 
L 161.682863 307.584 
L 172.624946 307.584 
L 173.21641 283.392 
L 173.512142 307.584 
L 174.399338 307.584 
L 174.695069 271.296 
L 174.990801 295.488 
L 175.286533 307.584 
L 186.228616 307.584 
L 186.524348 295.488 
L 186.82008 295.488 
L 187.115812 307.584 
L 187.707276 307.584 
L 188.003008 295.488 
L 188.29874 271.296 
L 188.594472 295.488 
L 188.890204 307.584 
L 199.240822 307.584 
L 199.536554 295.488 
L 199.832286 295.488 
L 200.128018 307.584 
L 200.42375 307.584 
L 200.719482 295.488 
L 201.015214 307.584 
L 204.859729 307.584 
L 205.155461 283.392 
L 205.451193 307.584 
L 212.54876 307.584 
L 212.54876 307.584 
" clip-path="url(#p211d232339)" style="fill: none; stroke: #1f77b4; stroke-width: 1.5; stroke-linecap: square"/>
   </g>
   <g id="patch_13">
    <path d="M 57.6 307.584 
L 57.6 186.624 
" style="fill: none; stroke: #000000; stroke-width: 0.8; stroke-linejoin: miter; stroke-linecap: square"/>
   </g>
   <g id="patch_14">
    <path d="M 219.927273 307.584 
L 219.927273 186.624 
" style="fill: none; stroke: #000000; stroke-width: 0.8; stroke-linejoin: miter; stroke-linecap: square"/>
   </g>
   <g id="patch_15">
    <path d="M 57.6 307.584 
L 219.927273 307.584 
" style="fill: none; stroke: #000000; stroke-width: 0.8; stroke-linejoin: miter; stroke-linecap: square"/>
   </g>
   <g id="patch_16">
    <path d="M 57.6 186.624 
L 219.927273 186.624 
" style="fill: none; stroke: #000000; stroke-width: 0.8; stroke-linejoin: miter; stroke-linecap: square"/>
   </g>
  </g>
  <g id="axes_4">
   <g id="patch_17">
    <path d="M 252.392727 307.584 
L 414.72 307.584 
L 414.72 186.624 
L 252.392727 186.624 
z
" style="fill: #ffffff"/>
   </g>
   <g id="PolyCollection_2">
    <path d="M 407.341488 302.085818 
L 259.77124 302.085818 
L 263.672254 300.975074 
L 274.180377 299.864331 
L 288.298448 298.753587 
L 302.599134 297.642843 
L 314.526824 296.532099 
L 322.97543 295.421355 
L 328.078052 294.310612 
L 330.603226 293.199868 
L 331.409085 292.089124 
L 331.177573 290.97838 
L 330.398737 289.867636 
L 329.456316 288.756893 
L 328.682839 287.646149 
L 328.336665 286.535405 
L 328.536595 285.424661 
L 329.224813 284.313917 
L 330.202737 283.203174 
L 331.225247 282.09243 
L 332.097242 280.981686 
L 332.722615 279.870942 
L 333.095464 278.760198 
L 333.259255 277.649455 
L 333.268013 276.538711 
L 333.168598 275.427967 
L 333.002863 274.317223 
L 332.816413 273.206479 
L 332.660378 272.095736 
L 332.581088 270.984992 
L 332.603621 269.874248 
L 332.721284 268.763504 
L 332.899424 267.65276 
L 333.091675 266.542017 
L 333.258292 265.431273 
L 333.376403 264.320529 
L 333.439178 263.209785 
L 333.448562 262.099041 
L 333.408823 260.988298 
L 333.325545 259.877554 
L 333.209654 258.76681 
L 333.081836 257.656066 
L 332.97177 256.545322 
L 332.909844 255.434579 
L 332.914864 254.323835 
L 332.985339 253.213091 
L 333.100328 252.102347 
L 333.229425 250.991603 
L 333.345414 249.88086 
L 333.43241 248.770116 
L 333.486585 247.659372 
L 333.511731 246.548628 
L 333.514063 245.437884 
L 333.499404 244.32714 
L 333.473216 243.216397 
L 333.44193 242.105653 
L 333.413493 240.994909 
L 333.395961 239.884165 
L 333.394725 238.773421 
L 333.410202 237.662678 
L 333.437684 236.551934 
L 333.469527 235.44119 
L 333.498174 234.330446 
L 333.518159 233.219702 
L 333.526194 232.108959 
L 333.520017 230.998215 
L 333.497524 229.887471 
L 333.457441 228.776727 
L 333.401615 227.665983 
L 333.337429 226.55524 
L 333.278018 225.444496 
L 333.238796 224.333752 
L 333.231319 223.223008 
L 333.257901 222.112264 
L 333.310474 221.001521 
L 333.374476 219.890777 
L 333.435158 218.780033 
L 333.482495 217.669289 
L 333.512488 216.558545 
L 333.525411 215.447802 
L 333.523207 214.337058 
L 333.508032 213.226314 
L 333.482572 212.11557 
L 333.451271 211.004826 
L 333.420923 209.894083 
L 333.399485 208.783339 
L 333.393291 207.672595 
L 333.404269 206.561851 
L 333.42903 205.451107 
L 333.460454 204.340364 
L 333.490681 203.22962 
L 333.513556 202.118876 
L 333.525255 201.008132 
L 333.523357 199.897388 
L 333.505724 198.786645 
L 333.470668 197.675901 
L 333.418861 196.565157 
L 333.355942 195.454413 
L 333.293591 194.343669 
L 333.24713 193.232926 
L 333.229878 192.122182 
L 333.882849 192.122182 
L 333.882849 192.122182 
L 333.865597 193.232926 
L 333.819136 194.343669 
L 333.756785 195.454413 
L 333.693867 196.565157 
L 333.642059 197.675901 
L 333.607003 198.786645 
L 333.58937 199.897388 
L 333.587472 201.008132 
L 333.599171 202.118876 
L 333.622046 203.22962 
L 333.652274 204.340364 
L 333.683697 205.451107 
L 333.708458 206.561851 
L 333.719437 207.672595 
L 333.713242 208.783339 
L 333.691804 209.894083 
L 333.661457 211.004826 
L 333.630155 212.11557 
L 333.604696 213.226314 
L 333.589521 214.337058 
L 333.587316 215.447802 
L 333.600239 216.558545 
L 333.630232 217.669289 
L 333.677569 218.780033 
L 333.738251 219.890777 
L 333.802253 221.001521 
L 333.854827 222.112264 
L 333.881408 223.223008 
L 333.873932 224.333752 
L 333.834709 225.444496 
L 333.775298 226.55524 
L 333.711112 227.665983 
L 333.655286 228.776727 
L 333.615203 229.887471 
L 333.59271 230.998215 
L 333.586534 232.108959 
L 333.594568 233.219702 
L 333.614553 234.330446 
L 333.643201 235.44119 
L 333.675043 236.551934 
L 333.702526 237.662678 
L 333.718002 238.773421 
L 333.716767 239.884165 
L 333.699234 240.994909 
L 333.670797 242.105653 
L 333.639512 243.216397 
L 333.613323 244.32714 
L 333.598664 245.437884 
L 333.600997 246.548628 
L 333.626142 247.659372 
L 333.680317 248.770116 
L 333.767313 249.88086 
L 333.883302 250.991603 
L 334.012399 252.102347 
L 334.127388 253.213091 
L 334.197863 254.323835 
L 334.202883 255.434579 
L 334.140957 256.545322 
L 334.030891 257.656066 
L 333.903073 258.76681 
L 333.787182 259.877554 
L 333.703905 260.988298 
L 333.664165 262.099041 
L 333.673549 263.209785 
L 333.736324 264.320529 
L 333.854435 265.431273 
L 334.021053 266.542017 
L 334.213303 267.65276 
L 334.391444 268.763504 
L 334.509106 269.874248 
L 334.531639 270.984992 
L 334.452349 272.095736 
L 334.296314 273.206479 
L 334.109864 274.317223 
L 333.944129 275.427967 
L 333.844715 276.538711 
L 333.853473 277.649455 
L 334.017263 278.760198 
L 334.390112 279.870942 
L 335.015485 280.981686 
L 335.88748 282.09243 
L 336.90999 283.203174 
L 337.887914 284.313917 
L 338.576132 285.424661 
L 338.776062 286.535405 
L 338.429888 287.646149 
L 337.656411 288.756893 
L 336.713991 289.867636 
L 335.935154 290.97838 
L 335.703643 292.089124 
L 336.509501 293.199868 
L 339.034676 294.310612 
L 344.137298 295.421355 
L 352.585903 296.532099 
L 364.513594 297.642843 
L 378.81428 298.753587 
L 392.932351 299.864331 
L 403.440473 300.975074 
L 407.341488 302.085818 
z
" clip-path="url(#pbfba34b578)" style="fill: #1f77b4; fill-opacity: 0.3"/>
   </g>
   <g id="matplotlib.axis_7">
    <g id="xtick_10">
     <g id="line2d_55">
      <path d="M 274.528264 307.584 
L 274.528264 186.624 
" clip-path="url(#pbfba34b578)" style="fill: none; stroke: #b0b0b0; stroke-width: 0.8; stroke-linecap: square"/>
     </g>
     <g id="line2d_56">
      <g>
       <use xlink:href="#m2e569338cc" x="274.528264" y="307.584" style="stroke: #000000; stroke-width: 0.8"/>
      </g>
     </g>
     <g id="text_29">
      <!-- 0.8 -->
      <g transform="translate(266.576702 322.182437)scale(0.1 -0.1)">
       <use xlink:href="#DejaVuSans-30"/>
       <use xlink:href="#DejaVuSans-2e" x="63.623047"/>
       <use xlink:href="#DejaVuSans-38" x="95.410156"/>
      </g>
     </g>
    </g>
    <g id="xtick_11">
     <g id="line2d_57">
      <path d="M 333.556364 307.584 
L 333.556364 186.624 
" clip-path="url(#pbfba34b578)" style="fill: none; stroke: #b0b0b0; stroke-width: 0.8; stroke-linecap: square"/>
     </g>
     <g id="line2d_58">
      <g>
       <use xlink:href="#m2e569338cc" x="333.556364" y="307.584" style="stroke: #000000; stroke-width: 0.8"/>
      </g>
     </g>
     <g id="text_30">
      <!-- 1.0 -->
      <g transform="translate(325.604801 322.182437)scale(0.1 -0.1)">
       <use xlink:href="#DejaVuSans-31"/>
       <use xlink:href="#DejaVuSans-2e" x="63.623047"/>
       <use xlink:href="#DejaVuSans-30" x="95.410156"/>
      </g>
     </g>
    </g>
    <g id="xtick_12">
     <g id="line2d_59">
      <path d="M 392.584463 307.584 
L 392.584463 186.624 
" clip-path="url(#pbfba34b578)" style="fill: none; stroke: #b0b0b0; stroke-width: 0.8; stroke-linecap: square"/>
     </g>
     <g id="line2d_60">
      <g>
       <use xlink:href="#m2e569338cc" x="392.584463" y="307.584" style="stroke: #000000; stroke-width: 0.8"/>
      </g>
     </g>
     <g id="text_31">
      <!-- 1.2 -->
      <g transform="translate(384.6329 322.182437)scale(0.1 -0.1)">
       <use xlink:href="#DejaVuSans-31"/>
       <use xlink:href="#DejaVuSans-2e" x="63.623047"/>
       <use xlink:href="#DejaVuSans-32" x="95.410156"/>
      </g>
     </g>
    </g>
   </g>
   <g id="matplotlib.axis_8">
    <g id="ytick_18">
     <g id="line2d_61">
      <path d="M 252.392727 302.085818 
L 414.72 302.085818 
" clip-path="url(#pbfba34b578)" style="fill: none; stroke: #b0b0b0; stroke-width: 0.8; stroke-linecap: square"/>
     </g>
     <g id="line2d_62">
      <g>
       <use xlink:href="#m560dd2f590" x="252.392727" y="302.085818" style="stroke: #000000; stroke-width: 0.8"/>
      </g>
     </g>
     <g id="text_32">
      <!-- 0 -->
      <g transform="translate(239.030227 305.885037)scale(0.1 -0.1)">
       <use xlink:href="#DejaVuSans-30"/>
      </g>
     </g>
    </g>
    <g id="ytick_19">
     <g id="line2d_63">
      <path d="M 252.392727 270.667636 
L 414.72 270.667636 
" clip-path="url(#pbfba34b578)" style="fill: none; stroke: #b0b0b0; stroke-width: 0.8; stroke-linecap: square"/>
     </g>
     <g id="line2d_64">
      <g>
       <use xlink:href="#m560dd2f590" x="252.392727" y="270.667636" style="stroke: #000000; stroke-width: 0.8"/>
      </g>
     </g>
     <g id="text_33">
      <!-- 2 -->
      <g transform="translate(239.030227 274.466855)scale(0.1 -0.1)">
       <use xlink:href="#DejaVuSans-32"/>
      </g>
     </g>
    </g>
    <g id="ytick_20">
     <g id="line2d_65">
      <path d="M 252.392727 239.249455 
L 414.72 239.249455 
" clip-path="url(#pbfba34b578)" style="fill: none; stroke: #b0b0b0; stroke-width: 0.8; stroke-linecap: square"/>
     </g>
     <g id="line2d_66">
      <g>
       <use xlink:href="#m560dd2f590" x="252.392727" y="239.249455" style="stroke: #000000; stroke-width: 0.8"/>
      </g>
     </g>
     <g id="text_34">
      <!-- 4 -->
      <g transform="translate(239.030227 243.048673)scale(0.1 -0.1)">
       <use xlink:href="#DejaVuSans-34"/>
      </g>
     </g>
    </g>
    <g id="ytick_21">
     <g id="line2d_67">
      <path d="M 252.392727 207.831273 
L 414.72 207.831273 
" clip-path="url(#pbfba34b578)" style="fill: none; stroke: #b0b0b0; stroke-width: 0.8; stroke-linecap: square"/>
     </g>
     <g id="line2d_68">
      <g>
       <use xlink:href="#m560dd2f590" x="252.392727" y="207.831273" style="stroke: #000000; stroke-width: 0.8"/>
      </g>
     </g>
     <g id="text_35">
      <!-- 6 -->
      <g transform="translate(239.030227 211.630491)scale(0.1 -0.1)">
       <use xlink:href="#DejaVuSans-36"/>
      </g>
     </g>
    </g>
   </g>
   <g id="LineCollection_5">
    <path d="M 296.663802 192.122182 
L 370.448926 192.122182 
" clip-path="url(#pbfba34b578)" style="fill: none; stroke: #1f77b4; stroke-width: 1.5"/>
   </g>
   <g id="LineCollection_6">
    <path d="M 296.663802 302.085818 
L 370.448926 302.085818 
" clip-path="url(#pbfba34b578)" style="fill: none; stroke: #1f77b4; stroke-width: 1.5"/>
   </g>
   <g id="LineCollection_7">
    <path d="M 333.556364 302.085818 
L 333.556364 192.122182 
" clip-path="url(#pbfba34b578)" style="fill: none; stroke: #1f77b4; stroke-width: 1.5"/>
   </g>
   <g id="LineCollection_8">
    <path d="M 296.663802 302.085818 
L 370.448926 302.085818 
" clip-path="url(#pbfba34b578)" style="fill: none; stroke: #1f77b4; stroke-width: 1.5"/>
   </g>
   <g id="patch_18">
    <path d="M 252.392727 307.584 
L 252.392727 186.624 
" style="fill: none; stroke: #000000; stroke-width: 0.8; stroke-linejoin: miter; stroke-linecap: square"/>
   </g>
   <g id="patch_19">
    <path d="M 414.72 307.584 
L 414.72 186.624 
" style="fill: none; stroke: #000000; stroke-width: 0.8; stroke-linejoin: miter; stroke-linecap: square"/>
   </g>
   <g id="patch_20">
    <path d="M 252.392727 307.584 
L 414.72 307.584 
" style="fill: none; stroke: #000000; stroke-width: 0.8; stroke-linejoin: miter; stroke-linecap: square"/>
   </g>
   <g id="patch_21">
    <path d="M 252.392727 186.624 
L 414.72 186.624 
" style="fill: none; stroke: #000000; stroke-width: 0.8; stroke-linejoin: miter; stroke-linecap: square"/>
   </g>
  </g>
 </g>
 <defs>
  <clipPath id="p21c059ea32">
   <rect x="57.6" y="41.472" width="162.327273" height="120.96"/>
  </clipPath>
  <clipPath id="p5490a77995">
   <rect x="252.392727" y="41.472" width="162.327273" height="120.96"/>
  </clipPath>
  <clipPath id="p211d232339">
   <rect x="57.6" y="186.624" width="162.327273" height="120.96"/>
  </clipPath>
  <clipPath id="pbfba34b578">
   <rect x="252.392727" y="186.624" width="162.327273" height="120.96"/>
  </clipPath>
 </defs>
</svg>
